<?xml version="1.0" encoding="utf-8"?>
<!-- Generator: Adobe Illustrator 19.0.0, SVG Export Plug-In . SVG Version: 6.00 Build 0)  -->
<svg version="1.1" id="Camada_1" xmlns="http://www.w3.org/2000/svg" xmlns:xlink="http://www.w3.org/1999/xlink" x="0px" y="0px"
	 viewBox="0 0 665 165" style="enable-background:new 0 0 665 165;" xml:space="preserve">
<style type="text/css">
	.st0{fill:#FBC23B;}
	.st1{fill:#FBAD00;}
</style>
<g>
	<path class="st0" d="M578.9,10H86.3C44.2,10,10,42.4,10,82.3v0.4c0,39.9,34.2,72.3,76.3,72.3h492.4c42.1,0,76.3-32.4,76.3-72.3
		v-0.4C655,42.4,621,10,578.9,10z"/>
	<path d="M578.7,0H86.3C38.7,0,0,36.9,0,82.3v0.4C0,128.1,38.7,165,86.3,165h492.4c47.6,0,86.3-36.9,86.3-82.3v-0.4
		C665,36.9,626.3,0,578.7,0z M655,82.7c0,39.9-34.2,72.3-76.3,72.3H86.3C44.2,155,10,122.6,10,82.7v-0.4C10,42.4,44.2,10,86.3,10
		h492.6C621,10,655,42.4,655,82.3V82.7z"/>
	<g>
		<path d="M54.4,53.4h7.4l9,41.8l8.5-41.8h7.2L74,110.1H67L54.4,53.4z"/>
		<path d="M94.5,109.3c-1.2-0.9-2.2-2.1-2.9-3.5c-0.7-1.4-1.1-3-1.1-4.6c0-3.2,0.7-5.8,2-7.7c1.4-2,3.1-3.5,5.1-4.7
			c2.1-1.1,5-2.5,8.8-4V82c0-2.7-0.3-4.5-0.8-5.6c-0.5-1.1-1.6-1.6-3.3-1.6c-2.8,0-4.3,1.9-4.3,5.7v2l-7.4-0.3l0.1-1.5
			c0.2-4.1,1.4-7,3.4-8.9c2-1.8,4.9-2.8,8.7-2.8c3.9,0,6.7,1.1,8.4,3.2c1.8,2.1,2.6,5.3,2.6,9.6v18.5c0,3,0.2,6.3,0.7,9.7h-6.9
			c-0.5-2.7-0.8-4.6-1-6c-0.6,1.8-1.5,3.4-2.9,4.6c-1.4,1.3-3.1,1.9-5.3,1.9C97.1,110.7,95.8,110.2,94.5,109.3z M104.5,103.1
			c0.9-0.8,1.6-1.5,2-2.2V89.4c-2.1,1.2-3.6,2.2-4.6,2.8c-1,0.7-1.9,1.6-2.7,2.7c-0.8,1.1-1.2,2.5-1.2,4c0,1.7,0.3,3,0.9,3.9
			c0.6,0.9,1.5,1.4,2.7,1.4C102.6,104.2,103.6,103.8,104.5,103.1z"/>
		<path d="M121.2,69.7h6.9v3.8c1.4-1.5,2.8-2.6,4.4-3.4c1.6-0.8,3.3-1.2,5.1-1.2c3.5,0,5.6,1.7,6.6,5.1c2.8-3.4,6.2-5.1,10.1-5.1
			c2.1,0,3.8,0.8,5.1,2.3c1.3,1.5,2,3.9,2,7.1v31.8h-6.9V78.8c0-1.8-0.3-3-0.8-3.8c-0.6-0.8-1.4-1.2-2.5-1.2c-1.1,0-2.2,0.3-3.3,0.9
			c-1.1,0.6-2.2,1.4-3.2,2.4v1.2v31.8H138V78.8c0-1.8-0.3-3-0.8-3.8c-0.6-0.8-1.4-1.2-2.4-1.2c-1.1,0-2.2,0.3-3.3,0.9
			c-1.1,0.6-2.2,1.4-3.2,2.4v33h-6.9V69.7z"/>
		<path d="M170.8,106.9c-1.8-2.5-2.7-6.2-2.7-11.1V84c0-4.9,0.9-8.6,2.7-11.1c1.8-2.5,4.8-3.8,9.1-3.8c4.2,0,7.3,1.3,9.1,3.8
			c1.8,2.5,2.7,6.2,2.7,11.1v11.8c0,4.9-0.9,8.6-2.7,11.1c-1.8,2.5-4.8,3.8-9.1,3.8C175.6,110.7,172.5,109.4,170.8,106.9z
			 M182.8,104c0.6-0.8,1-1.8,1.1-2.9c0.1-1.2,0.2-2.8,0.2-4.8V83.6c0-2-0.1-3.6-0.2-4.8c-0.1-1.2-0.5-2.2-1.1-3
			c-0.6-0.8-1.6-1.2-2.9-1.2c-1.4,0-2.3,0.4-3,1.2c-0.6,0.8-1,1.8-1.2,3c-0.1,1.2-0.2,2.8-0.2,4.8v12.7c0,2,0.1,3.6,0.2,4.8
			c0.1,1.2,0.5,2.1,1.2,2.9c0.6,0.8,1.6,1.2,3,1.2C181.2,105.1,182.2,104.7,182.8,104z"/>
		<path d="M199.9,107.6c-2-2.1-3.2-4.8-3.5-8.3l6.2-1.9c0.3,2.6,0.9,4.5,1.8,5.8c0.9,1.3,2.1,1.9,3.7,1.9c1.3,0,2.4-0.4,3.2-1.2
			c0.8-0.8,1.3-1.9,1.3-3.1c0-2.1-1.1-4.1-3.3-6l-6.9-6c-1.6-1.4-2.8-2.8-3.7-4.2c-0.9-1.5-1.3-3.3-1.3-5.4c0-3.2,0.9-5.7,2.8-7.5
			c1.9-1.8,4.4-2.7,7.6-2.7c3.1,0,5.5,1,7.2,3c1.8,2,2.8,4.5,3,7.7l-5,1.9c-0.3-2.3-0.9-4-1.6-5.2c-0.7-1.2-1.9-1.8-3.4-1.8
			c-1.2,0-2.2,0.4-2.9,1.2c-0.7,0.8-1.1,1.8-1,2.9c0,1.5,0.7,2.9,2,4.1l7.1,6.6c1.8,1.6,3.2,3.2,4.2,4.9c1,1.7,1.5,3.7,1.5,6
			c0,3.4-1,5.9-3,7.7c-2,1.8-4.7,2.7-8.2,2.7C204.6,110.7,202,109.6,199.9,107.6z"/>
		<path d="M244.4,108.7c-1.7-1.3-2.9-3.1-3.5-5.4c-0.6-2.3-0.9-5.2-0.9-8.8v-9.3c0-3.6,0.3-6.6,0.9-9c0.6-2.3,1.8-4.1,3.5-5.4
			c1.7-1.2,4.2-1.9,7.3-1.9c2.9,0,5.1,0.5,6.8,1.4c1.6,0.9,2.7,2.3,3.4,4.2c0.6,1.8,0.9,4.2,0.9,7.2v2.4H256v-2.4
			c0-2.7-0.3-4.5-0.9-5.6c-0.6-1-1.7-1.6-3.3-1.6c-1.3,0-2.2,0.3-2.8,0.8c-0.6,0.6-1,1.5-1.3,2.7c-0.2,1.3-0.4,3.1-0.4,5.5v12.7
			c0,2.3,0.1,4.1,0.4,5.4c0.3,1.2,0.7,2.1,1.4,2.6c0.6,0.5,1.5,0.7,2.7,0.7c1.7,0,2.8-0.6,3.4-1.7c0.5-1.1,0.8-2.9,0.8-5.3v-3.3h6.8
			v2.8c0,4.4-0.8,7.7-2.4,9.8c-1.6,2.1-4.5,3.2-8.6,3.2C248.6,110.7,246.2,110,244.4,108.7z"/>
		<path d="M269.7,69.7h7.5v5.7c1.4-2.3,2.8-3.9,4.3-4.8c1.5-0.9,3-1.4,4.7-1.4c0.4,0,0.8,0,1.2,0.1v8.3c-1.5-0.6-2.9-0.8-4.1-0.8
			c-1.2,0-2.3,0.3-3.3,0.9c-1,0.6-1.9,1.6-2.8,3v29.5h-7.5V69.7z"/>
		<path d="M292.4,55.8h7.5v7.8h-7.5V55.8z M292.4,69.7h7.5v40.5h-7.5V69.7z"/>
		<path d="M311.1,109.3c-1.2-0.9-2.2-2.1-2.9-3.5c-0.7-1.4-1-3-1-4.6c0-3.2,0.7-5.8,2-7.7c1.4-2,3.1-3.5,5.1-4.7
			c2.1-1.1,5-2.5,8.8-4V82c0-2.7-0.3-4.5-0.8-5.6c-0.5-1.1-1.6-1.6-3.3-1.6c-2.8,0-4.3,1.9-4.3,5.7v2l-7.4-0.3l0.1-1.5
			c0.2-4.1,1.4-7,3.4-8.9c2-1.8,4.9-2.8,8.7-2.8c3.9,0,6.7,1.1,8.4,3.2c1.8,2.1,2.6,5.3,2.6,9.6v18.5c0,3,0.2,6.3,0.7,9.7h-6.9
			c-0.5-2.7-0.8-4.6-1-6c-0.6,1.8-1.5,3.4-2.9,4.6c-1.4,1.3-3.1,1.9-5.3,1.9C313.7,110.7,312.3,110.2,311.1,109.3z M321.1,103.1
			c0.9-0.8,1.6-1.5,2-2.2V89.4c-2.1,1.2-3.6,2.2-4.6,2.8c-1,0.7-1.9,1.6-2.7,2.7c-0.8,1.1-1.2,2.5-1.2,4c0,1.7,0.3,3,0.9,3.9
			c0.6,0.9,1.5,1.4,2.7,1.4C319.2,104.2,320.1,103.8,321.1,103.1z"/>
		<path d="M338,69.7h7.5v5.7c1.4-2.3,2.8-3.9,4.3-4.8c1.5-0.9,3-1.4,4.7-1.4c0.4,0,0.8,0,1.2,0.1v8.3c-1.5-0.6-2.9-0.8-4.1-0.8
			c-1.2,0-2.3,0.3-3.3,0.9c-1,0.6-1.9,1.6-2.8,3v29.5H338V69.7z"/>
		<path d="M379.4,109.3c-1.2-0.9-2.2-2.1-2.9-3.5c-0.7-1.4-1-3-1-4.6c0-3.2,0.7-5.8,2-7.7c1.4-2,3.1-3.5,5.1-4.7
			c2.1-1.1,5-2.5,8.8-4V82c0-2.7-0.3-4.5-0.8-5.6c-0.5-1.1-1.6-1.6-3.3-1.6c-2.8,0-4.3,1.9-4.3,5.7v2l-7.4-0.3l0.1-1.5
			c0.2-4.1,1.4-7,3.4-8.9c2-1.8,4.9-2.8,8.7-2.8c3.9,0,6.7,1.1,8.4,3.2c1.8,2.1,2.6,5.3,2.6,9.6v18.5c0,3,0.2,6.3,0.7,9.7h-6.9
			c-0.5-2.7-0.8-4.6-1-6c-0.6,1.8-1.5,3.4-2.9,4.6c-1.4,1.3-3.1,1.9-5.3,1.9C382,110.7,380.7,110.2,379.4,109.3z M389.4,103.1
			c0.9-0.8,1.6-1.5,2-2.2V89.4c-2.1,1.2-3.6,2.2-4.6,2.8c-1,0.7-1.9,1.6-2.7,2.7c-0.8,1.1-1.2,2.5-1.2,4c0,1.7,0.3,3,0.9,3.9
			c0.6,0.9,1.5,1.4,2.7,1.4C387.5,104.2,388.5,103.8,389.4,103.1z"/>
		<path d="M406.8,53.4h7.5v56.7h-7.5V53.4z"/>
		<path d="M423.7,121.5c-2.6-0.8-3.9-2.5-3.9-5.1c0-2.1,0.5-3.9,1.6-5.5c1.1-1.5,2.5-2.8,4.2-3.6c-1.3-0.4-2.2-1-2.9-1.8
			c-0.7-0.8-1-1.7-1-2.6c0-1.4,0.3-2.6,1-3.6c0.7-1,1.8-2.3,3.4-3.7c-1.6-1.2-2.8-2.7-3.5-4.6c-0.8-1.8-1.2-4.3-1.2-7.5
			c0-4.7,1-8.3,2.9-10.7c1.9-2.5,4.8-3.7,8.5-3.7c2.1,0,3.9,0.4,5.2,1.1c1.4,0.7,2.4,1.9,3.1,3.4c0.3-0.5,1-1.2,2.1-2.1
			c1-0.9,2.2-1.6,3.4-2.1l1.1-0.5l1.9,4.8c-0.9,0.2-2.2,0.6-3.9,1.2c-1.7,0.6-2.6,1.1-3,1.4c0.3,0.8,0.6,2,0.9,3.5
			c0.3,1.5,0.4,2.8,0.4,3.9c0,4.4-0.9,7.9-2.6,10.3c-1.7,2.5-4.6,3.7-8.6,3.7c-1.3,0-2.5-0.2-3.9-0.5c-0.1,0.1-0.3,0.5-0.7,1.2
			c-0.4,0.7-0.6,1.3-0.6,1.9c0,0.5,0.3,0.9,0.8,1.2c0.5,0.3,1.4,0.5,2.6,0.6c0.7,0.1,1.8,0.2,3.2,0.3c1.4,0.1,2.5,0.2,3.1,0.2
			c6.3,0.6,9.4,3.8,9.4,9.9c0,3.6-1,6.2-2.9,7.7c-1.9,1.6-5,2.3-9.1,2.3C429.9,122.6,426.2,122.2,423.7,121.5z M439.4,115.8
			c1-0.6,1.5-1.6,1.5-3c0-1.3-0.4-2.3-1.2-2.9c-0.8-0.6-2.2-1-4.3-1.2l-6.4-0.6c-0.7,0.6-1.4,1.3-2,2.2c-0.7,0.9-1,1.9-1,3
			c0,0.8,0.2,1.5,0.6,2c0.4,0.5,1.2,0.9,2.5,1.1c1.2,0.2,3,0.4,5.4,0.4C436.8,116.8,438.4,116.4,439.4,115.8z M436.8,90.4
			c0.6-1.4,0.9-3.7,0.9-6.9c0-3.2-0.3-5.6-0.9-7c-0.6-1.5-1.9-2.2-3.9-2.2c-2,0-3.3,0.7-4,2.2c-0.7,1.5-1,3.8-1,7
			c0,2.9,0.3,5.1,1,6.6c0.7,1.5,2,2.3,3.9,2.3C434.9,92.5,436.2,91.8,436.8,90.4z"/>
		<path d="M454.3,106.9c-1.8-2.5-2.7-6.2-2.7-11.1V84c0-4.9,0.9-8.6,2.7-11.1c1.8-2.5,4.8-3.8,9.1-3.8c4.2,0,7.3,1.3,9.1,3.8
			c1.8,2.5,2.7,6.2,2.7,11.1v11.8c0,4.9-0.9,8.6-2.7,11.1c-1.8,2.5-4.8,3.8-9.1,3.8C459.2,110.7,456.1,109.4,454.3,106.9z
			 M466.4,104c0.6-0.8,1-1.8,1.1-2.9c0.1-1.2,0.2-2.8,0.2-4.8V83.6c0-2-0.1-3.6-0.2-4.8c-0.1-1.2-0.5-2.2-1.1-3
			c-0.6-0.8-1.6-1.2-2.9-1.2c-1.4,0-2.3,0.4-3,1.2c-0.6,0.8-1,1.8-1.2,3c-0.1,1.2-0.2,2.8-0.2,4.8v12.7c0,2,0.1,3.6,0.2,4.8
			c0.1,1.2,0.5,2.1,1.2,2.9c0.6,0.8,1.6,1.2,3,1.2C464.8,105.1,465.8,104.7,466.4,104z"/>
		<path d="M499.2,108.3c-0.9-1.6-1.4-3.5-1.4-5.9V69.7h7.5v30.5c0,1.5,0.2,2.7,0.7,3.5c0.5,0.8,1.3,1.2,2.5,1.2
			c1.5,0,3.2-0.8,5.3-2.5V69.7h7.5v40.5h-7.5v-4c-3.2,3-6.5,4.5-9.9,4.5C501.7,110.7,500.2,109.9,499.2,108.3z M511.9,52.4h7.5
			l-7.8,13.9h-3.8L511.9,52.4z"/>
		<path d="M533,108.3c-1.4-1.6-2.1-4-2.1-7.2V74.6h-4.3v-5h4.3V57.8h7.5v11.8h6.5v5h-6.5v25.9c0,1.6,0.3,2.8,0.8,3.4
			c0.5,0.7,1.5,1,2.9,1c0.9,0,1.8-0.1,2.7-0.2v5.5c-1.9,0.3-3.6,0.4-5.2,0.4C536.6,110.7,534.4,109.9,533,108.3z"/>
		<path d="M551,55.8h7.5v7.8H551V55.8z M551,69.7h7.5v40.5H551V69.7z"/>
		<path d="M567.2,53.4h7.5v56.7h-7.5V53.4z"/>
		<path d="M590.1,87.2c4.1-3.5,7.2-6.9,9.3-9.9c2.1-3.1,3.2-6.5,3.2-10.2c0-2.3-0.6-4.1-1.8-5.5c-1.2-1.4-2.8-2.1-5-2.1
			c-1.9,0-3.3,0.5-4.4,1.6c-1.1,1.1-1.6,2.4-1.6,4.2c0,0.8,0.2,2,0.5,3.5l-7,1.3c-0.5-1.4-0.8-2.9-0.8-4.4c0-3.8,1.2-6.8,3.5-9.2
			c2.4-2.3,5.6-3.5,9.8-3.5c4.4,0,7.9,1.3,10.4,3.8c2.5,2.5,3.7,6,3.7,10.6c0,3-0.6,5.7-1.7,8.2c-1.1,2.5-2.6,4.8-4.5,6.9
			c-1.9,2.1-4.2,4.3-7.1,6.8v6.8h-6.7V87.2z M589.7,102.4h7.5v7.7h-7.5V102.4z"/>
	</g>
	<path class="st1" d="M624.8,140.3c-13,9-28.3,14.7-46.1,14.7H86.3c-17.8,0-33.6-6-46.6-15L624.8,140.3z"/>
</g>
</svg>
