<?xml version="1.0" encoding="utf-8"?>
<!-- Generator: Adobe Illustrator 19.0.0, SVG Export Plug-In . SVG Version: 6.00 Build 0)  -->
<svg version="1.1" id="Camada_1" xmlns="http://www.w3.org/2000/svg" xmlns:xlink="http://www.w3.org/1999/xlink" x="0px" y="0px"
	 viewBox="-452.6 -159.4 354.3 145.7" style="enable-background:new -452.6 -159.4 354.3 145.7;" xml:space="preserve">
<style type="text/css">
	.st0{fill:none;}
	.st1{fill:#FFFFFF;}
	.st2{fill:none;stroke:#FF0000;stroke-width:3;stroke-miterlimit:10;}
	.st3{fill:#00FFFF;}
	.st4{opacity:0.21;fill:#FFFFFF;enable-background:new    ;}
	.st5{opacity:0.21;enable-background:new    ;}
	.st6{opacity:0.21;fill:none;stroke:#FF0000;stroke-width:3;stroke-miterlimit:10;enable-background:new    ;}
</style>
<path id="XMLID_85_" class="st0" d="M1029.5-310.1c-0.1,0-0.2,0-0.3-0.1c-0.1,0.1-0.2,0.2-0.3,0.4
	C1027.4-307.9,1030.6-309.7,1029.5-310.1z"/>
<path id="XMLID_84_" class="st0" d="M1030.1-311.1c-0.4,0.4-0.7,0.7-0.9,1l0,0C1029.5-310.5,1029.8-310.8,1030.1-311.1z"/>
<path id="XMLID_83_" class="st0" d="M1029.4-273c-0.1,0-0.2,0-0.3-0.1c-0.2,0.2-0.3,0.4-0.5,0.6C1027.7-271,1030.6-272.7,1029.4-273
	z"/>
<path id="XMLID_82_" class="st0" d="M1029.2-273.1L1029.2-273.1L1029.2-273.1z"/>
<path id="XMLID_81_" class="st0" d="M1022.8-263c-0.1,0-0.2,0-0.3-0.1c-0.2,0.2-0.3,0.4-0.5,0.6
	C1020.7-260.7,1024.1-262.7,1022.8-263z"/>
<path id="XMLID_80_" class="st0" d="M441.7-127.9c-0.2,0.1-0.5,0.1-0.7,0.2c-2,0.7-0.6,1.3,0.7,0.1
	C441.8-127.7,441.7-127.8,441.7-127.9z"/>
<path id="XMLID_78_" class="st0" d="M696.5-125.1c0,0.1,0,0.1,0,0.2C696.6-125.1,696.5-125.1,696.5-125.1z"/>
<path id="XMLID_76_" class="st0" d="M1023.6-264.2c-0.5,0.5-0.8,0.8-1.1,1.1l0,0C1022.8-263.5,1023.2-263.8,1023.6-264.2z"/>
<path id="XMLID_75_" class="st0" d="M1029.7-421c-0.1,0.2-0.2,0.3-0.3,0.5C1029.6-420.7,1029.7-420.9,1029.7-421z"/>
<path id="XMLID_73_" class="st0" d="M1029.6-347c-0.1,0.2-0.1,0.4-0.2,0.6C1029.5-346.7,1029.6-346.9,1029.6-347z"/>
<path id="XMLID_72_" class="st0" d="M1029.2-273.1c0.3-0.3,0.6-0.6,0.9-0.9C1029.7-273.7,1029.4-273.4,1029.2-273.1z"/>
<path id="XMLID_71_" class="st1" d="M442.3-128.1c-0.2,0-0.4,0.1-0.5,0.2c0,0.1,0,0.2,0,0.3C441.9-127.7,442.1-127.9,442.3-128.1z"
	/>
<path id="XMLID_66_" d="M1029.2-310.2c-0.1,0.1-0.2,0.3-0.3,0.4C1029-309.9,1029.1-310,1029.2-310.2L1029.2-310.2z"/>
<path id="XMLID_65_" d="M1027.6-384.4c0,0,0.1,0,0.4,0.1C1027.9-384.3,1027.8-384.4,1027.6-384.4z"/>
<path id="XMLID_63_" d="M1027.6-254.7c0,0,0.1,0,0.4,0.1C1027.8-254.6,1027.7-254.7,1027.6-254.7z"/>
<path id="XMLID_62_" d="M1027.6-217.6c0.1,0,0.2,0,0.3,0.1C1027.8-217.6,1027.7-217.6,1027.6-217.6z"/>
<path id="XMLID_61_" d="M1022.5-263.1c-0.2,0.2-0.4,0.4-0.5,0.6C1022.2-262.7,1022.3-262.9,1022.5-263.1L1022.5-263.1z"/>
<path id="XMLID_51_" d="M1029.2-273.1c-0.2,0.3-0.4,0.5-0.5,0.6C1028.8-272.7,1029-272.9,1029.2-273.1L1029.2-273.1z"/>
<path id="XMLID_47_" class="st1" d="M695.8-124.3c0.4-0.3,0.6-0.5,0.7-0.6c0-0.1,0-0.1,0-0.2C696.3-125,696.1-124.8,695.8-124.3z"/>
<path id="XMLID_94_" class="st1" d="M802-112.3c-0.1,0.2-0.2,0.6-0.3,1c-0.1,0.5-0.1,1-0.1,1.5c0,1.4,0.1,2.7,0.3,4.1
	c0.5,3,1.3,6,2.4,8.9c2.9,7.8,7,15.1,12.1,21.7c11.3,14.7,27.5,25.8,45.5,27.9c0-16.2,0-32.3,0-48.5c0-1,2.8-7.2,3.9-7.2
	c10.5,0,21.1,0,31.6,0c7.1,0,14.1,0,21.2,0c2.5,0,5.3,0.1,7.8,0.5c15.2,2.5,19.9,19.7,13.1,32.3c-3.5,6.5-7.9,11-15.5,12.1
	c-5.9,0.8-12,0.7-18,0.6c1.4,2.2,3.2,3.8,5.2,5.4c6.3,4.9,13.6,5.2,21.3,5.2c51.1,0,102.2,0,153.3,0c-2.9-26-5.9-53-8.8-80
	c-17,0-34.1,0-51.1,0c-58.7,0-117.4,0-176.1,0c-5.4,0-10.7,0-16.1,0c-2.8,0-6.1,1.6-8.7,2.5C817.2-122.1,807.5-118.7,802-112.3z"/>
<path id="XMLID_21_" d="M804.3-81.9c11.2,21.9,32.4,40.4,57.8,41.4c1,0,3.8-5.3,3.8-6.3c0-16.3,0-33.2,0-49.2c18,0,36.9,0,55.4,0
	c9.8,0,16.8,9.1,17.5,18.3c0.2,2.3-0.1,4.8-0.5,7.1c-0.3,0.8-0.5,1.4-0.5,1.7c-0.5,0.5-1.2,1-1.8,1.5c-2.8,2.1-6.5,2.8-10,3.2
	c-7.5,0.8-15.3,0.2-22.8,0.2c-1,0-4,5.3-3.8,6.3c2.9,13.1,16,17.8,28,17.8s24,0,36.1,0c33.5,0,66.9,0,100.4,0c7.5,0,15.1,0,22.6,0
	c1,0,3.9-5.2,3.8-6.1c-3.2-29-6.4-57.9-9.5-86.9c0,0.2-0.4,0.3-0.9,1c0.3-0.9,0.6-1.9,0.9-1.9c-46.3,0-92.5,0-138.8,0
	c-28,0-56,0-84,0c-6.5,0-13,0-19.6,0c-1.4,0-2.6,0.7-4,1.1c-7.3,1.8-14.5,4.6-21.1,8.2c-7,3.8-14.5,11.5-15.4,19.9
	C797-97.1,800.9-88.5,804.3-81.9z M833.6-127c5.4,0,10.7,0,16.1,0c58.7,0,117.4,0,176.1,0c17,0,34.1,0,51.1,0c2.9,27,5.9,54,8.8,80
	c-51.1,0-102.2,0-153.3,0c-7.7,0-15-0.2-21.3-5.2c-2-1.5-3.7-3.3-5.2-5.6c6,0.1,12.1,0.4,18-0.4c7.6-1,12-5.4,15.5-11.9
	c6.8-12.6,2.1-30-13.1-32.5c-2.5-0.4-5.3-0.5-7.8-0.5c-7.1,0-14.1,0-21.2,0c-10.5,0-21.1,0-31.6,0c-1.1,0-3.9,6.2-3.9,7.2
	c0,16.2,0,32.3,0,48.5c-18-2-34.2-13.2-45.5-27.9c-5.1-6.6-9.2-13.9-12.1-21.7c-1.1-2.9-1.9-5.9-2.4-8.9c-0.2-1.3-0.3-2.7-0.3-4.1
	c0-0.5,0.1-1,0.1-1.5c0-0.4,0.2-0.8,0.3-1c5.6-6.3,15.2-9.8,22.9-12.2C827.5-125.4,830.8-127,833.6-127z"/>
<g>
	<path class="st1" d="M66.8-624c-58.7,0-117.4,0-176.1,0c-5.4,0-10.7,0-16.1,0c-2.8,0-6.1,1.6-8.8,2.3c-7.7,2.4-17.3,5.9-22.9,12.2
		c-0.1,0.2-0.3,0.6-0.3,1c0,0.5-0.1,1-0.1,1.5c0,1.4,0.1,2.8,0.3,4.1c0.5,3,1.3,6,2.4,8.9c2.9,7.8,7,15.1,12.1,21.7
		c11.3,14.7,27.5,25.9,45.5,27.9c0-16.2,0-32.3,0-48.5c0-1,2.8-7.2,3.9-7.2c10.5,0,21.1,0,31.6,0c7.1,0,14.1,0,21.2,0
		c2.5,0,5.3,0.1,7.8,0.5c15.2,2.5,19.9,19.9,13.1,32.5c-3.5,6.5-7.9,10.9-15.5,11.9c-5.9,0.8-12,0.5-18,0.4c1.5,2.3,3.2,4.1,5.2,5.6
		c6.3,5,13.6,5.2,21.3,5.2c51.1,0,102.2,0,153.3,0c-2.9-26-5.9-53-8.8-80C100.9-624,83.8-624,66.8-624z"/>
	<path d="M120.9-628.9c0.3-0.9,0.6-1.9,0.9-1.9c-46.3,0-92.5,0-138.8,0c-28,0-56,0-84,0c-6.5,0-13,0-19.6,0c-1.4,0-2.6,0.7-4,1.1
		c-7.3,1.8-14.5,4.6-21.1,8.2c-7,3.8-14.5,11.5-15.4,19.9c-0.9,7.5,3,16.1,6.4,22.7c11.2,21.9,32.4,40.4,57.8,41.4
		c1,0,3.8-5.3,3.8-6.3c0-16.3,0-33.2,0-49.2c18,0,36.9,0,55.4,0c9.8,0,16.8,9.1,17.5,18.3c0.2,2.3-0.1,4.8-0.5,7.1
		c-0.3,0.8-0.5,1.4-0.5,1.7c-0.5,0.5-1.2,1-1.8,1.5c-2.8,2.1-6.5,2.8-10,3.2c-7.5,0.8-15.3,0.2-22.8,0.2c-1,0-4,5.3-3.8,6.3
		c2.9,13.1,16,17.8,28,17.8s24,0,36.1,0c33.5,0,66.9,0,100.4,0c7.5,0,15.1,0,22.6,0c1,0,3.9-5.2,3.8-6.1c-3.2-29-6.4-57.9-9.5-86.9
		C121.8-629.7,121.4-629.6,120.9-628.9z M-26.6-544c-7.7,0-15-0.2-21.3-5.2c-2-1.5-3.7-3.3-5.2-5.6c6,0.1,12.1,0.4,18-0.4
		c7.6-1,12-5.4,15.5-11.9c6.8-12.6,2.1-30-13.1-32.5c-2.5-0.4-5.3-0.5-7.8-0.5c-7.1,0-14.1,0-21.2,0c-10.5,0-21.1,0-31.6,0
		c-1.1,0-3.9,6.2-3.9,7.2c0,16.2,0,32.3,0,48.5c-18-2-34.2-13.2-45.5-27.9c-5.1-6.6-9.2-13.9-12.1-21.7c-1.1-2.9-1.9-5.9-2.4-8.9
		c-0.2-1.3-0.3-2.7-0.3-4.1c0-0.5,0.1-1,0.1-1.5c0-0.4,0.2-0.8,0.3-1c5.6-6.3,15.2-9.8,22.9-12.2c2.7-0.7,6-2.3,8.8-2.3
		c5.4,0,10.7,0,16.1,0c58.7,0,117.4,0,176.1,0c17,0,34.1,0,51.1,0c2.9,27,5.9,54,8.8,80C75.6-544,24.5-544-26.6-544z"/>
</g>
<line id="XMLID_1_" class="st2" x1="718.9" y1="-87.5" x2="1085.9" y2="-87.5"/>
<g id="XMLID_16_">
	<g id="XMLID_3_">
		<path id="XMLID_70_" class="st1" d="M451.3-127.6c-2.3,0.1-4.8,0.2-7.2,0.6c0.4,1.7,1,3.4,1.9,5c1.1,2,0.9,1.8,3,1.9
			c5.9,0.4,12.3,3,14.7,8.9c3.4,8.1,1.5,17.9-2.8,25.3c-3,5.1-6.8,9.5-12.9,10.5c-7.1,1.1-15-0.1-21.9-1.3
			c-22.9-4.1-43.5-16.7-66.7-19.2c-5.3-0.6-11.3-1.6-16.4,0.5c-4.5,1.8-8.4,4.6-12,7.8c-3.6,3.1-7.1,6.5-10.1,10.1
			c0,0.6,0,1.1,0,1.7c0,2.6,0,5.2,0,7.8c0,2.7,2.6,4.3,4.6,5.7c7.4,5.1,15.8,8.9,24.2,12c5.3,2,9.2,3.5,14.6,3.5
			c21.2,0,42.4,0,63.6,0c48.5,0,97,0,145.6,0c3.5,0,7.3,0.1,9.9-2.6c0.1-0.2,0.2-0.5,0.3-0.8c0.4-1.1,0.7-2.3,0.9-3.5
			c0.4-2.2,0.8-4.4,0.9-6.7c0.9-11.4-0.3-22.9-2-34.2c-1.1-7.5-2.5-15-4.1-22.4c-7.3-0.4-14.6-0.9-21.8-1.4c-4.5-2.8-9-5.5-13.5-8.3
			c-17.2-0.6-34.5-1-51.7-1.2C478.6-128.2,464.9-128.4,451.3-127.6z"/>
		<path id="XMLID_4_" d="M579.2-117.1c1.6,7.4,3,14.9,4.1,22.4c1.7,11.2,2.9,22.8,2,34.2c-0.2,2.2-0.5,4.4-0.9,6.6
			c-0.2,1.2-0.5,2.3-0.9,3.5c-0.1,0.2-0.2,0.6-0.3,0.8c-2.5,2.7-6.4,2.6-9.9,2.6c-48.5,0-97,0-145.6,0c-21.2,0-42.4,0-63.6,0
			c-5.4,0-9.3-1.6-14.6-3.5c-8.4-3.1-16.8-6.8-24.1-11.9c-2-1.4-4.6-3-4.6-5.8c0-2.6,0-5.2,0-7.8c0-0.6,0-1.1,0-1.7
			c3-3.6,6.5-6.9,10.1-10.1c3.6-3.1,7.6-6,12-7.8c5.1-2.1,11.1-1.1,16.4-0.5c23.2,2.5,43.8,15.1,66.7,19.2c7,1.2,14.8,2.4,21.9,1.3
			c6.2-0.9,10-5.3,12.9-10.5c4.3-7.4,6.1-17.2,2.8-25.3c-2.4-5.9-8.8-8.5-14.7-8.9c-2-0.1-1.9,0.1-3-1.9c-0.9-1.6-1.5-3.3-1.9-5
			c2.4-0.4,4.9-0.4,7.2-0.6c13.6-0.9,27.3-0.6,40.9-0.5c17.2,0.2,34.5,0.7,51.7,1.2c-3.8-2.3-7.6-4.7-11.4-7
			c-19.2-0.6-38.5-0.9-57.8-0.8c-9.5,0.1-20.2-0.7-29.5,1.7c-2.8,0.7-5.3,4.8-5.6,7.5c-0.4,3.9,1.6,8.6,3.7,11.8
			c0.2,0.3,4,0.2,4.5,0.3c6.1,0.9,10.9,4.6,12.9,10.5c1.6,4.6,1,10.3-0.1,15c-0.7,2.9-3.9,4.5-6.6,5.4c-4.1,1.4-9.1,0.7-13.2,0.5
			c-11.3-0.6-22.3-3.5-32.9-7.2c-9.4-3.2-18.5-7.1-28-9.8c-9.2-2.7-20.7-5.5-30.3-3.8c-7.5,1.3-14.1,7.5-19.4,12.6
			c-2.4,2.3-4.7,4.8-6.9,7.3c-0.8,0.9-1.5,1.8-2.3,2.7c-0.7,0.8-0.3,0.6-0.3,0.6c0,1-3.8,4.1-3.8,6.2l0,0c0,1.2,0,2.4,0,3.7
			c0,2.6,0,5.2,0,7.8c0,2.9,1.6,3.7,3.8,5.4c7.6,5.9,17.1,9.4,26,12.7c5.9,2.2,9.4,2.9,15.4,2.9c24.5,0,48.9,0,73.4,0
			c44.7,0,89.4,0,134.1,0c10.8,2,16.4-9.8,18.4-18.6c3.2-13.4,1-28.3-1-41.7c-0.8-5.2-1.7-10.4-2.7-15.5
			C582.7-117,581-117,579.2-117.1z M441.1-126.3c0.2-0.1,0.4-0.1,0.7-0.2c0.2-0.1,0.3-0.1,0.5-0.2c-0.2,0.2-0.3,0.4-0.5,0.5
			C440.4-125,439.1-125.6,441.1-126.3z"/>
	</g>
	<line id="XMLID_5_" class="st2" x1="589.9" y1="-87.5" x2="222.9" y2="-87.5"/>
</g>
<g id="XMLID_15_">
	<g id="XMLID_6_">
		<path id="XMLID_46_" class="st1" d="M665.4-120.2c8,0,16.3,0,24.1-1.7c1.8-0.4,3.8-0.9,5.5-1.9c0-0.1,0-0.1,0-0.2
			c-0.4-2-1-1.8-3-2c-2.1-0.2-4.3-0.5-6.4-1c-5.3-1.1-10.6-2.7-15.7-4.6c-13.6-4.9-26.6-11.2-39.4-17.7c-34-17.4-66.9-37-100-56
			c-34.9-20-70-40.1-106.6-57c-25.5-11.8-53.8-24.5-82.4-26c16.9,39.8,56.2,62.8,91.6,84.6c42.4,26.2,84.9,52.3,127.3,78.5
			C595.3-122.9,630.4-120,665.4-120.2z"/>
		<path id="XMLID_7_" d="M686.8-132.4c-12.1-2.7-23.7-7.7-34.9-12.9c-15.1-6.9-29.8-14.8-44.4-22.8c-35.1-19.3-69.5-39.9-104.4-59.5
			c-29.4-16.5-59.3-32.6-90.3-46c-22.9-9.9-48.1-19.7-73.4-19.9c-0.7,0-3.2,4.4-2.9,5.1c18,49.9,70.9,75.9,113.4,102
			c27.6,17,55.2,34,82.8,51c3.8,2.3,7.6,4.7,11.4,7c4.5,2.8,9,5.5,13.5,8.3c7.3,0.5,14.6,0.9,21.8,1.4c1.7,0.1,3.5,0.2,5.2,0.3
			c17.4,1,34.7,2,52.1,2.7c14.5,0.6,29.2,1.2,43.6-0.2c6.3-0.6,12.6-1.5,16-7.4c1.2-2.1,2.2-4,1.6-6.5
			C697.2-131.8,689.1-131.8,686.8-132.4z M560.4-125.1c-42.4-26.2-84.9-52.3-127.3-78.5c-35.4-21.8-74.7-44.8-91.6-84.6
			c28.6,1.6,56.9,14.2,82.4,26c36.6,16.9,71.7,36.9,106.6,57c33.1,19,66,38.6,100,56c12.8,6.6,25.9,12.8,39.4,17.7
			c5.1,1.9,10.3,3.5,15.7,4.6c2.1,0.4,4.2,0.8,6.4,1c2,0.2,2.6,0,3,2c0,0.1,0,0.1,0,0.2c-1.7,1-3.6,1.5-5.5,1.9
			c-7.8,1.7-16.1,1.7-24.1,1.7C630.4-120,595.3-122.9,560.4-125.1z M696.4-124.9c-0.1,0.1-0.3,0.3-0.7,0.6c0.3-0.5,0.6-0.7,0.7-0.8
			C696.5-125.1,696.6-125.1,696.4-124.9z"/>
	</g>
	<line id="XMLID_8_" class="st2" x1="296.5" y1="-315" x2="624.8" y2="-116.1"/>
</g>
<g id="XMLID_14_">
	<g id="XMLID_9_">
		<path id="XMLID_10_" class="st1" d="M490.8-379.6c14.1,13.7,28.5,27.1,43.3,40.1c4.8,4.3,9.7,8.5,14.6,12.7c1.3,1.1,6,3.9,6.1,5.6
			c0.1,0.9,0.1,1.9,0.2,2.8c0.4,4.4,1.1,8.7,1.8,13.1c6.1,34.4,16.3,68.3,26.3,101.7c6.2,21,12.6,41.9,19.4,62.7
			c4.4,2.8,9.8,4.4,15.1,5.4c-1.5-5.2-3.1-10.3-4.6-15.5c-8.7-29.2-17.4-58.4-26.1-87.7c-3.6-12.1-7.2-24.3-10.8-36.4
			c-0.9-3-1.8-6-2.7-9c-0.8-2.8,0.3-5.9,0.9-8.7c1.3-5.9,2.8-15.1,8.4-18.5c-0.1,0-0.1,0-0.2,0c0.1,0,0.2-0.1,0.4-0.1
			c0.9-0.5,1.8-0.9,2.9-1c8.2-1.5,18,2,25.7,4.6c1.8,0.6,3.3,2.3,4.8,3.5c4.4,3.5,8.8,6.9,13.3,10.3c13.1,10.2,26.2,20.3,39.5,30.3
			c10.3,7.8,20.5,16,31.5,22.8c0.7,0.4,1.3,0.8,2,1.2c0.6,0.3,1.3,0.6,1.9,0.8c1,0.3,1.1,0.6,1.1,0.8c0-0.1,0.1-0.2,0.3-0.3
			c2-2.2,2.4-6.5,0-8.7c-1.5-1.4-3.2-2.7-4.7-4c-8.9-7.4-17.8-14.8-26.7-22.2c-23.9-19.8-47.7-39.5-71.6-59.2
			c-5.3-4.4-10.6-8.8-15.9-13.1c-1.3-1.1-1.6-7.4-1.9-9c-1.8-8.6-3.6-17.1-5.5-25.7c-2.3-10.8-4.7-21.5-7.2-32.2
			c-2.4-10.2-4-21.4-8.2-31.1c-6.3-14.7-19.2-26.8-33.9-33.5c6.7,33.9,13.4,67.7,20.2,101.6c0.1,0.4-5.3,1.7-5.9,1.2
			c-24.9-20.4-49.9-40.7-75.4-60.4C467.3-413.7,475.8-394.2,490.8-379.6z M580.9-341.1c2.1,7.9-2.4,13.2-9.7,15.1
			c-6.5,1.7-14.2-0.1-16.2-7.5C550.8-349.3,575.5-355.7,580.9-341.1z"/>
		<path id="XMLID_11_" d="M463.6-438.7c-2.9,18.6,2.3,37.7,13.8,52.6c1.6,2.1,3.5,3.8,5.3,5.6c6.9,6.7,13.9,13.4,20.9,20
			c10.9,10.2,22,20.1,33.2,29.9c3,2.6,6,5.1,9,7.6c2.1,1.8,3,2.1,3.2,4.7c0.2,2.8,0.6,5.5,0.9,8.3c2.2,15.2,6,30.3,9.8,45.1
			c10.7,42.1,23.4,83.9,36.9,125.2c0,0.1,0.1,0.1,0.2,0.1c6.3,3.9,14.3,5.5,21.6,6.5c0.6,0.1,5.9-0.8,5.8-1.3
			c-14-47.1-28-94.2-42-141.4c-1.1-3.5-2.1-7.1-3.2-10.6c-0.6-2,0.8-5.6,1.2-7.6c1.1-5.7,2.7-12.3,6.4-17c4.2,0.4,8.4,1.5,12.5,2.6
			c2,0.5,5.8,1.1,7.3,2.3c2.3,1.8,4.6,3.6,6.9,5.4c11.6,9.1,23.2,18.1,34.9,27c12.5,9.6,25,19.2,37.8,28.3c3.4,2.4,6.8,5,10.5,7
			c4.3,2.3,12.9,2.2,16-2.4c4.2-6.3-7.6-13.1-11.2-16.1c-10.4-8.6-20.8-17.3-31.2-25.9c-22.8-18.9-45.6-37.8-68.5-56.6
			c-2.6-2.1-8.6-5.2-9.3-8.8c-3-14.5-6.1-29-9.3-43.4c-2.2-9.9-4.4-19.8-6.8-29.7c-2.5-10.5-4.5-21.3-10.1-30.8
			c-7.8-13.3-22.4-24-37-28.9c-0.6-0.2-5.8,0.8-5.7,1.3c6.5,32.8,13,65.5,19.5,98.3c-24.2-19.8-48.6-39.4-73.3-58.5
			C468.9-440.4,463.7-439.4,463.6-438.7z M550.1-375.5c-6.7-33.9-13.4-67.7-20.2-101.6c14.7,6.7,27.6,18.8,33.9,33.5
			c4.2,9.6,5.8,20.9,8.2,31.1c2.5,10.7,4.9,21.5,7.2,32.2c1.9,8.5,3.7,17.1,5.5,25.7c0.3,1.6,0.6,7.9,1.9,9
			c5.3,4.4,10.6,8.7,15.9,13.1c23.9,19.7,47.8,39.5,71.6,59.2c8.9,7.4,17.8,14.8,26.7,22.2c1.6,1.3,3.2,2.6,4.7,4
			c2.4,2.2,2,6.6,0,8.7c-0.1,0.1-0.2,0.2-0.3,0.3c0-0.2-0.1-0.5-1.1-0.8c-0.7-0.2-1.3-0.5-1.9-0.8c-0.7-0.4-1.4-0.8-2-1.2
			c-11-6.8-21.2-15-31.5-22.8c-13.2-10-26.4-20.1-39.5-30.3c-4.4-3.4-8.8-6.9-13.3-10.3c-1.5-1.2-3-2.8-4.8-3.5
			c-7.7-2.6-17.5-6.1-25.7-4.6c-1.1,0.2-2,0.6-2.9,1c-0.1,0-0.2,0.1-0.4,0.1c0.1,0,0.1,0,0.2,0c-5.6,3.4-7.1,12.6-8.4,18.5
			c-0.6,2.8-1.7,5.9-0.9,8.7c0.9,3,1.8,6,2.7,9c3.6,12.1,7.2,24.3,10.8,36.4c8.7,29.2,17.4,58.4,26.1,87.7
			c1.5,5.2,3.1,10.3,4.6,15.5c-5.3-1-10.6-2.6-15.1-5.4c-6.8-20.8-13.2-41.7-19.4-62.7c-9.9-33.5-20.1-67.3-26.3-101.7
			c-0.8-4.3-1.4-8.7-1.8-13.1c-0.1-0.9-0.1-1.9-0.2-2.8c-0.1-1.7-4.8-4.5-6.1-5.6c-4.9-4.2-9.8-8.4-14.6-12.7
			c-14.7-13-29.1-26.4-43.3-40.1c-15-14.6-23.5-34.1-21.9-55c25.4,19.7,50.5,40,75.4,60.4C544.8-373.8,550.2-375.1,550.1-375.5z"/>
		<path id="XMLID_38_" class="st1" d="M560.8-334.8c1.1,3,6.6,10.7,10.5,7.5s4.9-7.8,3.7-12.5c-1.1-3-6.6-10.7-10.5-7.5
			C560.9-344.4,559.2-339.3,560.8-334.8z"/>
		<path id="XMLID_12_" d="M555-333.6c2,7.5,9.7,9.2,16.2,7.5c7.3-1.9,11.8-7.2,9.7-15.1C575.5-355.7,550.8-349.3,555-333.6z
			 M564.5-347.4c3.9-3.2,9.4,4.5,10.5,7.5c1.2,4.7,0.2,9.4-3.7,12.5c-3.9,3.2-9.4-4.5-10.5-7.5C559.2-339.3,560.9-344.4,564.5-347.4
			z"/>
	</g>
	<line id="XMLID_13_" class="st2" x1="489.1" y1="-469.2" x2="670.9" y2="-170"/>
</g>
<g id="XMLID_2_">
	<path id="XMLID_79_" class="st0" d="M1022.1-456.6c-0.1,0.2-0.2,0.3-0.3,0.5C1021.5-455.2,1022.1-455.4,1022.1-456.6z"/>
	<path id="XMLID_77_" class="st0" d="M1022.1-456.6c0.6-1,1.2-1.9,2-2.7c-1,1.1-1.6,1.9-2,2.5
		C1022.1-456.8,1022.1-456.7,1022.1-456.6z"/>
	<path id="XMLID_74_" class="st0" d="M1026-439.9C1025.4-439,1026.4-439.5,1026-439.9L1026-439.9z"/>
	<path id="XMLID_67_" class="st1" d="M1021.5-453.4C1020-451.6,1020.7-452.2,1021.5-453.4L1021.5-453.4z"/>
	<path id="XMLID_64_" d="M1022.1-456.8c-0.2,0.3-0.3,0.5-0.3,0.7c0.1-0.2,0.2-0.3,0.3-0.5C1022.1-456.7,1022.1-456.8,1022.1-456.8z"
		/>
	<g id="XMLID_17_">
		<path id="XMLID_60_" class="st0" d="M1047.5-462.5C1049.3-463,1048.4-464.8,1047.5-462.5L1047.5-462.5z"/>
		<path id="XMLID_59_" class="st1" d="M1022.1-163.6v0.2c-0.1,0.8-0.3,1.5-0.5,2.3c0.6,1,1.2,2,1.8,3c5.5,9.2,11,18.5,16.5,27.7
			c1.9,3.2,4,5.6,4.2,9.5c0.6,11.5-1.3,22-6.3,32c-2.3,4.5-5.1,7.5-8.2,9.3c7.5,11.6,18.4,17.8,31.2,16.4c0-5.2,0-10.3,0-15.5
			c0.1-63.4,0.1-126.9,0.2-190.3c0.1-65.6,0.1-131.2,0.1-196.8c0-7.9,0-15.8,0-23.7c0-5,0.7-10.5-5.5-5c-2.8,2.5-3,5.2-3.3,9.4
			c-0.3,3.5-0.3,7.1-0.4,10.6c-0.2,5.2-1.2,9.3-3.4,13.8c-1.5,3.1-3.9,8.2-7.6,7.1c-2.4-0.7-4-2.8-5-5.4
			c-3.4-9.2-1.6-33.2-12.1-36.1c-0.8,5.6-1.6,11.3-2.3,16.9c-0.2,1.8-2.8,8.4-4.4,8.8c-1.2,0.3-2.5,0.7-3.6,1.3
			c0.1,0.8,0.3,1.5,0.6,2.2c0.9,1.2,1.7,1.3,3,1.4c-0.5,0.9-0.9,1.8-1.4,2.7c0.8-1.5,1.5-2.7,1.4-2.8c1.6,4.6-0.8,10.4-3.3,14.3
			c0,0.2,0,0.3,0,0.5c0,1.4,0.2,3,1,4.2c1.9,2.9,4.2,2.5,6.9,3.3l0.2,0.2c-0.5,4.8-2.9,10.7-5.9,14.4l0,0c0,1.4-0.1,3.1,0.7,4.3
			c1.7,2.3,3.4,1.9,5.6,2.6v0.2c-0.8,5.2-3.7,10.2-6.4,14.3c0,1.4,0,3.1,0.8,4.3c1.7,2.3,3.4,1.9,5.6,2.6v0.2
			c-0.9,5.2-3.7,10.2-6.4,14.4c0,1.4,0,3.1,0.8,4.2c1.7,2.3,3.4,1.8,5.6,2.6v0.2c-0.9,5.2-3.7,10.2-6.4,14.4c0,1.4,0,3.1,0.8,4.2
			c1.7,2.3,3.4,1.8,5.6,2.6v0.2c-0.9,5.2-3.7,10.2-6.4,14.4c0,1.4,0,3.1,0.8,4.2c1.7,2.3,3.4,1.8,5.6,2.6v0.2
			c-0.9,5.2-3.7,10.2-6.4,14.3c0,1.4,0,3.1,0.8,4.2c1.7,2.3,3.4,1.8,5.6,2.6v0.2c-0.9,5.2-3.7,10.2-6.4,14.3c0,1.4,0,3.1,0.8,4.2
			c1.7,2.3,3.4,1.8,5.6,2.6v0.2c-0.9,5.2-3.7,10.2-6.4,14.3c0,1.4,0,3.1,0.8,4.2c1.7,2.3,3.4,1.8,5.6,2.6v0.2
			c-0.9,5.2-3.7,10.2-6.4,14.3c0,1.4,0,3.1,0.8,4.2c1.7,2.3,3.4,1.8,5.6,2.6v0.2c-0.9,5.2-3.7,10.2-6.4,14.3c0,1.4,0,3.1,0.8,4.2
			c1.7,2.3,3.4,1.8,5.6,2.6v0.2c-0.9,5.2-3.7,10.2-6.4,14.3c0,1.4,0,3.1,0.8,4.2c1.7,2.3,3.4,1.8,5.6,2.6v0.2
			c-0.9,5.2-3.7,10.2-6.4,14.3c0,1.4,0,3.1,0.8,4.2c1.7,2.3,3.4,1.8,5.6,2.6v0.2c-0.9,5.1-3.6,10-6.3,14.1c1.3,2.2,2.6,4.4,3.9,6.5
			C1020.5-164,1021.2-163.9,1022.1-163.6z"/>
		<path id="XMLID_20_" d="M1064.6-505.5c-6.4-1.2-12.3,12.3-14.2,17.5c-1.8,4.9-2.5,9.9-2.8,15.3c-0.1,2.8-0.1,5.6-0.2,8.5
			c0,0.6-0.1,1.2-0.1,1.9c-0.2,0-0.4,0.1-0.7,0.1c-5,0.1-6.9-6.6-7.8-11.3c-2-9.7-1.1-31.9-13.7-30.6c-1.5,0.2-4.2,7.2-4.4,8.8
			c-0.9,6.2-1.7,12.3-2.6,18.5c-2.4,1.3-4.3,3.5-5.8,6.4c-2,3.8-6.7,14.9,0.5,15.2c0,0,0,0,0.1,0c0.1,0.4,0.2,0.9,0.4,1.3
			c0.1,0.5,0.2,1,0.2,1.3c0.3-0.7,0.9-1.7,2-2.9c-0.8,0.9-1.4,2-1.9,3.1c0,1.5-0.6,1.6-0.3,0.6c-0.2,0.4-0.4,0.7-0.5,1.1
			c-1.6,3.1-3.5,7-3.1,10.8c0.6,5.4,3.6,5.5,7.3,6.7c0.2,0,0.3,0.1,0.3,0.2c-0.1,0.1-0.2,0.3-0.3,0.4c-1.4,2.1-2.5,4.5-3.6,6.8
			c-1.4,3.2-2.4,6.4-1.8,10c0.4,2.1,2,3.2,3.6,3.9c0.8,0.3,1.6,0.1,2.3,0.3c-3.6,4.6-9,15.5-3.9,20.3c0.3,0.3,2.7,1.2,3.8,1.3
			c-0.2,0.3-0.4,0.6-0.6,1c-2.2,3.6-4.2,7.7-5.1,12.1c-0.8,4.1,1,7.2,4.3,8c-0.1-0.1,0.9,0,1.6,0.1c-1.1,1.5-2,3.3-2.9,5
			c-1.7,3.4-3.3,7.1-3.1,11.1c0.1,1.8,0.9,3.1,2,4.1c0.9,0.8,2.9,0.6,3.8,1.1c-0.4,0.7-0.8,1.6-1.1,2.1c-1.1,2-2.1,4-3,6.2
			c-1.4,3.4-2.5,7.3-0.8,10.8c1,2.1,3.3,2.4,5.1,2.5c-2.3,3.5-4.4,7.5-5.5,11.7c-1,3.5-0.6,7.2,2.3,9c0.8,0.5,2.3,0.2,3,0.5
			c-0.5,0.9-1.2,2.3-1.6,2.9c-1.9,3.5-3.8,7.3-4.3,11.4c-0.7,5.4,2.7,6.1,6,7.2c0.2-0.3,0.5-0.7,0.9-1.1c-0.3,0.4-0.6,0.7-0.9,1.1
			c0.1,0,0.2,0.1,0.3,0.1c1.1,0.4-2,2.6-0.6,0.3c0,0,0,0.1-0.1,0.1c-1.2,1.8-2.2,3.8-3.1,5.7c-1.6,3.5-3,7-2.3,11
			c0.4,2.1,1.9,3.2,3.5,3.9c0.8,0.3,1.5,0.1,2.3,0.3c0.2-0.3,0.5-0.7,0.9-1.2c-0.3,0.4-0.6,0.8-0.9,1.2c0.1,0,0.2,0,0.3,0.1
			c1.1,0.4-1.8,2.4-0.7,0.6c-1.9,2.8-3.4,6.2-4.6,9.4c-1.1,3.2-1.6,6.8,0.4,9.6c1.2,1.7,3,1.3,4.6,1.7l0,0l0,0c0.1,0,0.2,0,0.3,0.1
			c1.1,0.4-1.7,2.4-0.8,0.7c-0.1,0.1-0.2,0.3-0.3,0.4c-3.1,5.1-9.5,17.9-0.8,20.1c-0.1-0.1,0.9,0,1.5,0.1c-0.9,1.2-1.6,2.5-2.3,3.9
			c-1.9,3.7-4,7.8-3.7,12.3c0.1,1.8,0.9,3.1,2,4.1c0.3,0.3,2.7,1.2,3.8,1.3c-0.2,0.3-0.4,0.6-0.6,1c-1.3,2.2-2.5,4.6-3.5,7
			c-1.3,3.1-2.3,6.5-1.2,10c0.6,2,2.4,2.8,4,3.1c-0.4-0.1,0.8,0,1.5,0.1c-0.7,1-1.5,2.3-2.3,3.8c0.3,0.5,0.6,1.1,1,1.6
			c2.7-4.1,5.4-9,6.3-14.1v-0.2c-2.2-0.8-3.9-0.3-5.6-2.6c-0.8-1.1-0.9-2.8-0.8-4.2c2.7-4.2,5.6-9.2,6.4-14.3v-0.2
			c-2.2-0.8-3.9-0.3-5.6-2.6c-0.8-1.1-0.9-2.8-0.8-4.2c2.7-4.2,5.6-9.2,6.4-14.3v-0.2c-2.2-0.8-3.9-0.3-5.6-2.6
			c-0.8-1.1-0.9-2.8-0.8-4.2c2.7-4.2,5.6-9.2,6.4-14.3v-0.2c-2.2-0.8-3.9-0.3-5.6-2.6c-0.8-1.1-0.9-2.8-0.8-4.2
			c2.7-4.2,5.6-9.2,6.4-14.3v-0.2c-2.2-0.8-3.9-0.3-5.6-2.6c-0.8-1.1-0.9-2.8-0.8-4.2c2.7-4.2,5.6-9.2,6.4-14.3v-0.2
			c-2.2-0.8-3.9-0.3-5.6-2.6c-0.8-1.1-0.9-2.8-0.8-4.2c2.7-4.1,5.6-9.2,6.4-14.3v-0.2c-2.2-0.8-3.9-0.3-5.6-2.6
			c-0.8-1.1-0.9-2.8-0.8-4.2c2.7-4.2,5.6-9.2,6.4-14.3v-0.2c-2.2-0.8-3.9-0.3-5.6-2.6c-0.8-1.1-0.9-2.8-0.8-4.2
			c2.7-4.2,5.6-9.2,6.4-14.4v-0.2c-2.2-0.8-3.9-0.3-5.6-2.6c-0.8-1.1-0.9-2.8-0.8-4.2c2.7-4.2,5.6-9.2,6.4-14.4v-0.2
			c-2.2-0.8-3.9-0.3-5.6-2.6c-0.8-1.1-0.9-2.8-0.8-4.2c2.7-4.2,5.6-9.2,6.4-14.4v-0.2c-2.2-0.7-4-0.3-5.6-2.6
			c-0.8-1.1-0.9-2.8-0.8-4.3c2.7-4.1,5.6-9.2,6.4-14.3v-0.2c-2.3-0.8-3.9-0.3-5.5-2.6c-0.8-1.2-0.7-2.9-0.7-4.3l0,0
			c3-3.7,5.4-9.6,5.9-14.4l-0.1-0.2c-2.7-0.8-5-0.5-6.9-3.3c-0.8-1.2-1-2.8-1-4.2c0-0.2,0-0.3,0-0.5c2.6-3.9,4.9-9.7,3.3-14.3
			c0.1,0.2-0.6,1.4-1.4,2.8c0.5-0.9,0.9-1.8,1.4-2.7c-1.3-0.1-2.1-0.2-3-1.4c-0.3-0.7-0.6-1.4-0.6-2.2c1.2-0.6,2.4-1.1,3.6-1.3
			c1.6-0.4,4.2-7,4.4-8.8c0.8-5.6,1.6-11.3,2.3-16.9c10.5,2.9,8.7,26.9,12.1,36.1c1,2.6,2.6,4.7,5,5.4c3.7,1.1,6-4,7.6-7.1
			c2.2-4.5,3.2-8.6,3.4-13.8c0.1-3.5,0.1-7.1,0.4-10.6c0.3-4.2,0.5-6.9,3.3-9.4c6.2-5.5,5.5,0,5.5,5c0,7.9,0,15.8,0,23.7
			c0,65.6-0.1,131.2-0.1,196.8c0,63.4-0.1,126.9-0.2,190.3c0,5.2,0,10.3,0,15.5c-12.9,1.4-23.7-4.8-31.2-16.4
			c-2.5,1.5-5.3,2.2-8.1,2.3c7.9,17.2,22.2,26.4,39.3,22.4c0.9-0.2,1.8-2.5,2.3-3.7c0.8-1.5,2.1-3.6,2.1-5.1
			c0-41.4,0.1-82.8,0.1-124.2c0.1-73.8,0.1-147.6,0.2-221.4c0-25.4,0-50.9,0-76.3c0-5.7,0-11.4,0-17.2
			C1065.5-503.8,1065.8-505.2,1064.6-505.5z M1047.5-462.5C1048.4-464.8,1049.3-463,1047.5-462.5L1047.5-462.5z M1012.7-448.7
			C1011.9-447.3,1011.2-446.7,1012.7-448.7L1012.7-448.7z M1017-433.1C1017.4-432.7,1016.5-432.1,1017-433.1L1017-433.1z
			 M1017.8-411.4c0,0.1-0.1,0.3-0.3,0.6C1017.6-411,1017.7-411.2,1017.8-411.4z M1017.7-325.8c0,0.2-0.1,0.4-0.2,0.7
			C1017.6-325.3,1017.7-325.6,1017.7-325.8z M1017.3-240.4c0.2-0.3,0.5-0.7,0.9-1.1C1017.9-241.1,1017.6-240.8,1017.3-240.4z"/>
	</g>
	<line id="XMLID_23_" class="st2" x1="1042.4" y1="-542" x2="1042.4" y2="-59"/>
</g>
<g id="XMLID_24_">
	<g id="XMLID_25_">
		<path id="XMLID_88_" class="st1" d="M1221.4-446.1c-2.3,2.6-4.5,5.2-6.7,7.9c-4.7,5.7-9.2,11.6-13.5,17.5
			c-7.1,9.7-13.9,19.6-20.4,29.7c-7.4,11.5-13.9,23.5-20.6,35.4c-14.2,25.2-28.3,50.4-42.5,75.6c-21.6,38.4-43.1,76.7-64.7,115.1
			c7,12.4,18.7,24.8,33.3,25.4c9.3-16.2,18.6-32.4,27.9-48.6c28-48.8,56-97.7,84-146.5c8.5-14.8,15.4-30.4,20.8-46.6
			c6.2-18.5,12.5-40.3,6.2-59.6C1224.7-442,1223.3-448.2,1221.4-446.1z"/>
		<path id="XMLID_26_" d="M1222.9-456.3c-34.4,39-58.2,84.2-83.5,129.2c-27.9,49.7-55.9,99.4-83.8,149.1c-1.4,2.5-2.8,5-4.2,7.6
			c-1.5,2.7-2.5,7.4-1.2,10.2c6.6,13.8,19.4,29.2,35.7,29.9c0.1,0,0.1-0.1,0.2-0.3c23.4-40.8,46.8-81.5,70.2-122.3
			c13.1-22.8,26.1-45.5,39.2-68.3c7.2-12.6,13.5-25.2,18.9-38.7c6.1-15.6,11-31.8,13.2-48.3c2.1-15.6,2.7-33.2-4.5-47.7
			L1222.9-456.3z M1225.1-440.8c6.4,19.3,0,41.1-6.2,59.6c-5.4,16.2-12.3,31.8-20.8,46.6c-28,48.8-56,97.7-84,146.5
			c-9.3,16.2-18.6,32.4-27.9,48.6c-14.6-0.6-26.3-13-33.3-25.4c21.6-38.4,43.1-76.7,64.7-115.1c14.2-25.2,28.3-50.4,42.5-75.6
			c6.7-11.9,13.3-23.9,20.6-35.4c6.5-10.1,13.3-20,20.4-29.7c4.4-6,8.9-11.8,13.5-17.5c2.2-2.7,4.4-5.3,6.7-7.9
			C1223.3-448.2,1224.7-442,1225.1-440.8z"/>
	</g>
	<line id="XMLID_27_" class="st2" x1="1266.9" y1="-504" x2="1059.4" y2="-134.7"/>
</g>
<g id="XMLID_28_">
	<g id="XMLID_29_">
		<path id="XMLID_91_" class="st1" d="M1380.5-324.4c-3.2-0.8-6.4-1.5-9.7-1.9c-12.8-1.6-26.5-0.9-38.5,4.1
			c-6.8,2.8-12.9,7.1-19,11.1c-49,31.4-97.7,63.2-146.5,94.8c-33.7,21.9-67.4,43.7-101.1,65.6c4.6,10.2,10.6,20.1,17.3,29
			c12.1,16.1,29.1,31.9,50.7,31.1c34.1-23.3,68.2-46.6,102.3-69.9c25.4-17.3,50.8-34.7,76.1-52c8.4-5.7,16.8-11.5,25.2-17.2
			c3-2.1,6.1-4.7,9.3-6.4c5.3-2.7,10-7.3,13.8-11.7c12.4-14,19.1-31.9,23.4-49.8c1.7-7,3-14,4-21.1
			C1388.5-323.2,1384-323.5,1380.5-324.4z"/>
		<path id="XMLID_30_" d="M1392.9-329.8c-20.7-7.2-45.7-7.6-64.8,4.3c-5.3,3.3-10.6,6.7-15.8,10.1c-22.1,14.2-44.2,28.5-66.3,42.8
			c-52.3,33.9-104.5,67.8-156.7,101.7c-8.5,5.5-17,11-25.5,16.5c-1.2,0.8-4.9,6.4-4.3,7.7c4.8,11.6,11.5,22.7,18.9,32.8
			c12,16.2,29.3,32,50.8,31.1c0.4,0,0.7-0.3,1-0.7c36.9-25.2,73.8-50.4,110.6-75.6c24.6-16.8,49.1-33.6,73.7-50.4
			c9.5-6.5,18.9-13.7,28.9-19.6c9.9-5.9,17.6-15.9,23.7-25.4C1381.7-277.2,1389.4-303.1,1392.9-329.8L1392.9-329.8z M1387.9-318.6
			c-1,7.1-2.3,14.1-4,21.1c-4.3,18-11,35.8-23.4,49.8c-3.9,4.4-8.6,9-13.8,11.7c-3.3,1.7-6.3,4.3-9.3,6.4
			c-8.4,5.7-16.8,11.5-25.2,17.2c-25.4,17.3-50.8,34.7-76.1,52c-34.1,23.3-68.2,46.6-102.3,69.9c-21.6,0.8-38.5-15-50.7-31.1
			c-6.7-8.9-12.7-18.7-17.3-29c33.7-21.9,67.4-43.8,101.1-65.6c48.8-31.7,97.6-63.4,146.5-94.8c6.2-4,12.3-8.3,19-11.1
			c12-5,25.7-5.7,38.5-4.1c3.3,0.4,6.5,1.1,9.7,1.9C1384-323.5,1388.5-323.2,1387.9-318.6z"/>
	</g>
	<line id="XMLID_31_" class="st2" x1="1410.9" y1="-327" x2="1078.4" y2="-113.8"/>
</g>
<g id="XMLID_32_">
	<g id="XMLID_33_">
		<path id="XMLID_50_" class="st1" d="M1017.3-143.9c0.1-0.3,0.3-0.6,0.4-1c0.4-1.1,0.7-2.1,1-3.2c0.5-2,0.8-4,1-6
			c0.3-3,0.4-6.1,0.2-9.1c-0.2-2.6-0.8-3.3-2.4-5.5c-3.5-4.9-6.9-9.9-10.4-14.8c-33.8-48-67.5-96.1-101.3-144.1
			c-7.1-10.2-14-20.5-22-30c-11.6-13.8-24.4-26.8-38.5-38c-14.3-11.4-30.7-22-48.8-25.8c3.8,9.5,7.7,18.9,11.7,28.3
			c0.6,1.3,5.4,1.2,6.7,1.4c3.1,0.5,6.2,0.9,9.3,1.4c0,0.2,0,0.4-0.1,0.5c-1,2.8-1.9,5.6-2.9,8.3c-0.6,1.8-1.2,3.6-1.9,5.4
			c-0.5,1.3-0.5,0.5,0.3,0.7c5.7,1,11.5,1.9,17.2,2.9c0,0.2,0,0.4-0.1,0.5c-1,2.8-1.9,5.6-2.9,8.3c-0.6,1.8-1.2,3.6-1.9,5.4
			c-0.5,1.3-0.5,0.5,0.3,0.7c5.7,1,11.5,1.9,17.2,2.9c0,0.2,0,0.4-0.1,0.5c-1,2.8-1.9,5.6-2.9,8.3c-0.6,1.8-1.2,3.6-1.9,5.4
			c-0.5,1.3-0.5,0.5,0.3,0.7c5.7,1,11.5,1.9,17.2,2.9c0,0.2,0,0.4-0.1,0.5c-1,2.8-1.9,5.6-2.9,8.3c-0.6,1.8-1.2,3.6-1.9,5.4
			c-0.5,1.3-0.5,0.5,0.3,0.7c5.7,1,11.5,1.9,17.2,2.9c0,0.2,0,0.4-0.1,0.5c-1,2.8-1.9,5.6-2.9,8.3c-0.6,1.8-1.2,3.6-1.9,5.4
			c-0.5,1.3-0.5,0.5,0.3,0.7c5.7,1,11.5,1.9,17.2,2.9c0,0.2,0,0.4-0.1,0.5c-1,2.8-1.9,5.6-2.9,8.3c-0.6,1.8-1.2,3.6-1.9,5.4
			c-0.5,1.3-0.5,0.5,0.3,0.7c5.7,1,11.5,1.9,17.2,2.9c0,0.2,0,0.4-0.1,0.5c-1,2.8-1.9,5.6-2.9,8.3c-0.6,1.8-1.2,3.6-1.9,5.4
			c-0.5,1.3-0.5,0.5,0.3,0.7c5.7,1,11.5,1.9,17.2,2.9c0,0.2,0,0.4-0.1,0.5c-1,2.8-1.9,5.6-2.9,8.3c-0.6,1.8-1.2,3.6-1.9,5.4
			c-0.5,1.3-0.5,0.5,0.3,0.7c5.7,1,11.5,1.9,17.2,2.9c0,0.2,0,0.4-0.1,0.5c-1,2.8-1.9,5.6-2.9,8.3c-0.6,1.8-1.2,3.6-1.9,5.4
			c-0.5,1.3-0.5,0.5,0.3,0.7c5.7,1,11.5,1.9,17.2,2.9c0,0.2,0,0.4-0.1,0.5c-1,2.8-1.9,5.6-2.9,8.3c-0.6,1.8-1.2,3.6-1.9,5.4
			c-0.5,1.3-0.5,0.5,0.3,0.7c5.7,1,11.5,1.9,17.2,2.9c0,0.2,0,0.4-0.1,0.5c-1,2.8-1.9,5.6-2.9,8.3c-0.6,1.8-1.2,3.6-1.9,5.4
			c-0.5,1.3-0.5,0.5,0.3,0.7c5.7,1,11.5,1.9,17.2,2.9c0,0.2,0,0.4-0.1,0.5c-1,2.8-1.9,5.6-2.9,8.3c-0.6,1.8-1.2,3.6-1.9,5.4
			c-0.5,1.3-0.5,0.5,0.3,0.7c5.7,1,11.5,1.9,17.2,2.9c0,0.2,0,0.4-0.1,0.5c-1,2.8-1.9,5.6-2.9,8.3c-0.6,1.8-1.2,3.6-1.9,5.4
			c-0.5,1.3-0.5,0.5,0.3,0.7c5.7,1,11.5,1.9,17.2,2.9c0,0.2,0,0.4-0.1,0.5c-1.6,4.8-3.3,9.6-4.9,14.3
			C993.8-139.2,1009.3-133.7,1017.3-143.9z"/>
		<path id="XMLID_34_" d="M1008.7-133.9c3.2-1.6,6-4.2,8.4-8.1c5.1-8.6,7.1-17.7,6.5-27.6c-0.2-3.4-2.4-5.4-4.3-8.2
			c-5.6-8-11.2-16-16.9-24c-0.6-0.9-1.2-1.7-1.8-2.6c-0.6-0.9-1.3-1.8-1.9-2.7c-1.3-1.9-2.6-3.8-4-5.7c-0.3-0.5-0.7-0.9-1-1.4
			c-30.4-43.3-60.9-86.7-91.3-130c-6.4-9.1-12.9-17.8-20.3-26.2c-11.6-13-24.2-25.2-38.1-35.7c-14.7-11.1-31.8-20.9-50.5-22.9
			c-0.9-0.1-4.1,5.7-3.8,6.5c3.9,10,8,20,12.2,29.9c0.9,2.1,1.7,4.1,2.6,6.2c0.3,0.7,3.3,0.7,3.9,0.8c3,0.4,6,0.9,9,1.3
			c0.9,0.1,1.8,0.3,2.7,0.4c0.2,0,0.3-0.1,0.3-0.1c0,0.1-0.1,0.3-0.3,0.7c-1.6,4.6-3.2,9.2-4.7,13.7c-0.1,0.2-0.1,0.4-0.1,0.5
			c5.7,1,11.5,1.9,17.2,2.9c0.8,0.1,0.7-0.7,0.3,0.7c-0.6,1.8-1.2,3.6-1.9,5.4c-1,2.8-1.9,5.6-2.9,8.3c-0.1,0.2-0.1,0.4-0.1,0.5
			c5.7,1,11.5,1.9,17.2,2.9c0.8,0.1,0.7-0.7,0.3,0.7c-0.6,1.8-1.2,3.6-1.9,5.4c-1,2.8-1.9,5.6-2.9,8.3c-0.1,0.2-0.1,0.4-0.1,0.5
			c5.7,1,11.5,1.9,17.2,2.9c0.8,0.1,0.7-0.7,0.3,0.7c-0.6,1.8-1.2,3.6-1.9,5.4c-1,2.8-1.9,5.6-2.9,8.3c-0.1,0.2-0.1,0.4-0.1,0.5
			c5.7,1,11.5,1.9,17.2,2.9c0.8,0.1,0.7-0.7,0.3,0.7c-0.6,1.8-1.2,3.6-1.9,5.4c-1,2.8-1.9,5.6-2.9,8.3c-0.1,0.2-0.1,0.4-0.1,0.5
			c5.7,1,11.5,1.9,17.2,2.9c0.8,0.1,0.7-0.7,0.3,0.7c-0.6,1.8-1.2,3.6-1.9,5.4c-1,2.8-1.9,5.6-2.9,8.3c-0.1,0.2-0.1,0.4-0.1,0.5
			c5.7,1,11.5,1.9,17.2,2.9c0.8,0.1,0.7-0.7,0.3,0.7c-0.6,1.8-1.2,3.6-1.9,5.4c-1,2.8-1.9,5.6-2.9,8.3c-0.1,0.2-0.1,0.4-0.1,0.5
			c5.7,1,11.5,1.9,17.2,2.9c0.8,0.1,0.7-0.7,0.3,0.7c-0.6,1.8-1.2,3.6-1.9,5.4c-1,2.8-1.9,5.6-2.9,8.3c-0.1,0.2-0.1,0.4-0.1,0.5
			c5.7,1,11.5,1.9,17.2,2.9c0.8,0.1,0.7-0.7,0.3,0.7c-0.6,1.8-1.2,3.6-1.9,5.4c-1,2.8-1.9,5.6-2.9,8.3c-0.1,0.2-0.1,0.4-0.1,0.5
			c5.7,1,11.5,1.9,17.2,2.9c0.8,0.1,0.7-0.7,0.3,0.7c-0.6,1.8-1.2,3.6-1.9,5.4c-1,2.8-1.9,5.6-2.9,8.3c-0.1,0.2-0.1,0.4-0.1,0.5
			c5.7,1,11.5,1.9,17.2,2.9c0.8,0.1,0.7-0.7,0.3,0.7c-0.6,1.8-1.2,3.6-1.9,5.4c-1,2.8-1.9,5.6-2.9,8.3c-0.1,0.2-0.1,0.4-0.1,0.5
			c5.7,1,11.5,1.9,17.2,2.9c0.8,0.1,0.7-0.7,0.3,0.7c-0.6,1.8-1.2,3.6-1.9,5.4c-1,2.8-1.9,5.6-2.9,8.3c-0.1,0.2-0.1,0.4-0.1,0.5
			c5.7,1,11.5,1.9,17.2,2.9c0.8,0.1,0.7-0.7,0.3,0.7c-0.6,1.8-1.2,3.6-1.9,5.4c-1,2.8-1.9,5.6-2.9,8.3c-0.1,0.2-0.1,0.4-0.1,0.5
			c5.7,1,11.5,1.9,17.2,2.9c0.8,0.1,0.7-0.7,0.3,0.7c-0.6,1.8-1.2,3.6-1.9,5.4c-1,2.8-1.9,5.6-2.9,8.3c-0.1,0.2-0.1,0.3-0.1,0.4
			s0,0.2,0,0.2c6.5,3.1,13.5,5.4,20,5.2C1003.4-132.1,1006.2-132.7,1008.7-133.9z M984.3-143.6c1.6-4.8,3.3-9.6,4.9-14.3
			c0.1-0.2,0.1-0.4,0.1-0.5c-5.7-1-11.5-1.9-17.2-2.9c-0.8-0.1-0.7,0.7-0.3-0.7c0.6-1.8,1.2-3.6,1.9-5.4c1-2.8,1.9-5.6,2.9-8.3
			c0.1-0.2,0.1-0.4,0.1-0.5c-5.7-1-11.5-1.9-17.2-2.9c-0.8-0.1-0.7,0.7-0.3-0.7c0.6-1.8,1.2-3.6,1.9-5.4c1-2.8,1.9-5.6,2.9-8.3
			c0.1-0.2,0.1-0.4,0.1-0.5c-5.7-1-11.5-1.9-17.2-2.9c-0.8-0.1-0.7,0.7-0.3-0.7c0.6-1.8,1.2-3.6,1.9-5.4c1-2.8,1.9-5.6,2.9-8.3
			c0.1-0.2,0.1-0.4,0.1-0.5c-5.7-1-11.5-1.9-17.2-2.9c-0.8-0.1-0.7,0.7-0.3-0.7c0.6-1.8,1.2-3.6,1.9-5.4c1-2.8,1.9-5.6,2.9-8.3
			c0.1-0.2,0.1-0.4,0.1-0.5c-5.7-1-11.5-1.9-17.2-2.9c-0.8-0.1-0.7,0.7-0.3-0.7c0.6-1.8,1.2-3.6,1.9-5.4c1-2.8,1.9-5.6,2.9-8.3
			c0.1-0.2,0.1-0.4,0.1-0.5c-5.7-1-11.5-1.9-17.2-2.9c-0.8-0.1-0.7,0.7-0.3-0.7c0.6-1.8,1.2-3.6,1.9-5.4c1-2.8,1.9-5.6,2.9-8.3
			c0.1-0.2,0.1-0.4,0.1-0.5c-5.7-1-11.5-1.9-17.2-2.9c-0.8-0.1-0.7,0.7-0.3-0.7c0.6-1.8,1.2-3.6,1.9-5.4c1-2.8,1.9-5.6,2.9-8.3
			c0.1-0.2,0.1-0.4,0.1-0.5c-5.7-1-11.5-1.9-17.2-2.9c-0.8-0.1-0.7,0.7-0.3-0.7c0.6-1.8,1.2-3.6,1.9-5.4c1-2.8,1.9-5.6,2.9-8.3
			c0.1-0.2,0.1-0.4,0.1-0.5c-5.7-1-11.5-1.9-17.2-2.9c-0.8-0.1-0.7,0.7-0.3-0.7c0.6-1.8,1.2-3.6,1.9-5.4c1-2.8,1.9-5.6,2.9-8.3
			c0.1-0.2,0.1-0.4,0.1-0.5c-5.7-1-11.5-1.9-17.2-2.9c-0.8-0.1-0.7,0.7-0.3-0.7c0.6-1.8,1.2-3.6,1.9-5.4c1-2.8,1.9-5.6,2.9-8.3
			c0.1-0.2,0.1-0.4,0.1-0.5c-5.7-1-11.5-1.9-17.2-2.9c-0.8-0.1-0.7,0.7-0.3-0.7c0.6-1.8,1.2-3.6,1.9-5.4c1-2.8,1.9-5.6,2.9-8.3
			c0.1-0.2,0.1-0.4,0.1-0.5c-5.7-1-11.5-1.9-17.2-2.9c-0.8-0.1-0.7,0.7-0.3-0.7c0.6-1.8,1.2-3.6,1.9-5.4c1-2.8,1.9-5.6,2.9-8.3
			c0.1-0.2,0.1-0.4,0.1-0.5c-5.7-1-11.5-1.9-17.2-2.9c-0.8-0.1-0.7,0.7-0.3-0.7c0.6-1.8,1.2-3.6,1.9-5.4c1-2.8,1.9-5.6,2.9-8.3
			c0.1-0.2,0.1-0.4,0.1-0.5c-3.1-0.5-6.2-0.9-9.3-1.4c-1.3-0.2-6.1-0.1-6.7-1.4c-4-9.4-7.9-18.8-11.7-28.3
			c18.1,3.8,34.5,14.4,48.8,25.8c14.1,11.2,26.8,24.3,38.5,38c8,9.5,14.9,19.8,22,30c33.8,48,67.5,96.1,101.3,144.1
			c3.5,4.9,6.9,9.9,10.4,14.8c1.6,2.2,2.2,2.9,2.4,5.5c0.2,3,0.1,6.1-0.2,9.1c-0.2,2-0.5,4-1,6c-0.3,1.1-0.6,2.2-1,3.2
			c-0.1,0.3-0.2,0.6-0.4,1C1009.3-133.7,993.8-139.2,984.3-143.6z"/>
	</g>
	<line id="XMLID_35_" class="st2" x1="792.2" y1="-452" x2="1017.3" y2="-143.9"/>
</g>
<path id="XMLID_95_" class="st3" d="M1091.6-185H599.2c-47.6,0-86.3,36.5-86.3,81.8v0.4c0,45.4,38.7,82.8,86.3,82.8h492.4
	c47.6,0,86.3-37.4,86.3-82.8v-0.4C1177.9-148.5,1139.2-185,1091.6-185z M1167.9-102.7c0,39.9-34.2,72.8-76.3,72.8H599.2
	c-42.1,0-76.3-32.8-76.3-72.8v-0.4c0-39.9,34.2-71.8,76.3-71.8h492.6c42.1,0,76.1,31.9,76.1,71.8L1167.9-102.7L1167.9-102.7z"/>
<path id="XMLID_192_" class="st0" d="M1029.5,418.9c-0.1,0-0.2,0-0.3-0.1c-0.1,0.1-0.2,0.2-0.3,0.4
	C1027.4,421.1,1030.6,419.3,1029.5,418.9z"/>
<path id="XMLID_191_" class="st0" d="M1030.1,417.9c-0.4,0.4-0.7,0.7-0.9,1l0,0C1029.5,418.5,1029.8,418.2,1030.1,417.9z"/>
<path id="XMLID_190_" class="st0" d="M1029.4,456c-0.1,0-0.2,0-0.3-0.1c-0.2,0.2-0.3,0.4-0.5,0.6
	C1027.7,458,1030.6,456.3,1029.4,456z"/>
<path id="XMLID_189_" class="st0" d="M1029.2,455.9L1029.2,455.9L1029.2,455.9z"/>
<path id="XMLID_188_" class="st0" d="M1022.8,466c-0.1,0-0.2,0-0.3-0.1c-0.2,0.2-0.3,0.4-0.5,0.6
	C1020.7,468.3,1024.1,466.3,1022.8,466z"/>
<path id="XMLID_187_" class="st0" d="M441.7,601.1c-0.2,0.1-0.5,0.1-0.7,0.2c-2,0.7-0.6,1.3,0.7,0.1
	C441.8,601.3,441.7,601.2,441.7,601.1z"/>
<path id="XMLID_186_" class="st0" d="M696.5,603.9c0,0.1,0,0.1,0,0.2C696.6,603.9,696.5,603.9,696.5,603.9z"/>
<path id="XMLID_185_" class="st0" d="M1023.6,464.8c-0.5,0.5-0.8,0.8-1.1,1.1l0,0C1022.8,465.5,1023.2,465.2,1023.6,464.8z"/>
<path id="XMLID_184_" class="st0" d="M1029.7,308c-0.1,0.2-0.2,0.3-0.3,0.5C1029.6,308.3,1029.7,308.1,1029.7,308z"/>
<path id="XMLID_183_" class="st0" d="M1029.6,382c-0.1,0.2-0.1,0.4-0.2,0.6C1029.5,382.3,1029.6,382.1,1029.6,382z"/>
<path id="XMLID_182_" class="st0" d="M1029.2,455.9c0.3-0.3,0.6-0.6,0.9-0.9C1029.7,455.3,1029.4,455.6,1029.2,455.9z"/>
<path id="XMLID_181_" class="st1" d="M442.3,600.9c-0.2,0-0.4,0.1-0.5,0.2c0,0.1,0,0.2,0,0.3C441.9,601.3,442.1,601.1,442.3,600.9z"
	/>
<path id="XMLID_180_" d="M1029.2,418.8c-0.1,0.1-0.2,0.3-0.3,0.4C1029,419.1,1029.1,419,1029.2,418.8L1029.2,418.8z"/>
<path id="XMLID_179_" d="M1027.6,344.6c0,0,0.1,0,0.4,0.1C1027.9,344.7,1027.8,344.6,1027.6,344.6z"/>
<path id="XMLID_178_" d="M1027.6,474.3c0,0,0.1,0,0.4,0.1C1027.8,474.4,1027.7,474.3,1027.6,474.3z"/>
<path id="XMLID_177_" d="M1027.6,511.4c0.1,0,0.2,0,0.3,0.1C1027.8,511.4,1027.7,511.4,1027.6,511.4z"/>
<path id="XMLID_176_" d="M1022.5,465.9c-0.2,0.2-0.4,0.4-0.5,0.6C1022.2,466.3,1022.3,466.1,1022.5,465.9L1022.5,465.9z"/>
<path id="XMLID_175_" d="M1029.2,455.9c-0.2,0.3-0.4,0.5-0.5,0.6C1028.8,456.3,1029,456.1,1029.2,455.9L1029.2,455.9z"/>
<path id="XMLID_174_" class="st1" d="M695.8,604.7c0.4-0.3,0.6-0.5,0.7-0.6c0-0.1,0-0.1,0-0.2C696.3,604,696.1,604.2,695.8,604.7z"
	/>
<path id="XMLID_173_" class="st4" d="M802,616.7c-0.1,0.2-0.2,0.6-0.3,1c-0.1,0.5-0.1,1-0.1,1.5c0,1.4,0.1,2.7,0.3,4.1
	c0.5,3,1.3,6,2.4,8.9c2.9,7.8,7,15.1,12.1,21.7c11.3,14.7,27.5,25.8,45.5,27.9c0-16.2,0-32.3,0-48.5c0-1,2.8-7.2,3.9-7.2
	c10.5,0,21.1,0,31.6,0c7.1,0,14.1,0,21.2,0c2.5,0,5.3,0.1,7.8,0.5c15.2,2.5,19.9,19.7,13.1,32.3c-3.5,6.5-7.9,11-15.5,12.1
	c-5.9,0.8-12,0.7-18,0.6c1.4,2.2,3.2,3.8,5.2,5.4c6.3,4.9,13.6,5.2,21.3,5.2c51.1,0,102.2,0,153.3,0c-2.9-26-5.9-53-8.8-80
	c-17,0-34.1,0-51.1,0c-58.7,0-117.4,0-176.1,0c-5.4,0-10.7,0-16.1,0c-2.8,0-6.1,1.6-8.7,2.5C817.2,606.9,807.5,610.3,802,616.7z"/>
<path id="XMLID_170_" class="st5" d="M804.3,647.1c11.2,21.9,32.4,40.4,57.8,41.4c1,0,3.8-5.3,3.8-6.3c0-16.3,0-33.2,0-49.2
	c18,0,36.9,0,55.4,0c9.8,0,16.8,9.1,17.5,18.3c0.2,2.3-0.1,4.8-0.5,7.1c-0.3,0.8-0.5,1.4-0.5,1.7c-0.5,0.5-1.2,1-1.8,1.5
	c-2.8,2.1-6.5,2.8-10,3.2c-7.5,0.8-15.3,0.2-22.8,0.2c-1,0-4,5.3-3.8,6.3c2.9,13.1,16,17.8,28,17.8s24,0,36.1,0
	c33.5,0,66.9,0,100.4,0c7.5,0,15.1,0,22.6,0c1,0,3.9-5.2,3.8-6.1c-3.2-29-6.4-57.9-9.5-86.9c0,0.2-0.4,0.3-0.9,1
	c0.3-0.9,0.6-1.9,0.9-1.9c-46.3,0-92.5,0-138.8,0c-28,0-56,0-84,0c-6.5,0-13,0-19.6,0c-1.4,0-2.6,0.7-4,1.1
	c-7.3,1.8-14.5,4.6-21.1,8.2c-7,3.8-14.5,11.5-15.4,19.9C797,631.9,800.9,640.5,804.3,647.1z M833.6,602c5.4,0,10.7,0,16.1,0
	c58.7,0,117.4,0,176.1,0c17,0,34.1,0,51.1,0c2.9,27,5.9,54,8.8,80c-51.1,0-102.2,0-153.3,0c-7.7,0-15-0.2-21.3-5.2
	c-2-1.5-3.7-3.3-5.2-5.6c6,0.1,12.1,0.4,18-0.4c7.6-1,12-5.4,15.5-11.9c6.8-12.6,2.1-30-13.1-32.5c-2.5-0.4-5.3-0.5-7.8-0.5
	c-7.1,0-14.1,0-21.2,0c-10.5,0-21.1,0-31.6,0c-1.1,0-3.9,6.2-3.9,7.2c0,16.2,0,32.3,0,48.5c-18-2-34.2-13.2-45.5-27.9
	c-5.1-6.6-9.2-13.9-12.1-21.7c-1.1-2.9-1.9-5.9-2.4-8.9c-0.2-1.3-0.3-2.7-0.3-4.1c0-0.5,0.1-1,0.1-1.5c0-0.4,0.2-0.8,0.3-1
	c5.6-6.3,15.2-9.8,22.9-12.2C827.5,603.6,830.8,602,833.6,602z"/>
<line id="XMLID_169_" class="st6" x1="718.9" y1="641.5" x2="1085.9" y2="641.5"/>
<g id="XMLID_162_">
	<g id="XMLID_164_">
		<path id="XMLID_168_" class="st1" d="M-361.6-364.9c2.3-0.1,4.8-0.2,7.2-0.6c-0.4-1.7-1-3.4-1.9-5c-1.1-2-0.9-1.8-3-1.9
			c-5.9-0.4-12.3-3-14.7-8.9c-3.4-8.1-1.5-17.9,2.8-25.3c3-5.1,6.8-9.5,12.9-10.5c7.1-1.1,15,0.1,21.9,1.3
			c22.9,4.1,43.5,16.7,66.7,19.2c5.3,0.6,11.3,1.6,16.4-0.5c4.5-1.8,8.4-4.6,12-7.8c3.6-3.1,7.1-6.5,10.1-10.1c0-0.6,0-1.1,0-1.7
			c0-2.6,0-5.2,0-7.8c0-2.7-2.6-4.3-4.6-5.7c-7.4-5.1-15.8-8.6-24.2-11.7c-5.3-2-9.2-3.3-14.6-3.3c-21.2,0-42.4,0-63.6,0
			c-48.5,0-97,0-145.6,0c-3.5,0-7.3-0.3-9.9,2.4c-0.1,0.2-0.2,0.4-0.3,0.7c-0.4,1.1-0.7,2.3-0.9,3.5c-0.4,2.2-0.8,4.4-0.9,6.6
			c-0.9,11.4,0.3,22.9,2,34.1c1.1,7.5,2.5,15,4.1,22.4c7.3,0.4,14.6,0.9,21.8,1.4c4.5,2.8,9,5.5,13.5,8.3c17.2,0.6,34.5,1,51.7,1.2
			C-388.8-364.2-375.2-364-361.6-364.9z"/>
		<path id="XMLID_165_" d="M-489.5-375.3c-1.6-7.4-3-14.9-4.1-22.4c-1.7-11.2-2.9-22.8-2-34.2c0.2-2.2,0.5-4.4,0.9-6.6
			c0.2-1.2,0.5-2.3,0.9-3.5c0.1-0.2,0.2-0.4,0.3-0.6c2.5-2.7,6.4-2.4,9.9-2.4c48.5,0,97,0,145.6,0c21.2,0,42.4,0,63.6,0
			c5.4,0,9.3,1.3,14.6,3.3c8.4,3.1,16.8,6.7,24.1,11.8c2,1.4,4.6,2.9,4.6,5.6c0,2.6,0,5.2,0,7.8c0,0.6,0,1.1,0,1.7
			c-3,3.6-6.5,6.9-10.1,10.1c-3.6,3.1-7.6,6-12,7.8c-5.1,2.1-11.1,1.1-16.4,0.5c-23.2-2.5-43.8-15.1-66.7-19.2
			c-7-1.2-14.8-2.4-21.9-1.3c-6.2,0.9-10,5.3-12.9,10.5c-4.3,7.4-6.1,17.2-2.8,25.3c2.4,5.9,8.8,8.5,14.7,8.9c2,0.1,1.9-0.1,3,1.9
			c0.9,1.6,1.5,3.3,1.9,5c-2.4,0.4-4.9,0.4-7.2,0.6c-13.6,0.9-27.3,0.6-40.9,0.5c-17.2-0.2-34.5-0.7-51.7-1.2
			c3.8,2.3,7.6,4.7,11.4,7c19.2,0.6,38.5,0.9,57.8,0.8c9.5-0.1,20.2,0.7,29.5-1.7c2.8-0.7,5.3-4.8,5.6-7.5c0.4-3.9-1.6-8.6-3.7-11.8
			c-0.2-0.3-4-0.2-4.5-0.3c-6.1-0.9-10.9-4.6-12.9-10.5c-1.6-4.6-1-10.3,0.1-15c0.7-2.9,3.9-4.5,6.6-5.4c4.1-1.4,9.1-0.7,13.2-0.5
			c11.3,0.6,22.3,3.5,32.9,7.2c9.4,3.2,18.5,7.1,28,9.8c9.2,2.7,20.7,5.5,30.3,3.8c7.5-1.3,14.1-7.5,19.4-12.6
			c2.4-2.3,4.7-4.8,6.9-7.3c0.8-0.9,1.5-1.8,2.3-2.7c0.7-0.8,0.3-0.6,0.3-0.6c0-1,3.8-4.1,3.8-6.2l0,0c0-1.2,0-2.4,0-3.7
			c0-2.6,0-5.2,0-7.8c0-2.9-1.6-3.7-3.8-5.4c-7.6-5.9-17.1-9.2-26-12.5c-5.9-2.2-9.4-2.7-15.4-2.7c-24.5,0-48.9,0-73.4,0
			c-44.7,0-89.4,0-134.1,0c-10.8-2-16.4,9.5-18.4,18.4c-3.2,13.4-1,28.2,1,41.6c0.8,5.2,1.7,10.3,2.7,15.5
			C-492.9-375.4-491.2-375.4-489.5-375.3z M-351.3-366.2c-0.2,0.1-0.4,0.1-0.7,0.2c-0.2,0.1-0.3,0.1-0.5,0.2
			c0.2-0.2,0.3-0.4,0.5-0.5C-350.7-367.5-349.3-366.9-351.3-366.2z"/>
	</g>
	<line id="XMLID_163_" class="st2" x1="-500.1" y1="-404.5" x2="-133.1" y2="-404.5"/>
</g>
<g id="XMLID_154_">
	<g id="XMLID_156_">
		<path id="XMLID_161_" class="st1" d="M-475.5-246.4c-6.8,4.2-13.9,8.4-19.7,14c-1.4,1.3-2.8,2.8-3.7,4.5l0.1,0.1
			c1.4,1.5,1.8,1,3.6,0.1c1.9-0.9,3.9-1.8,6-2.5c5.1-1.8,10.4-3.2,15.8-4.2c14.1-2.9,28.5-4.3,42.9-5.3c38.1-2.8,76.4-3.1,114.5-4.1
			c40.3-1,80.6-2.2,120.7-6.8c27.9-3.2,58.7-7.1,83.9-20.6c-35.1-25.2-80.7-24.5-122.2-24.7c-49.9-0.3-99.7-0.6-149.6-0.8
			C-414.2-280.5-445.7-264.7-475.5-246.4z"/>
		<path id="XMLID_157_" d="M-487.5-224.9c11.7-4,24.2-5.7,36.5-7.1c16.5-1.9,33.2-2.9,49.8-3.6c40-1.8,80.1-2.1,120.1-3.5
			c33.7-1.2,67.6-2.9,101-7.7c24.7-3.5,51.4-8.1,73.1-21.2c0.6-0.4,0.4-5.4-0.1-5.9c-41.3-33.2-100.1-28-149.9-28.2
			c-32.4-0.2-64.8-0.4-97.2-0.5c-4.4,0-8.9,0-13.3-0.1c-5.3,0-10.6-0.1-15.9-0.1c-6.5,3.4-12.9,6.8-19.4,10.2
			c-1.5,0.8-3.1,1.6-4.6,2.4c-15.4,8.3-30.7,16.5-45.9,24.9c-12.6,7-25.6,14.1-37.1,22.9c-5.1,3.8-10,7.8-9.8,14.6
			c0.1,2.4,0.2,4.6,2,6.3C-496.7-219.9-489.7-224.1-487.5-224.9z M-383.3-296.8c49.9,0.3,99.7,0.6,149.6,0.8
			c41.5,0.2,87.1-0.5,122.2,24.7c-25.2,13.5-56,17.4-83.9,20.6c-40,4.6-80.4,5.7-120.7,6.8c-38.2,1-76.4,1.3-114.5,4.1
			c-14.4,1.1-28.8,2.5-42.9,5.3c-5.3,1.1-10.6,2.4-15.8,4.2c-2,0.7-4,1.6-6,2.5c-1.8,0.9-2.2,1.4-3.6-0.1l-0.1-0.1
			c0.9-1.7,2.3-3.1,3.7-4.5c5.8-5.6,12.9-9.8,19.7-14C-445.7-264.7-414.2-280.5-383.3-296.8z M-499.6-226.2c0-0.2,0.1-0.5,0.3-0.9
			c0,0.6-0.1,0.9-0.2,1C-499.6-226-499.6-226-499.6-226.2z"/>
	</g>
</g>
<g id="XMLID_193_">
	<g id="XMLID_195_">
		<path id="XMLID_204_" class="st1" d="M-173.9-149.1c-18.4,6.6-36.7,13.5-54.8,20.9c-6,2.4-11.9,4.9-17.7,7.4
			c-1.5,0.7-6.2,3.6-7.6,2.9c-0.8-0.3-1.7-0.6-2.6-0.9c-4.2-1.4-8.3-2.5-12.5-3.6c-33.7-8.3-68.5-12.9-103-17.7
			c-21.5-3-43.1-5.7-64.8-8.2c-4.4,2.7-8.2,6.5-11.5,10.7c5.3,0.8,10.6,1.4,15.9,2.2c30.1,4.1,60.2,8.2,90.3,12.3
			c12.4,1.7,25,3.4,37.4,5.1c3.1,0.4,6.2,0.9,9.3,1.2c2.9,0.4,5.2,2.6,7.5,4.1c4.8,3.4,12.4,8.2,13.1,14.3c0-0.1,0.1-0.1,0.1-0.2
			c0,0.1-0.1,0.2-0.1,0.3c0.1,0.9,0,1.9-0.3,2.8c-2.2,7.5-9.6,14.5-15.3,19.9c-1.4,1.3-3.5,2-5.2,2.8c-5,2.3-10.1,4.8-15,7.2
			c-14.8,7.1-29.7,14.3-44.4,21.5c-11.5,5.6-23.3,11.1-34.1,17.7c-0.7,0.4-1.3,0.8-2,1.2c-0.6,0.4-1.1,0.8-1.6,1.4
			c-0.6,0.8-1,0.7-1.1,0.6c0,0.1,0.1,0.2,0.1,0.4c1.1,2.6,4.8,4.6,7.8,3.4c1.9-0.8,3.8-1.6,5.7-2.4c10.6-4.6,21.1-9.2,31.5-14
			c28.2-12.4,56.2-24.9,84.4-37.4c6.2-2.8,12.5-5.5,18.7-8.3c1.5-0.7,7.3,1.5,8.9,1.9c8.5,1.8,17,3.6,25.5,5.4
			c10.7,2.2,21.4,4.4,32.2,6.5c10.2,2,21,5,31.5,5.2c15.9,0.4,32.5-5.8,44.8-15.6c-33.4-7.6-66.9-15.2-100.2-22.8
			c-0.3-0.1,0.8-5.1,1.4-5.5c29.2-13,58.3-26.3,87.1-40.1C-132.9-155.7-154.3-156.1-173.9-149.1z M-247.6-88
			c-8-1.3-10.8-7.2-9.3-14.1c1.4-6.2,6.3-12,13.9-10.7C-227.1-110.1-232.1-86.8-247.6-88z"/>
		<path id="XMLID_200_" d="M-108.9-148.9c-15.5-9.8-34.9-12.8-53.3-8.9c-2.6,0.6-4.9,1.4-7.4,2.3c-9,3.2-18,6.5-27,9.9
			c-13.8,5.3-27.6,10.7-41.3,16.4c-3.6,1.5-7.2,3.1-10.8,4.5c-2.5,1.1-3.2,1.6-5.5,0.8c-2.6-0.9-5.2-1.7-7.9-2.4
			c-14.7-4.1-29.9-6.8-44.9-9.5c-42.6-7.4-85.6-13-128.8-17.9c-0.1,0-0.1,0-0.2,0.1c-6.2,3.8-11.1,9.9-15.1,15.7
			c-0.4,0.4-1.8,5.3-1.3,5.4c48.6,6.6,97,13.3,145.5,19.8c3.7,0.5,7.3,0.9,10.9,1.5c2,0.3,4.7,2.9,6.3,4c4.6,3.1,10,7.1,12.5,12.1
			c-2.3,3.4-4.9,6.6-7.7,9.6c-1.4,1.4-3.5,4.5-5.2,5.3c-2.6,1.3-5.3,2.5-7.9,3.7c-13.2,6.3-26.3,12.6-39.5,18.9
			c-14.1,6.8-28.1,13.7-41.9,20.9c-3.7,1.9-7.4,3.8-10.9,6.2c-3.9,2.7-7.5,10.1-4.8,14.5c3.9,6,15.1-1.3,19.4-3.1
			c12.3-5.4,24.6-10.8,36.8-16.3c26.9-11.9,53.8-23.8,80.6-35.7c3.1-1.3,8.4-5.2,11.9-4.5c14.3,3.1,28.7,6.2,43.1,9.2
			c9.9,2.1,19.7,4.1,29.7,5.9c10.6,2,21.2,4.5,32,3.5c15.3-1.4,31.3-9.5,42-20c0.5-0.4,1.8-5.3,1.3-5.4c-32.3-7.4-64.6-14.6-96.9-22
			c28.3-12.7,56.5-25.6,84.5-39.1C-109.7-143.7-108.3-148.5-108.9-148.9z M-203.3-100.5c33.4,7.6,66.9,15.2,100.2,22.8
			c-12.3,9.8-28.9,16-44.8,15.6c-10.5-0.3-21.4-3.3-31.5-5.2c-10.8-2.1-21.5-4.3-32.2-6.5c-8.5-1.8-17-3.5-25.5-5.4
			c-1.5-0.3-7.3-2.6-8.9-1.9c-6.2,2.8-12.5,5.5-18.7,8.3c-28.1,12.5-56.2,24.9-84.4,37.4c-10.5,4.6-21,9.3-31.5,14
			c-1.9,0.8-3.7,1.7-5.7,2.4c-3,1.2-6.7-0.9-7.8-3.4c-0.1-0.2-0.1-0.3-0.1-0.4c0.1,0.1,0.5,0.1,1.1-0.6c0.5-0.4,1-0.9,1.6-1.4
			c0.7-0.5,1.3-0.8,2-1.2c10.9-6.6,22.7-12,34.1-17.7c14.7-7.3,29.6-14.5,44.4-21.5c5-2.4,10.1-4.8,15-7.2c1.7-0.8,3.9-1.4,5.2-2.8
			c5.7-5.5,13.1-12.4,15.3-19.9c0.3-0.9,0.4-2,0.3-2.8c0-0.1,0.1-0.2,0.1-0.3c0,0.1-0.1,0.1-0.1,0.2c-0.6-6.1-8.2-10.9-13.1-14.3
			c-2.3-1.6-4.6-3.7-7.5-4.1c-3.1-0.4-6.2-0.9-9.3-1.2c-12.4-1.7-25-3.4-37.4-5.1c-30.1-4.1-60.2-8.2-90.3-12.3
			c-5.3-0.8-10.6-1.5-15.9-2.2c3.2-4.1,7-8,11.5-10.7c21.7,2.5,43.3,5.2,64.8,8.2c34.5,4.7,69.4,9.3,103,17.7
			c4.2,1.1,8.5,2.2,12.5,3.6c0.8,0.3,1.8,0.6,2.6,0.9c1.6,0.5,6.1-2.2,7.6-2.9c5.9-2.5,11.8-5,17.7-7.4
			c18.1-7.4,36.4-14.4,54.8-20.9c19.6-7,40.9-6.6,59,3.1c-28.8,13.8-57.9,27.1-87.1,40.1C-202.5-105.7-203.7-100.6-203.3-100.5z"/>
		<path id="XMLID_199_" class="st1" d="M-244.5-107.4c-3.1-0.3-12.5,1.3-11.3,5.9c1.2,4.5,4.9,7.2,9.7,8c3.1,0.3,12.4-1.3,11.2-5.9
			C-236-103.6-239.7-107-244.5-107.4z"/>
		<path id="XMLID_196_" d="M-243.1-112.8c-7.6-1.2-12.5,4.5-13.9,10.7c-1.5,6.9,1.4,12.8,9.3,14.1
			C-232.1-86.8-227.1-110.1-243.1-112.8z M-234.8-99.3c1.2,4.6-8.1,6.2-11.2,5.9c-4.8-0.8-8.5-3.5-9.7-8c-1.2-4.6,8.1-6.2,11.3-5.9
			C-239.7-107-236-103.6-234.8-99.3z"/>
	</g>
</g>
<g id="XMLID_116_">
	<g id="XMLID_118_">
		<path id="XMLID_122_" class="st1" d="M-431,293.5c3.4,0.7,6.8,1.4,10.2,2c7.3,1.3,14.6,2.4,21.9,3.3c11.9,1.5,23.9,2.6,35.9,3.3
			c13.7,0.8,27.3,0.7,41,0.7c28.9,0.1,57.8,0.1,86.7,0.1c44,0.1,88,0.2,132,0.2c7.3-12.1,12.4-28.4,5.8-41.4
			c-18.7-0.2-37.4-0.4-56.1-0.6c-56.3-0.6-112.6-1.2-168.9-1.8c-17-0.2-34,1.4-50.8,4.6c-19.1,3.7-41.2,8.8-55,23.8
			C-429.1,288.6-433.8,293-431,293.5z"/>
		<path id="XMLID_119_" d="M-440.7,297.2c50.8,11,101.9,9.7,153.5,9.8c57,0.1,114,0.2,171,0.3c2.9,0,5.8,0,8.7,0
			c3.1,0,7.7-1.4,9.4-3.9c8.8-12.5,16-31.2,8.6-45.8c0-0.1-0.2-0.1-0.4,0c-47-0.5-94-1-141-1.5c-26.2-0.3-52.5-0.5-78.7-0.8
			c-14.5-0.2-28.6,0.5-43,2.4c-16.5,2.3-33,6-48.6,12.2c-14.6,5.8-30.3,13.9-39.4,27.2L-440.7,297.2z M-428.3,287.7
			c13.7-15,35.8-20.1,55-23.7c16.7-3.2,33.7-4.8,50.8-4.6c56.3,0.6,112.6,1.2,168.9,1.8c18.7,0.2,37.4,0.4,56.1,0.6
			c6.6,13,1.5,29.3-5.9,41.5c-44-0.1-88-0.2-132-0.2c-28.9,0-57.8-0.1-86.7-0.1c-13.7,0-27.3,0.1-41-0.7c-12-0.7-23.9-1.8-35.9-3.3
			c-7.3-0.9-14.6-2-21.9-3.3c-3.4-0.6-6.8-1.3-10.2-2C-433.8,293-429.1,288.6-428.3,287.7z"/>
	</g>
</g>
<g id="XMLID_109_">
	<g id="XMLID_111_">
		<path id="XMLID_115_" class="st1" d="M-434.7,419.5c2.3,2.4,4.6,4.7,7.1,6.8c9.9,8.3,21.8,15.1,34.6,17.4c7.2,1.3,14.7,1,22,1
			c58.2,0.2,116.4,0,174.5-0.2c40.2-0.1,80.3-0.2,120.5-0.3c1.7-11.1,2-22.6,1.2-33.7c-1.4-20.2-7.2-42.6-25.7-53.6
			c-41.2,1.2-82.5,2.2-123.8,3.3c-30.7,0.8-61.5,1.6-92.2,2.4c-10.2,0.3-20.3,0.5-30.5,0.8c-3.7,0.1-7.7,0.7-11.3,0.3
			c-5.9-0.6-12.3,0.7-18,2.3c-18,5-33.4,16.4-46.7,29.1c-5.1,5-10.1,10.2-14.7,15.6C-440.8,414.2-437.2,416.9-434.7,419.5z"/>
		<path id="XMLID_112_" d="M-448,417.3c13.4,17.3,34.3,31.2,56.8,31.6c6.3,0.1,12.5,0.1,18.8,0.1c26.3,0.1,52.6,0,78.9,0
			c62.3-0.1,124.5-0.2,186.8-0.4c10.1,0,20.2-0.1,30.4-0.1c1.4,0,7.5-2.7,7.8-4.1c2.3-12.4,2.7-25.3,1.9-37.8
			c-1.3-20.1-7.3-42.7-25.8-53.7c-0.3-0.2-0.7-0.2-1.2,0c-44.7,1.2-89.3,2.3-134,3.5c-29.7,0.8-59.5,1.6-89.2,2.3
			c-11.6,0.3-23.3,1.3-34.9,0.8c-11.5-0.4-23.4,3.8-33.7,8.5c-24.6,11.1-45.1,28.7-62.5,49.1L-448,417.3z M-437.7,410.7
			c4.7-5.4,9.6-10.6,14.8-15.5c13.4-12.8,28.7-24.1,46.7-29.1c5.6-1.6,12.1-2.9,18-2.3c3.7,0.4,7.7-0.2,11.3-0.3
			c10.2-0.3,20.3-0.5,30.5-0.8c30.7-0.8,61.5-1.6,92.2-2.4c41.3-1.1,82.6-2.2,123.9-3.2c18.5,11,24.3,33.5,25.7,53.6
			c0.8,11.1,0.5,22.6-1.2,33.7c-40.2,0.1-80.3,0.2-120.5,0.3c-58.2,0.1-116.4,0.4-174.5,0.2c-7.3,0-14.8,0.3-22-1
			c-12.8-2.3-24.7-9.2-34.6-17.4c-2.5-2.1-4.9-4.4-7.1-6.8C-437.2,416.9-440.8,414.2-437.7,410.7z"/>
	</g>
</g>
<g id="XMLID_102_">
	<g id="XMLID_104_">
		<path id="XMLID_108_" class="st1" d="M-102.5,34.3c-0.2-0.3-0.4-0.6-0.6-0.9c-0.6-0.9-1.3-1.8-2-2.7c-1.3-1.5-2.7-3-4.3-4.3
			c-2.3-2-4.7-3.9-7.3-5.5c-2.2-1.4-3.1-1.2-5.8-1.3c-6-0.1-12-0.2-18.1-0.3c-58.7-0.8-117.4-1.7-176.2-2.5
			c-12.4-0.2-24.8-0.7-37.2,0.2c-18,1.3-36,4-53.4,8.8c-17.6,4.9-35.8,12-49.5,24.4c9.9,2.5,19.8,4.9,29.7,7.1
			c1.4,0.3,4.2-3.7,5.1-4.6c2.2-2.3,4.4-4.5,6.6-6.8c0.2,0.1,0.3,0.2,0.4,0.4c1.7,2.4,3.4,4.8,5.1,7.2c1.1,1.6,2.2,3.1,3.3,4.7
			c0.8,1.2,0.1,0.7,0.7,0.2c4.2-4.1,8.3-8.2,12.5-12.3c0.2,0.1,0.3,0.2,0.4,0.4c1.7,2.4,3.4,4.8,5.1,7.2c1.1,1.6,2.2,3.1,3.3,4.7
			c0.8,1.2,0.1,0.7,0.7,0.2c4.2-4.1,8.3-8.2,12.5-12.3c0.2,0.1,0.3,0.2,0.4,0.4c1.7,2.4,3.4,4.8,5.1,7.2c1.1,1.6,2.2,3.1,3.3,4.7
			c0.8,1.2,0.1,0.7,0.7,0.2c4.2-4.1,8.3-8.2,12.5-12.3c0.2,0.1,0.3,0.2,0.4,0.4c1.7,2.4,3.4,4.8,5.1,7.2c1.1,1.6,2.2,3.1,3.3,4.7
			c0.8,1.2,0.1,0.7,0.7,0.2c4.2-4.1,8.3-8.2,12.5-12.3c0.2,0.1,0.3,0.2,0.4,0.4c1.7,2.4,3.4,4.8,5.1,7.2c1.1,1.6,2.2,3.1,3.3,4.7
			c0.8,1.2,0.1,0.7,0.7,0.2c4.2-4.1,8.3-8.2,12.5-12.3c0.2,0.1,0.3,0.2,0.4,0.4c1.7,2.4,3.4,4.8,5.1,7.2c1.1,1.6,2.2,3.1,3.3,4.7
			c0.8,1.2,0.1,0.7,0.7,0.2c4.2-4.1,8.3-8.2,12.5-12.3c0.2,0.1,0.3,0.2,0.4,0.4c1.7,2.4,3.4,4.8,5.1,7.2c1.1,1.6,2.2,3.1,3.3,4.7
			c0.8,1.2,0.1,0.7,0.7,0.2c4.2-4.1,8.3-8.2,12.5-12.3c0.2,0.1,0.3,0.2,0.4,0.4c1.7,2.4,3.4,4.8,5.1,7.2c1.1,1.6,2.2,3.1,3.3,4.7
			c0.8,1.2,0.1,0.7,0.7,0.2c4.2-4.1,8.3-8.2,12.5-12.3c0.2,0.1,0.3,0.2,0.4,0.4c1.7,2.4,3.4,4.8,5.1,7.2c1.1,1.6,2.2,3.1,3.3,4.7
			c0.8,1.2,0.1,0.7,0.7,0.2c4.2-4.1,8.3-8.2,12.5-12.3c0.2,0.1,0.3,0.2,0.4,0.4c1.7,2.4,3.4,4.8,5.1,7.2c1.1,1.6,2.2,3.1,3.3,4.7
			c0.8,1.2,0.1,0.7,0.7,0.2c4.2-4.1,8.3-8.2,12.5-12.3c0.2,0.1,0.3,0.2,0.4,0.4c1.7,2.4,3.4,4.8,5.1,7.2c1.1,1.6,2.2,3.1,3.3,4.7
			c0.8,1.2,0.1,0.7,0.7,0.2c4.2-4.1,8.3-8.2,12.5-12.3c0.2,0.1,0.3,0.2,0.4,0.4c1.7,2.4,3.4,4.8,5.1,7.2c1.1,1.6,2.2,3.1,3.3,4.7
			c0.8,1.2,0.1,0.7,0.7,0.2c4.2-4.1,8.3-8.2,12.5-12.3c0.2,0.1,0.3,0.2,0.4,0.4c1.7,2.4,3.4,4.8,5.1,7.2c1.1,1.6,2.2,3.1,3.3,4.7
			c0.8,1.2,0.1,0.7,0.7,0.2c4.2-4.1,8.3-8.2,12.5-12.3c0.2,0.1,0.3,0.2,0.4,0.4c2.9,4.1,5.8,8.3,8.7,12.4
			C-112.4,56.1-99,46.8-102.5,34.3z"/>
		<path id="XMLID_105_" d="M-99.5,47c0.6-3.5,0.2-7.3-1.6-11.5c-3.9-9.2-10.2-16.1-18.6-21.5c-2.9-1.8-5.8-1.3-9.2-1.3
			c-9.8-0.1-19.5-0.3-29.3-0.4c-1,0-2.1,0-3.1,0c-1.1,0-2.2,0-3.3,0c-2.3,0-4.6-0.1-6.9-0.1c-0.6,0-1.1,0-1.7,0
			c-53-0.7-105.9-1.5-158.9-2.2c-11.2-0.2-22,0-33.1,1.1c-17.3,1.7-34.6,4.8-51.3,9.9c-17.7,5.4-35.6,13.6-48.2,27.4
			c-0.6,0.6,2.2,6.6,3.1,6.8c10.4,2.7,20.9,5.2,31.4,7.7c2.2,0.5,4.4,1,6.6,1.5c0.7,0.2,2.5-2.3,2.9-2.7c2.1-2.2,4.2-4.3,6.3-6.5
			c0.6-0.7,1.3-1.3,1.9-2c0.1-0.1,0.1-0.2,0.1-0.3c0,0.1,0.1,0.3,0.4,0.7c2.8,4,5.6,7.9,8.4,11.9c0.1,0.2,0.2,0.3,0.4,0.4
			c4.2-4.1,8.3-8.2,12.5-12.3c0.6-0.6-0.1-1,0.7,0.2c1.1,1.6,2.2,3.1,3.3,4.7c1.7,2.4,3.4,4.8,5.1,7.2c0.1,0.2,0.2,0.3,0.4,0.4
			c4.2-4.1,8.3-8.2,12.5-12.3c0.6-0.6-0.1-1,0.7,0.2c1.1,1.6,2.2,3.1,3.3,4.7c1.7,2.4,3.4,4.8,5.1,7.2c0.1,0.2,0.2,0.3,0.4,0.4
			c4.2-4.1,8.3-8.2,12.5-12.3c0.6-0.6-0.1-1,0.7,0.2c1.1,1.6,2.2,3.1,3.3,4.7c1.7,2.4,3.4,4.8,5.1,7.2c0.1,0.2,0.2,0.3,0.4,0.4
			c4.2-4.1,8.3-8.2,12.5-12.3c0.6-0.6-0.1-1,0.7,0.2c1.1,1.6,2.2,3.1,3.3,4.7c1.7,2.4,3.4,4.8,5.1,7.2c0.1,0.2,0.2,0.3,0.4,0.4
			c4.2-4.1,8.3-8.2,12.5-12.3c0.6-0.6-0.1-1,0.7,0.2c1.1,1.6,2.2,3.1,3.3,4.7c1.7,2.4,3.4,4.8,5.1,7.2c0.1,0.2,0.2,0.3,0.4,0.4
			c4.2-4.1,8.3-8.2,12.5-12.3c0.6-0.6-0.1-1,0.7,0.2c1.1,1.6,2.2,3.1,3.3,4.7c1.7,2.4,3.4,4.8,5.1,7.2c0.1,0.2,0.2,0.3,0.4,0.4
			c4.2-4.1,8.3-8.2,12.5-12.3c0.6-0.6-0.1-1,0.7,0.2c1.1,1.6,2.2,3.1,3.3,4.7c1.7,2.4,3.4,4.8,5.1,7.2c0.1,0.2,0.2,0.3,0.4,0.4
			c4.2-4.1,8.3-8.2,12.5-12.3c0.6-0.6-0.1-1,0.7,0.2c1.1,1.6,2.2,3.1,3.3,4.7c1.7,2.4,3.4,4.8,5.1,7.2c0.1,0.2,0.2,0.3,0.4,0.4
			c4.2-4.1,8.3-8.2,12.5-12.3c0.6-0.6-0.1-1,0.7,0.2c1.1,1.6,2.2,3.1,3.3,4.7c1.7,2.4,3.4,4.8,5.1,7.2c0.1,0.2,0.2,0.3,0.4,0.4
			c4.2-4.1,8.3-8.2,12.5-12.3c0.6-0.6-0.1-1,0.7,0.2c1.1,1.6,2.2,3.1,3.3,4.7c1.7,2.4,3.4,4.8,5.1,7.2c0.1,0.2,0.2,0.3,0.4,0.4
			c4.2-4.1,8.3-8.2,12.5-12.3c0.6-0.6-0.1-1,0.7,0.2c1.1,1.6,2.2,3.1,3.3,4.7c1.7,2.4,3.4,4.8,5.1,7.2c0.1,0.2,0.2,0.3,0.4,0.4
			c4.2-4.1,8.3-8.2,12.5-12.3c0.6-0.6-0.1-1,0.7,0.2c1.1,1.6,2.2,3.1,3.3,4.7c1.7,2.4,3.4,4.8,5.1,7.2c0.1,0.2,0.2,0.3,0.4,0.4
			c4.2-4.1,8.3-8.2,12.5-12.3c0.6-0.6-0.1-1,0.7,0.2c1.1,1.6,2.2,3.1,3.3,4.7c1.7,2.4,3.4,4.8,5.1,7.2c0.1,0.1,0.2,0.2,0.2,0.3
			c0.1,0.1,0.1,0.1,0.1,0.1c6.3-3.5,12.3-7.8,15.9-13.1C-101.1,52.5-99.9,49.9-99.5,47z M-121.6,61.2c-2.9-4.1-5.8-8.3-8.7-12.4
			c-0.1-0.2-0.2-0.3-0.4-0.4c-4.2,4.1-8.3,8.2-12.5,12.3c-0.6,0.6,0.1,1-0.7-0.2c-1.1-1.6-2.2-3.1-3.3-4.7c-1.7-2.4-3.4-4.8-5.1-7.2
			c-0.1-0.2-0.2-0.3-0.4-0.4c-4.2,4.1-8.3,8.2-12.5,12.3c-0.6,0.6,0.1,1-0.7-0.2c-1.1-1.6-2.2-3.1-3.3-4.7c-1.7-2.4-3.4-4.8-5.1-7.2
			c-0.1-0.2-0.2-0.3-0.4-0.4c-4.2,4.1-8.3,8.2-12.5,12.3c-0.6,0.6,0.1,1-0.7-0.2c-1.1-1.6-2.2-3.1-3.3-4.7c-1.7-2.4-3.4-4.8-5.1-7.2
			c-0.1-0.2-0.2-0.3-0.4-0.4c-4.2,4.1-8.3,8.2-12.5,12.3c-0.6,0.6,0.1,1-0.7-0.2c-1.1-1.6-2.2-3.1-3.3-4.7c-1.7-2.4-3.4-4.8-5.1-7.2
			c-0.1-0.2-0.2-0.3-0.4-0.4c-4.2,4.1-8.3,8.2-12.5,12.3c-0.6,0.6,0.1,1-0.7-0.2c-1.1-1.6-2.2-3.1-3.3-4.7c-1.7-2.4-3.4-4.8-5.1-7.2
			c-0.1-0.2-0.2-0.3-0.4-0.4c-4.2,4.1-8.3,8.2-12.5,12.3c-0.6,0.6,0.1,1-0.7-0.2c-1.1-1.6-2.2-3.1-3.3-4.7c-1.7-2.4-3.4-4.8-5.1-7.2
			c-0.1-0.2-0.2-0.3-0.4-0.4c-4.2,4.1-8.3,8.2-12.5,12.3c-0.6,0.6,0.1,1-0.7-0.2c-1.1-1.6-2.2-3.1-3.3-4.7c-1.7-2.4-3.4-4.8-5.1-7.2
			c-0.1-0.2-0.2-0.3-0.4-0.4c-4.2,4.1-8.3,8.2-12.5,12.3c-0.6,0.6,0.1,1-0.7-0.2c-1.1-1.6-2.2-3.1-3.3-4.7c-1.7-2.4-3.4-4.8-5.1-7.2
			c-0.1-0.2-0.2-0.3-0.4-0.4c-4.2,4.1-8.3,8.2-12.5,12.3c-0.6,0.6,0.1,1-0.7-0.2c-1.1-1.6-2.2-3.1-3.3-4.7c-1.7-2.4-3.4-4.8-5.1-7.2
			c-0.1-0.2-0.2-0.3-0.4-0.4c-4.2,4.1-8.3,8.2-12.5,12.3c-0.6,0.6,0.1,1-0.7-0.2c-1.1-1.6-2.2-3.1-3.3-4.7c-1.7-2.4-3.4-4.8-5.1-7.2
			c-0.1-0.2-0.2-0.3-0.4-0.4c-4.2,4.1-8.3,8.2-12.5,12.3c-0.6,0.6,0.1,1-0.7-0.2c-1.1-1.6-2.2-3.1-3.3-4.7c-1.7-2.4-3.4-4.8-5.1-7.2
			c-0.1-0.2-0.2-0.3-0.4-0.4c-4.2,4.1-8.3,8.2-12.5,12.3c-0.6,0.6,0.1,1-0.7-0.2c-1.1-1.6-2.2-3.1-3.3-4.7c-1.7-2.4-3.4-4.8-5.1-7.2
			c-0.1-0.2-0.2-0.3-0.4-0.4c-4.2,4.1-8.3,8.2-12.5,12.3c-0.6,0.6,0.1,1-0.7-0.2c-1.1-1.6-2.2-3.1-3.3-4.7c-1.7-2.4-3.4-4.8-5.1-7.2
			c-0.1-0.2-0.2-0.3-0.4-0.4c-2.2,2.3-4.4,4.5-6.6,6.8c-0.9,0.9-3.7,4.9-5.1,4.6c-9.9-2.3-19.9-4.6-29.7-7.1
			c13.7-12.5,31.8-19.5,49.5-24.4c17.4-4.8,35.4-7.5,53.4-8.8c12.4-0.9,24.8-0.4,37.2-0.2c58.7,0.8,117.4,1.7,176.2,2.5
			c6,0.1,12,0.2,18.1,0.3c2.7,0,3.6-0.1,5.8,1.3c2.6,1.6,5,3.5,7.3,5.5c1.5,1.3,2.9,2.8,4.3,4.3c0.7,0.8,1.4,1.8,2,2.7
			c0.2,0.3,0.4,0.6,0.6,0.9C-99,46.8-112.4,56.1-121.6,61.2z"/>
	</g>
</g>
<path id="XMLID_99_" class="st3" d="M1091.6,544H599.2c-47.6,0-86.3,36.5-86.3,81.8v0.4c0,45.4,38.7,82.8,86.3,82.8h492.4
	c47.6,0,86.3-37.4,86.3-82.8v-0.4C1177.9,580.5,1139.2,544,1091.6,544z M1167.9,626.3c0,39.9-34.2,72.8-76.3,72.8H599.2
	c-42.1,0-76.3-32.8-76.3-72.8v-0.4c0-39.9,34.2-71.8,76.3-71.8h492.6c42.1,0,76.1,31.9,76.1,71.8L1167.9,626.3L1167.9,626.3z"/>
<g id="XMLID_141_">
	<path id="XMLID_146_" class="st0" d="M-406,198.4c-0.3-0.2-0.5-0.3-0.6-0.3C-406.4,198.2-406.2,198.3-406,198.4z"/>
	<path id="XMLID_145_" class="st1" d="M-58.4,155.1c-5.2,0-10.3,0-15.5,0c-63.4-0.1-126.9-0.1-190.3-0.2
		c-65.6-0.1-131.2-0.1-196.8-0.1c-7.9,0-15.8,0-23.7,0c-5,0-10.5-0.7-5,5.5c2.5,2.8,5.2,3,9.4,3.3c3.5,0.3,7.1,0.3,10.6,0.4
		c5.2,0.2,9.3,1.2,13.8,3.4c3.1,1.5,8.2,3.9,7.1,7.6c-0.7,2.4-2.8,4-5.4,5c-9.2,3.4-33.2,1.6-36.1,12.1c5.6,0.8,11.3,1.6,16.9,2.3
		c1.8,0.2,8.4,2.8,8.8,4.4c0.3,1.2,0.7,2.5,1.3,3.6c0.8-0.1,1.5-0.3,2.2-0.6c1.2-0.9,1.3-1.7,1.4-3v-0.1c4.6-1.6,17.7,3.1,18.9,2.4
		c2.9-1.9,2.5-4.2,3.3-6.9l0.2-0.1c4.8,0.5,17.6,6,18.7,5.2c2.3-1.7,1.9-3.3,2.6-5.6h0.2c5.2,0.8,17.5,6.4,18.6,5.6
		c2.3-1.7,1.9-3.4,2.6-5.6h0.2c5.2,0.9,17.4,6.4,18.6,5.6c2.3-1.7,1.8-3.4,2.6-5.6h0.2c5.2,0.9,17.4,6.4,18.6,5.6
		c2.3-1.7,1.8-3.4,2.6-5.6h0.2c5.2,0.9,17.4,6.4,18.6,5.6c2.3-1.7,1.8-3.4,2.6-5.6h0.2c5.2,0.9,17.4,6.4,18.6,5.6
		c2.3-1.7,1.8-3.4,2.6-5.6h0.2c5.2,0.9,17.4,6.4,18.6,5.6c2.3-1.7,1.8-3.4,2.6-5.6h0.2c5.2,0.9,17.4,6.4,18.6,5.6
		c2.3-1.7,1.8-3.4,2.6-5.6h0.2c5.2,0.9,17.4,6.4,18.6,5.6c2.3-1.7,1.8-3.4,2.6-5.6h0.2c5.2,0.9,17.4,6.4,18.6,5.6
		c2.3-1.7,1.8-3.4,2.6-5.6h0.2c5.2,0.9,17.4,6.4,18.6,5.6c2.3-1.7,1.8-3.4,2.6-5.6h0.2c5.2,0.9,17.4,6.4,18.6,5.6
		c2.3-1.7,1.8-3.4,2.6-5.6h0.2c4.9,0.8,9.6,3.4,13.6,6c2.1-1.2,5-2.4,7-3.6c0.2-0.7,0.3-1.5,0.6-2.4h0.2c0.8,0.1,1.5,0.3,2.3,0.5
		c1-0.6,2-1.2,3-1.8c9.2-5.5,18.5-11,27.7-16.5c3.2-1.9,5.6-4,9.5-4.2c11.5-0.6,22,1.3,32,6.3c4.5,2.3,7.6,5.3,9.4,8.4
		c0-0.1-0.1-0.1-0.1-0.2C-63.2,178.8-57,168-58.4,155.1z"/>
	<path id="XMLID_142_" d="M-500.7,151.3c-1.2,6.4,12.3,12.3,17.5,14.2c4.9,1.8,9.9,2.5,15.3,2.8c2.8,0.1,5.6,0.1,8.5,0.2
		c0.6,0,1.2,0.1,1.9,0.1c0,0.2,0.1,0.4,0.1,0.7c0.1,5-6.6,6.9-11.3,7.8c-9.7,2-31.9,1.1-30.6,13.7c0.2,1.5,7.2,4.2,8.8,4.4
		c6.2,0.9,12.3,1.7,18.5,2.6c1.3,2.4,3.5,4.3,6.4,5.8c3.8,2,14.9,6.7,15.2-0.5c0,0,0,0,0-0.1c0.4-0.1,11.6,3.8,15.4,3.4
		c5.4-0.6,5.5-3.6,6.7-7.3c0-0.2,0.1-0.3,0.2-0.3c0.1,0.1,0.3,0.2,0.4,0.3c2.1,1.4,4.5,2.5,6.8,3.6c3.2,1.4,6.4,2.4,10,1.8
		c2.1-0.4,3.2-2,3.9-3.6c0.3-0.8,0.1-1.6,0.3-2.3c4.6,3.6,15.5,9,20.3,3.9c0.3-0.3,1.2-2.7,1.3-3.8c0.3,0.2,0.6,0.4,1,0.6
		c3.6,2.2,7.7,4.2,12.1,5.1c4.1,0.8,7.2-1,8-4.3c-0.1,0.1,0-0.9,0.1-1.6c1.5,1.1,3.3,2,5,2.9c3.4,1.7,7.1,3.3,11.1,3.1
		c1.8-0.1,3.1-0.9,4.1-2c0.8-0.9,0.6-2.9,1.1-3.8c0.7,0.4,1.6,0.8,2.1,1.1c2,1.1,4,2.1,6.2,3c3.4,1.4,7.3,2.5,10.8,0.8
		c2.1-1,2.4-3.3,2.5-5.1c3.5,2.3,7.5,4.4,11.7,5.5c3.5,1,7.2,0.6,9-2.3c0.5-0.8,0.2-2.3,0.5-3c0.9,0.5,2.3,1.2,2.9,1.6
		c3.5,1.9,7.3,3.8,11.4,4.3c5.4,0.7,6.1-2.7,7.2-6l0,0c0-0.1,0.1-0.2,0.1-0.3c0.4-1.1,4.2,2.8,6.2,3.7c3.5,1.6,7,3,11,2.3
		c2.1-0.4,3.2-1.9,3.9-3.5c0.3-0.8,0.1-1.5,0.3-2.3l0,0c0-0.1,0-0.2,0.1-0.3c0.4-1.1,6.7,4.1,10,5.3c3.2,1.1,6.8,1.6,9.6-0.4
		c1.7-1.2,1.3-3,1.7-4.6l0,0l0,0c0-0.1,1,0.7,1.2,0.8c5.1,3.1,17.9,9.5,20.1,0.8c-0.1,0.1,0-0.9,0.1-1.5c1.2,0.9,2.5,1.6,3.9,2.3
		c3.7,1.9,7.8,4,12.3,3.7c1.8-0.1,3.1-0.9,4.1-2c0.3-0.3,1.2-2.7,1.3-3.8c0.3,0.2,0.6,0.4,1,0.6c2.2,1.3,4.6,2.5,7,3.5
		c3.1,1.3,6.5,2.3,10,1.2c2-0.6,3.1-4.8,3.3-5.5c1,0.7,2.3,1.5,3.8,2.3c0.5-0.3,1.1-0.6,1.6-1c-0.2-0.1-0.3-0.2-0.5-0.3
		c-4-2.6-8.7-5.1-13.6-6h-0.2c-0.8,2.2-0.3,3.9-2.6,5.6c-1.1,0.8-13.4-4.7-18.6-5.6h-0.2c-0.8,2.2-0.3,3.9-2.6,5.6
		c-1.1,0.8-13.4-4.7-18.6-5.6h-0.2c-0.8,2.2-0.3,3.9-2.6,5.6c-1.1,0.8-13.4-4.7-18.6-5.6h-0.2c-0.8,2.2-0.3,3.9-2.6,5.6
		c-1.1,0.8-13.4-4.7-18.6-5.6h-0.2c-0.8,2.2-0.3,3.9-2.6,5.6c-1.1,0.8-13.4-4.7-18.6-5.6h-0.2c-0.8,2.2-0.3,3.9-2.6,5.6
		c-1.1,0.8-13.4-4.7-18.6-5.6h-0.2c-0.8,2.2-0.3,3.9-2.6,5.6c-1.1,0.8-13.4-4.7-18.6-5.6h-0.2c-0.8,2.2-0.3,3.9-2.6,5.6
		c-1.1,0.8-13.4-4.7-18.6-5.6h-0.2c-0.8,2.2-0.3,3.9-2.6,5.6c-1.1,0.8-13.4-4.7-18.6-5.6h-0.2c-0.8,2.2-0.3,3.9-2.6,5.6
		c-1.1,0.8-13.4-4.8-18.6-5.6h-0.2c-0.7,2.2-0.3,4-2.6,5.6c-1.1,0.8-13.4-4.7-18.6-5.6h-0.2c-0.8,2.3-0.3,3.9-2.6,5.6
		c-1.2,0.8-13.9-4.7-18.7-5.2l-0.2,0.1c-0.8,2.7-0.5,5-3.3,6.9c-1.2,0.8-14.3-4-18.9-2.4v0.1c-0.1,1.3-0.2,2.1-1.4,3
		c-0.7,0.3-1.4,0.6-2.2,0.6c-0.6-1.2-1.1-2.4-1.3-3.6c-0.4-1.6-7-4.2-8.8-4.4c-5.6-0.8-11.3-1.6-16.9-2.3
		c2.9-10.5,26.9-8.7,36.1-12.1c2.6-1,4.7-2.6,5.4-5c1.1-3.7-4-6-7.1-7.6c-4.5-2.2-8.6-3.2-13.8-3.4c-3.5-0.1-7.1-0.1-10.6-0.4
		c-4.2-0.3-6.9-0.5-9.4-3.3c-5.5-6.2,0-5.5,5-5.5c7.9,0,15.8,0,23.7,0c65.6,0,131.2,0.1,196.8,0.1c63.4,0,126.9,0.1,190.3,0.2
		c5.2,0,10.3,0,15.5,0c1.4,12.9-4.8,23.7-16.4,31.2c0,0.1,0.1,0.1,0.1,0.2c1.4,2.5,2.1,5.2,2.2,7.9c17.2-7.9,26.4-22.2,22.4-39.3
		c-0.2-0.9-2.5-1.8-3.7-2.3c-1.5-0.8-3.6-2.1-5.1-2.1c-41.4,0-82.8-0.1-124.2-0.1c-73.8-0.1-147.6-0.1-221.4-0.2
		c-25.4,0-50.9,0-76.3,0c-5.7,0-11.4,0-17.2,0C-499.1,150.4-500.5,150.1-500.7,151.3z M-406.6,198.1c0.1,0,0.3,0.1,0.6,0.3
		C-406.2,198.3-406.4,198.2-406.6,198.1z"/>
</g>
</svg>
