<?xml version="1.0" encoding="utf-8"?>
<!-- Generator: Adobe Illustrator 19.0.0, SVG Export Plug-In . SVG Version: 6.00 Build 0)  -->
<svg version="1.1" id="Camada_1" xmlns="http://www.w3.org/2000/svg" xmlns:xlink="http://www.w3.org/1999/xlink" x="0px" y="0px"
	 viewBox="-448 352.7 381.7 96.3" style="enable-background:new -448 352.7 381.7 96.3;" xml:space="preserve">
<style type="text/css">
	.st0{fill:#FFFFFF;}
</style>
<g id="XMLID_109_">
	<g id="XMLID_111_">
		<path id="XMLID_115_" class="st0" d="M-434.7,419.5c2.3,2.4,4.6,4.7,7.1,6.8c9.9,8.3,21.8,15.1,34.6,17.4c7.2,1.3,14.7,1,22,1
			c58.2,0.2,116.4,0,174.5-0.2c40.2-0.1,80.3-0.2,120.5-0.3c1.7-11.1,2-22.6,1.2-33.7c-1.4-20.2-7.2-42.6-25.7-53.6
			c-41.2,1.2-82.5,2.2-123.8,3.3c-30.7,0.8-61.5,1.6-92.2,2.4c-10.2,0.3-20.3,0.5-30.5,0.8c-3.7,0.1-7.7,0.7-11.3,0.3
			c-5.9-0.6-12.3,0.7-18,2.3c-18,5-33.4,16.4-46.7,29.1c-5.1,5-10.1,10.2-14.7,15.6C-440.8,414.2-437.2,416.9-434.7,419.5z"/>
		<path id="XMLID_112_" d="M-448,417.3c13.4,17.3,34.3,31.2,56.8,31.6c6.3,0.1,12.5,0.1,18.8,0.1c26.3,0.1,52.6,0,78.9,0
			c62.3-0.1,124.5-0.2,186.8-0.4c10.1,0,20.2-0.1,30.4-0.1c1.4,0,7.5-2.7,7.8-4.1c2.3-12.4,2.7-25.3,1.9-37.8
			c-1.3-20.1-7.3-42.7-25.8-53.7c-0.3-0.2-0.7-0.2-1.2,0c-44.7,1.2-89.3,2.3-134,3.5c-29.7,0.8-59.5,1.6-89.2,2.3
			c-11.6,0.3-23.3,1.3-34.9,0.8c-11.5-0.4-23.4,3.8-33.7,8.5c-24.6,11.1-45.1,28.7-62.5,49.1L-448,417.3z M-437.7,410.7
			c4.7-5.4,9.6-10.6,14.8-15.5c13.4-12.8,28.7-24.1,46.7-29.1c5.6-1.6,12.1-2.9,18-2.3c3.7,0.4,7.7-0.2,11.3-0.3
			c10.2-0.3,20.3-0.5,30.5-0.8c30.7-0.8,61.5-1.6,92.2-2.4c41.3-1.1,82.6-2.2,123.9-3.2c18.5,11,24.3,33.5,25.7,53.6
			c0.8,11.1,0.5,22.6-1.2,33.7c-40.2,0.1-80.3,0.2-120.5,0.3c-58.2,0.1-116.4,0.4-174.5,0.2c-7.3,0-14.8,0.3-22-1
			c-12.8-2.3-24.7-9.2-34.6-17.4c-2.5-2.1-4.9-4.4-7.1-6.8C-437.2,416.9-440.8,414.2-437.7,410.7z"/>
	</g>
</g>
</svg>
