<?xml version="1.0" encoding="utf-8"?>
<!-- Generator: Adobe Illustrator 19.0.0, SVG Export Plug-In . SVG Version: 6.00 Build 0)  -->
<svg version="1.1" id="Camada_1" xmlns="http://www.w3.org/2000/svg" xmlns:xlink="http://www.w3.org/1999/xlink" x="0px" y="0px"
	 viewBox="0 0 354.3 52.1" style="enable-background:new 0 0 354.3 52.1;" xml:space="preserve">
<style type="text/css">
	.st0{fill:none;}
	.st1{fill:#FFFFFF;}
	.st2{fill:none;stroke:#FF0000;stroke-width:3;stroke-miterlimit:10;}
	.st3{fill:#00FFFF;}
	.st4{opacity:0.21;fill:#FFFFFF;}
	.st5{opacity:0.21;}
	.st6{opacity:0.21;fill:none;stroke:#FF0000;stroke-width:3;stroke-miterlimit:10;}
</style>
<path id="XMLID_85_" class="st0" d="M1470.2-565.3c-0.1,0-0.2,0-0.3-0.1c-0.1,0.1-0.2,0.2-0.3,0.4
	C1468.1-563.1,1471.4-565,1470.2-565.3z"/>
<path id="XMLID_84_" class="st0" d="M1470.9-566.4c-0.4,0.4-0.7,0.7-0.9,1c0,0,0,0,0,0C1470.2-565.7,1470.5-566.1,1470.9-566.4z"/>
<path id="XMLID_83_" class="st0" d="M1470.2-528.3c-0.1,0-0.2,0-0.3-0.1c-0.2,0.2-0.3,0.4-0.5,0.6
	C1468.4-526.2,1471.3-528,1470.2-528.3z"/>
<polygon id="XMLID_82_" class="st0" points="1469.9,-528.3 1469.9,-528.3 1469.9,-528.3 "/>
<path id="XMLID_81_" class="st0" d="M1463.6-518.3c-0.1,0-0.2,0-0.3-0.1c-0.2,0.2-0.3,0.4-0.5,0.6
	C1461.5-515.9,1464.8-517.9,1463.6-518.3z"/>
<path id="XMLID_80_" class="st0" d="M882.5-383.2c-0.2,0.1-0.5,0.1-0.7,0.2c-2,0.7-0.6,1.3,0.7,0.1
	C882.5-383,882.5-383.1,882.5-383.2z"/>
<path id="XMLID_78_" class="st0" d="M1137.2-380.3c0,0.1,0,0.1,0,0.2C1137.3-380.3,1137.3-380.4,1137.2-380.3z"/>
<path id="XMLID_76_" class="st0" d="M1464.3-519.5c-0.5,0.5-0.8,0.8-1.1,1.1c0,0,0,0,0,0C1463.6-518.7,1463.9-519.1,1464.3-519.5z"
	/>
<path id="XMLID_75_" class="st0" d="M1470.4-676.3c-0.1,0.2-0.2,0.3-0.3,0.5C1470.3-676,1470.4-676.2,1470.4-676.3z"/>
<path id="XMLID_73_" class="st0" d="M1470.4-602.3c-0.1,0.2-0.1,0.4-0.2,0.6C1470.3-601.9,1470.4-602.1,1470.4-602.3z"/>
<path id="XMLID_72_" class="st0" d="M1470-528.4c0.3-0.3,0.6-0.6,0.9-0.9C1470.5-529,1470.2-528.7,1470-528.4z"/>
<path id="XMLID_71_" class="st1" d="M883-383.4c-0.2,0-0.4,0.1-0.5,0.2c0,0.1,0,0.2,0,0.3C882.7-383,882.8-383.2,883-383.4z"/>
<path id="XMLID_66_" d="M1469.9-565.4c-0.1,0.1-0.2,0.3-0.3,0.4C1469.7-565.2,1469.8-565.3,1469.9-565.4
	C1469.9-565.4,1469.9-565.4,1469.9-565.4z"/>
<path id="XMLID_65_" d="M1468.4-639.6c0,0,0.1,0,0.4,0.1C1468.6-639.6,1468.5-639.6,1468.4-639.6z"/>
<path id="XMLID_63_" d="M1468.3-509.9c0,0,0.1,0,0.4,0.1C1468.6-509.9,1468.4-509.9,1468.3-509.9z"/>
<path id="XMLID_62_" d="M1468.3-472.9c0.1,0,0.2,0,0.3,0.1C1468.6-472.8,1468.5-472.8,1468.3-472.9z"/>
<path id="XMLID_61_" d="M1463.2-518.3c-0.2,0.2-0.4,0.4-0.5,0.6C1462.9-517.9,1463.1-518.1,1463.2-518.3
	C1463.2-518.3,1463.2-518.3,1463.2-518.3z"/>
<path id="XMLID_51_" d="M1469.9-528.3c-0.2,0.3-0.4,0.5-0.5,0.6C1469.6-527.9,1469.7-528.1,1469.9-528.3
	C1469.9-528.3,1469.9-528.3,1469.9-528.3z"/>
<path id="XMLID_47_" class="st1" d="M1136.5-379.6c0.4-0.3,0.6-0.5,0.7-0.6c0-0.1,0-0.1,0-0.2C1137.1-380.3,1136.8-380,1136.5-379.6
	z"/>
<path id="XMLID_94_" class="st1" d="M1242.7-367.6c-0.1,0.2-0.2,0.6-0.3,1c-0.1,0.5-0.1,1-0.1,1.5c0,1.4,0.1,2.7,0.3,4.1
	c0.5,3,1.3,6,2.4,8.9c2.9,7.8,7,15.1,12.1,21.7c11.3,14.7,27.5,25.8,45.5,27.9c0-16.2,0-32.3,0-48.5c0-1,2.8-7.2,3.9-7.2
	c10.5,0,21.1,0,31.6,0c7.1,0,14.1,0,21.2,0c2.5,0,5.3,0.1,7.8,0.5c15.2,2.5,19.9,19.7,13.1,32.3c-3.5,6.5-7.9,11-15.5,12.1
	c-5.9,0.8-12,0.7-18,0.6c1.4,2.2,3.2,3.8,5.2,5.4c6.3,4.9,13.6,5.2,21.3,5.2c51.1,0,102.2,0,153.3,0c-2.9-26-5.9-53-8.8-80
	c-17,0-34.1,0-51.1,0c-58.7,0-117.4,0-176.1,0c-5.4,0-10.7,0-16.1,0c-2.8,0-6.1,1.6-8.7,2.5C1257.9-377.3,1248.3-373.9,1242.7-367.6
	z"/>
<path id="XMLID_21_" d="M1245-337.2c11.2,21.9,32.4,40.4,57.8,41.4c1,0,3.8-5.3,3.8-6.3c0-16.3,0-33.2,0-49.2c18,0,36.9,0,55.4,0
	c9.8,0,16.8,9.1,17.5,18.3c0.2,2.3-0.1,4.8-0.5,7.1c-0.3,0.8-0.5,1.4-0.5,1.7c-0.5,0.5-1.2,1-1.8,1.5c-2.8,2.1-6.5,2.8-10,3.2
	c-7.5,0.8-15.3,0.2-22.8,0.2c-1,0-4,5.3-3.8,6.3c2.9,13.1,16,17.8,28,17.8c12,0,24,0,36.1,0c33.5,0,66.9,0,100.4,0
	c7.5,0,15.1,0,22.6,0c1,0,3.9-5.2,3.8-6.1c-3.2-29-6.4-57.9-9.5-86.9c0,0.2-0.4,0.3-0.9,1c0.3-0.9,0.6-1.9,0.9-1.9
	c-46.3,0-92.5,0-138.8,0c-28,0-56,0-84,0c-6.5,0-13,0-19.6,0c-1.4,0-2.6,0.7-4,1.1c-7.3,1.8-14.5,4.6-21.1,8.2
	c-7,3.8-14.5,11.5-15.4,19.9C1237.7-352.4,1241.7-343.8,1245-337.2z M1274.3-382.2c5.4,0,10.7,0,16.1,0c58.7,0,117.4,0,176.1,0
	c17,0,34.1,0,51.1,0c2.9,27,5.9,54,8.8,80c-51.1,0-102.2,0-153.3,0c-7.7,0-15-0.2-21.3-5.2c-2-1.5-3.7-3.3-5.2-5.6
	c6,0.1,12.1,0.4,18-0.4c7.6-1,12-5.4,15.5-11.9c6.8-12.6,2.1-30-13.1-32.5c-2.5-0.4-5.3-0.5-7.8-0.5c-7.1,0-14.1,0-21.2,0
	c-10.5,0-21.1,0-31.6,0c-1.1,0-3.9,6.2-3.9,7.2c0,16.2,0,32.3,0,48.5c-18-2-34.2-13.2-45.5-27.9c-5.1-6.6-9.2-13.9-12.1-21.7
	c-1.1-2.9-1.9-5.9-2.4-8.9c-0.2-1.3-0.3-2.7-0.3-4.1c0-0.5,0.1-1,0.1-1.5c0-0.4,0.2-0.8,0.3-1c5.6-6.3,15.2-9.8,22.9-12.2
	C1268.2-380.6,1271.5-382.2,1274.3-382.2z"/>
<path id="XMLID_18_" d="M286-834.2c11.2,21.9,32.4,40.4,57.8,41.4c1,0,3.8-5.3,3.8-6.3c0-16.3,0-33.2,0-49.2c18,0,36.9,0,55.4,0
	c9.8,0,16.8,9.1,17.5,18.3c0.2,2.3-0.1,4.8-0.5,7.1c-0.3,0.8-0.5,1.4-0.5,1.7c-0.5,0.5-1.2,1-1.8,1.5c-2.8,2.1-6.5,2.8-10,3.2
	c-7.5,0.8-15.3,0.2-22.8,0.2c-1,0-4,5.3-3.8,6.3c2.9,13.1,16,17.8,28,17.8c12,0,24,0,36.1,0c33.5,0,66.9,0,100.4,0
	c7.5,0,15.1,0,22.6,0c1,0,3.9-5.2,3.8-6.1c-3.2-29-6.4-57.9-9.5-86.9c0,0.2-0.4,0.3-0.9,1c0.3-0.9,0.6-1.9,0.9-1.9
	c-46.3,0-92.5,0-138.8,0c-28,0-56,0-84,0c-6.5,0-13,0-19.6,0c-1.4,0-2.6,0.7-4,1.1c-7.3,1.8-14.5,4.6-21.1,8.2
	c-7,3.8-14.5,11.5-15.4,19.9C278.7-849.4,282.7-840.8,286-834.2z M315.3-879.2c5.4,0,10.7,0,16.1,0c58.7,0,117.4,0,176.1,0
	c17,0,34.1,0,51.1,0c2.9,27,5.9,54,8.8,80c-51.1,0-102.2,0-153.3,0c-7.7,0-15-0.2-21.3-5.2c-2-1.5-3.7-3.3-5.2-5.6
	c6,0.1,12.1,0.4,18-0.4c7.6-1,12-5.4,15.5-11.9c6.8-12.6,2.1-30-13.1-32.5c-2.5-0.4-5.3-0.5-7.8-0.5c-7.1,0-14.1,0-21.2,0
	c-10.5,0-21.1,0-31.6,0c-1.1,0-3.9,6.2-3.9,7.2c0,16.2,0,32.3,0,48.5c-18-2-34.2-13.2-45.5-27.9c-5.1-6.6-9.2-13.9-12.1-21.7
	c-1.1-2.9-1.9-5.9-2.4-8.9c-0.2-1.3-0.3-2.7-0.3-4.1c0-0.5,0.1-1,0.1-1.5c0-0.4,0.2-0.8,0.3-1c5.6-6.3,15.2-9.8,22.9-12.2
	C309.2-877.6,312.5-879.2,315.3-879.2z"/>
<line id="XMLID_1_" class="st2" x1="1159.6" y1="-342.7" x2="1526.6" y2="-342.7"/>
<g id="XMLID_16_">
	<g id="XMLID_3_">
		<path id="XMLID_70_" class="st1" d="M892.1-382.8c-2.3,0.1-4.8,0.2-7.2,0.6c0.4,1.7,1,3.4,1.9,5c1.1,2,0.9,1.8,3,1.9
			c5.9,0.4,12.3,3,14.7,8.9c3.4,8.1,1.5,17.9-2.8,25.3c-3,5.1-6.8,9.5-12.9,10.5c-7.1,1.1-15-0.1-21.9-1.3
			c-22.9-4.1-43.5-16.7-66.7-19.2c-5.3-0.6-11.3-1.6-16.4,0.5c-4.5,1.8-8.4,4.6-12,7.8c-3.6,3.1-7.1,6.5-10.1,10.1
			c0,0.6,0,1.1,0,1.7c0,2.6,0,5.2,0,7.8c0,2.7,2.6,4.3,4.6,5.7c7.4,5.1,15.8,8.9,24.2,12c5.3,2,9.2,3.5,14.6,3.5
			c21.2,0,42.4,0,63.6,0c48.5,0,97,0,145.6,0c3.5,0,7.3,0.1,9.9-2.6c0.1-0.2,0.2-0.5,0.3-0.8c0.4-1.1,0.7-2.3,0.9-3.5
			c0.4-2.2,0.8-4.4,0.9-6.7c0.9-11.4-0.3-22.9-2-34.2c-1.1-7.5-2.5-15-4.1-22.4c-7.3-0.4-14.6-0.9-21.8-1.4c-4.5-2.8-9-5.5-13.5-8.3
			c-17.2-0.6-34.5-1-51.7-1.2C919.3-383.5,905.7-383.7,892.1-382.8z"/>
		<path id="XMLID_4_" d="M1020-372.4c1.6,7.4,3,14.9,4.1,22.4c1.7,11.2,2.9,22.8,2,34.2c-0.2,2.2-0.5,4.4-0.9,6.6
			c-0.2,1.2-0.5,2.3-0.9,3.5c-0.1,0.2-0.2,0.6-0.3,0.8c-2.5,2.7-6.4,2.6-9.9,2.6c-48.5,0-97,0-145.6,0c-21.2,0-42.4,0-63.6,0
			c-5.4,0-9.3-1.6-14.6-3.5c-8.4-3.1-16.8-6.8-24.1-11.9c-2-1.4-4.6-3-4.6-5.8c0-2.6,0-5.2,0-7.8c0-0.6,0-1.1,0-1.7
			c3-3.6,6.5-6.9,10.1-10.1c3.6-3.1,7.6-6,12-7.8c5.1-2.1,11.1-1.1,16.4-0.5c23.2,2.5,43.8,15.1,66.7,19.2c7,1.2,14.8,2.4,21.9,1.3
			c6.2-0.9,10-5.3,12.9-10.5c4.3-7.4,6.1-17.2,2.8-25.3c-2.4-5.9-8.8-8.5-14.7-8.9c-2-0.1-1.9,0.1-3-1.9c-0.9-1.6-1.5-3.3-1.9-5
			c2.4-0.4,4.9-0.4,7.2-0.6c13.6-0.9,27.3-0.6,40.9-0.5c17.2,0.2,34.5,0.7,51.7,1.2c-3.8-2.3-7.6-4.7-11.4-7
			c-19.2-0.6-38.5-0.9-57.8-0.8c-9.5,0.1-20.2-0.7-29.5,1.7c-2.8,0.7-5.3,4.8-5.6,7.5c-0.4,3.9,1.6,8.6,3.7,11.8
			c0.2,0.3,4,0.2,4.5,0.3c6.1,0.9,10.9,4.6,12.9,10.5c1.6,4.6,1,10.3-0.1,15c-0.7,2.9-3.9,4.5-6.6,5.4c-4.1,1.4-9.1,0.7-13.2,0.5
			c-11.3-0.6-22.3-3.5-32.9-7.2c-9.4-3.2-18.5-7.1-28-9.8c-9.2-2.7-20.7-5.5-30.3-3.8c-7.5,1.3-14.1,7.5-19.4,12.6
			c-2.4,2.3-4.7,4.8-6.9,7.3c-0.8,0.9-1.5,1.8-2.3,2.7c-0.7,0.8-0.3,0.6-0.3,0.6c0,1-3.8,4.1-3.8,6.2v0c0,1.2,0,2.4,0,3.7
			c0,2.6,0,5.2,0,7.8c0,2.9,1.6,3.7,3.8,5.4c7.6,5.9,17.1,9.4,26,12.7c5.9,2.2,9.4,2.9,15.4,2.9c24.5,0,48.9,0,73.4,0
			c44.7,0,89.4,0,134.1,0c10.8,2,16.4-9.8,18.4-18.6c3.2-13.4,1-28.3-1-41.7c-0.8-5.2-1.7-10.4-2.7-15.5
			C1023.5-372.2,1021.7-372.3,1020-372.4z M881.8-381.5c0.2-0.1,0.4-0.1,0.7-0.2c0.2-0.1,0.3-0.1,0.5-0.2c-0.2,0.2-0.3,0.4-0.5,0.5
			C881.2-380.2,879.8-380.8,881.8-381.5z"/>
	</g>
	<line id="XMLID_5_" class="st2" x1="1030.6" y1="-342.7" x2="663.6" y2="-342.7"/>
</g>
<g id="XMLID_15_">
	<g id="XMLID_6_">
		<path id="XMLID_46_" class="st1" d="M1106.1-375.4c8,0,16.3,0,24.1-1.7c1.8-0.4,3.8-0.9,5.5-1.9c0-0.1,0-0.1,0-0.2
			c-0.4-2-1-1.8-3-2c-2.1-0.2-4.3-0.5-6.4-1c-5.3-1.1-10.6-2.7-15.7-4.6c-13.6-4.9-26.6-11.2-39.4-17.7c-34-17.4-66.9-37-100-56
			c-34.9-20-70-40.1-106.6-57c-25.5-11.8-53.8-24.5-82.4-26c16.9,39.8,56.2,62.8,91.6,84.6c42.4,26.2,84.9,52.3,127.3,78.5
			C1036-378.1,1071.1-375.3,1106.1-375.4z"/>
		<path id="XMLID_7_" d="M1127.5-387.6c-12.1-2.7-23.7-7.7-34.9-12.9c-15.1-6.9-29.8-14.8-44.4-22.8
			c-35.1-19.3-69.5-39.9-104.4-59.5c-29.4-16.5-59.3-32.6-90.3-46c-22.9-9.9-48.1-19.7-73.4-19.9c-0.7,0-3.2,4.4-2.9,5.1
			c18,49.9,70.9,75.9,113.4,102c27.6,17,55.2,34,82.8,51c3.8,2.3,7.6,4.7,11.4,7c4.5,2.8,9,5.5,13.5,8.3c7.3,0.5,14.6,0.9,21.8,1.4
			c1.7,0.1,3.5,0.2,5.2,0.3c17.4,1,34.7,2,52.1,2.7c14.5,0.6,29.2,1.2,43.6-0.2c6.3-0.6,12.6-1.5,16-7.4c1.2-2.1,2.2-4,1.6-6.5
			C1137.9-387,1129.8-387.1,1127.5-387.6z M1001.1-380.3c-42.4-26.2-84.9-52.3-127.3-78.5c-35.4-21.8-74.7-44.8-91.6-84.6
			c28.6,1.6,56.9,14.2,82.4,26c36.6,16.9,71.7,36.9,106.6,57c33.1,19,66,38.6,100,56c12.8,6.6,25.9,12.8,39.4,17.7
			c5.1,1.9,10.3,3.5,15.7,4.6c2.1,0.4,4.2,0.8,6.4,1c2,0.2,2.6,0,3,2c0,0.1,0,0.1,0,0.2c-1.7,1-3.6,1.5-5.5,1.9
			c-7.8,1.7-16.1,1.7-24.1,1.7C1071.1-375.3,1036-378.1,1001.1-380.3z M1137.2-380.2c-0.1,0.1-0.3,0.3-0.7,0.6
			c0.3-0.5,0.6-0.7,0.7-0.8C1137.3-380.4,1137.3-380.3,1137.2-380.2z"/>
	</g>
	<line id="XMLID_8_" class="st2" x1="737.2" y1="-570.2" x2="1065.6" y2="-371.4"/>
</g>
<g id="XMLID_14_">
	<g id="XMLID_9_">
		<path id="XMLID_10_" class="st1" d="M931.5-634.9c14.1,13.7,28.5,27.1,43.3,40.1c4.8,4.3,9.7,8.5,14.6,12.7c1.3,1.1,6,3.9,6.1,5.6
			c0.1,0.9,0.1,1.9,0.2,2.8c0.4,4.4,1.1,8.7,1.8,13.1c6.1,34.4,16.3,68.3,26.3,101.7c6.2,21,12.6,41.9,19.4,62.7
			c4.4,2.8,9.8,4.4,15.1,5.4c-1.5-5.2-3.1-10.3-4.6-15.5c-8.7-29.2-17.4-58.4-26.1-87.7c-3.6-12.1-7.2-24.3-10.8-36.4
			c-0.9-3-1.8-6-2.7-9c-0.8-2.8,0.3-5.9,0.9-8.7c1.3-5.9,2.8-15.1,8.4-18.5c-0.1,0-0.1,0-0.2,0c0.1,0,0.2-0.1,0.4-0.1
			c0.9-0.5,1.8-0.9,2.9-1c8.2-1.5,18,2,25.7,4.6c1.8,0.6,3.3,2.3,4.8,3.5c4.4,3.5,8.8,6.9,13.3,10.3c13.1,10.2,26.2,20.3,39.5,30.3
			c10.3,7.8,20.5,16,31.5,22.8c0.7,0.4,1.3,0.8,2,1.2c0.6,0.3,1.3,0.6,1.9,0.8c1,0.3,1.1,0.6,1.1,0.8c0-0.1,0.1-0.2,0.3-0.3
			c2-2.2,2.4-6.5,0-8.7c-1.5-1.4-3.2-2.7-4.7-4c-8.9-7.4-17.8-14.8-26.7-22.2c-23.9-19.8-47.7-39.5-71.6-59.2
			c-5.3-4.4-10.6-8.8-15.9-13.1c-1.3-1.1-1.6-7.4-1.9-9c-1.8-8.6-3.6-17.1-5.5-25.7c-2.3-10.8-4.7-21.5-7.2-32.2
			c-2.4-10.2-4-21.4-8.2-31.1c-6.3-14.7-19.2-26.8-33.9-33.5c6.7,33.9,13.4,67.7,20.2,101.6c0.1,0.4-5.3,1.7-5.9,1.2
			c-24.9-20.4-49.9-40.7-75.4-60.4C908-669,916.5-649.4,931.5-634.9z M1021.6-596.4c2.1,7.9-2.4,13.2-9.7,15.1
			c-6.5,1.7-14.2-0.1-16.2-7.5C991.5-604.6,1016.3-611,1021.6-596.4z"/>
		<path id="XMLID_11_" d="M904.3-694c-2.9,18.6,2.3,37.7,13.8,52.6c1.6,2.1,3.5,3.8,5.3,5.6c6.9,6.7,13.9,13.4,20.9,20
			c10.9,10.2,22,20.1,33.2,29.9c3,2.6,6,5.1,9,7.6c2.1,1.8,3,2.1,3.2,4.7c0.2,2.8,0.6,5.5,0.9,8.3c2.2,15.2,6,30.3,9.8,45.1
			c10.7,42.1,23.4,83.9,36.9,125.2c0,0.1,0.1,0.1,0.2,0.1c6.3,3.9,14.3,5.5,21.6,6.5c0.6,0.1,5.9-0.8,5.8-1.3
			c-14-47.1-28-94.2-42-141.4c-1.1-3.5-2.1-7.1-3.2-10.6c-0.6-2,0.8-5.6,1.2-7.6c1.1-5.7,2.7-12.3,6.4-17c4.2,0.4,8.4,1.5,12.5,2.6
			c2,0.5,5.8,1.1,7.3,2.3c2.3,1.8,4.6,3.6,6.9,5.4c11.6,9.1,23.2,18.1,34.9,27c12.5,9.6,25,19.2,37.8,28.3c3.4,2.4,6.8,5,10.5,7
			c4.3,2.3,12.9,2.2,16-2.4c4.2-6.3-7.6-13.1-11.2-16.1c-10.4-8.6-20.8-17.3-31.2-25.9c-22.8-18.9-45.6-37.8-68.5-56.6
			c-2.6-2.1-8.6-5.2-9.3-8.8c-3-14.5-6.1-29-9.3-43.4c-2.2-9.9-4.4-19.8-6.8-29.7c-2.5-10.5-4.5-21.3-10.1-30.8
			c-7.8-13.3-22.4-24-37-28.9c-0.6-0.2-5.8,0.8-5.7,1.3c6.5,32.8,13,65.5,19.5,98.3c-24.2-19.8-48.6-39.4-73.3-58.5
			C909.6-695.7,904.5-694.6,904.3-694z M990.8-630.7c-6.7-33.9-13.4-67.7-20.2-101.6c14.7,6.7,27.6,18.8,33.9,33.5
			c4.2,9.6,5.8,20.9,8.2,31.1c2.5,10.7,4.9,21.5,7.2,32.2c1.9,8.5,3.7,17.1,5.5,25.7c0.3,1.6,0.6,7.9,1.9,9
			c5.3,4.4,10.6,8.7,15.9,13.1c23.9,19.7,47.8,39.5,71.6,59.2c8.9,7.4,17.8,14.8,26.7,22.2c1.6,1.3,3.2,2.6,4.7,4
			c2.4,2.2,2,6.6,0,8.7c-0.1,0.1-0.2,0.2-0.3,0.3c0-0.2-0.1-0.5-1.1-0.8c-0.7-0.2-1.3-0.5-1.9-0.8c-0.7-0.4-1.4-0.8-2-1.2
			c-11-6.8-21.2-15-31.5-22.8c-13.2-10-26.4-20.1-39.5-30.3c-4.4-3.4-8.8-6.9-13.3-10.3c-1.5-1.2-3-2.8-4.8-3.5
			c-7.7-2.6-17.5-6.1-25.7-4.6c-1.1,0.2-2,0.6-2.9,1c-0.1,0-0.2,0.1-0.4,0.1c0.1,0,0.1,0,0.2,0c-5.6,3.4-7.1,12.6-8.4,18.5
			c-0.6,2.8-1.7,5.9-0.9,8.7c0.9,3,1.8,6,2.7,9c3.6,12.1,7.2,24.3,10.8,36.4c8.7,29.2,17.4,58.4,26.1,87.7
			c1.5,5.2,3.1,10.3,4.6,15.5c-5.3-1-10.6-2.6-15.1-5.4c-6.8-20.8-13.2-41.7-19.4-62.7c-9.9-33.5-20.1-67.3-26.3-101.7
			c-0.8-4.3-1.4-8.7-1.8-13.1c-0.1-0.9-0.1-1.9-0.2-2.8c-0.1-1.7-4.8-4.5-6.1-5.6c-4.9-4.2-9.8-8.4-14.6-12.7
			c-14.7-13-29.1-26.4-43.3-40.1c-15-14.6-23.5-34.1-21.9-55c25.4,19.7,50.5,40,75.4,60.4C985.5-629,990.9-630.4,990.8-630.7z"/>
		<path id="XMLID_38_" class="st1" d="M1001.6-590.1c1.1,3,6.6,10.7,10.5,7.5c3.9-3.2,4.9-7.8,3.7-12.5c-1.1-3-6.6-10.7-10.5-7.5
			C1001.6-599.7,999.9-594.6,1001.6-590.1z"/>
		<path id="XMLID_12_" d="M995.7-588.8c2,7.5,9.7,9.2,16.2,7.5c7.3-1.9,11.8-7.2,9.7-15.1C1016.3-611,991.5-604.6,995.7-588.8z
			 M1005.2-602.6c3.9-3.2,9.4,4.5,10.5,7.5c1.2,4.7,0.2,9.4-3.7,12.5c-3.9,3.2-9.4-4.5-10.5-7.5
			C999.9-594.6,1001.6-599.7,1005.2-602.6z"/>
	</g>
	<line id="XMLID_13_" class="st2" x1="929.8" y1="-724.5" x2="1111.6" y2="-425.2"/>
</g>
<g id="XMLID_2_">
	<path id="XMLID_79_" class="st0" d="M1462.8-711.9c-0.1,0.2-0.2,0.3-0.3,0.5C1462.2-710.5,1462.9-710.6,1462.8-711.9z"/>
	<path id="XMLID_77_" class="st0" d="M1462.8-711.9c0.6-1,1.2-1.9,2-2.7c-1,1.1-1.6,1.9-2,2.5C1462.8-712,1462.8-712,1462.8-711.9z"
		/>
	<path id="XMLID_74_" class="st0" d="M1466.7-695.1C1466.1-694.3,1467.1-694.8,1466.7-695.1L1466.7-695.1z"/>
	<path id="XMLID_67_" class="st1" d="M1462.3-708.6C1460.7-706.9,1461.4-707.4,1462.3-708.6L1462.3-708.6z"/>
	<path id="XMLID_64_" d="M1462.8-712.1c-0.2,0.3-0.3,0.5-0.3,0.7c0.1-0.2,0.2-0.3,0.3-0.5C1462.8-712,1462.8-712,1462.8-712.1z"/>
	<g id="XMLID_17_">
		<path id="XMLID_60_" class="st0" d="M1488.2-717.7C1490-718.3,1489.1-720.1,1488.2-717.7L1488.2-717.7z"/>
		<path id="XMLID_59_" class="st1" d="M1462.8-418.8l0,0.2c-0.1,0.8-0.3,1.5-0.5,2.3c0.6,1,1.2,2,1.8,3c5.5,9.2,11,18.5,16.5,27.7
			c1.9,3.2,4,5.6,4.2,9.5c0.6,11.5-1.3,22-6.3,32c-2.3,4.5-5.1,7.5-8.2,9.3c7.5,11.6,18.4,17.8,31.2,16.4c0-5.2,0-10.3,0-15.5
			c0.1-63.4,0.1-126.9,0.2-190.3c0.1-65.6,0.1-131.2,0.1-196.8c0-7.9,0-15.8,0-23.7c0-5,0.7-10.5-5.5-5c-2.8,2.5-3,5.2-3.3,9.4
			c-0.3,3.5-0.3,7.1-0.4,10.6c-0.2,5.2-1.2,9.3-3.4,13.8c-1.5,3.1-3.9,8.2-7.6,7.1c-2.4-0.7-4-2.8-5-5.4
			c-3.4-9.2-1.6-33.2-12.1-36.1c-0.8,5.6-1.6,11.3-2.3,16.9c-0.2,1.8-2.8,8.4-4.4,8.8c-1.2,0.3-2.5,0.7-3.6,1.3
			c0.1,0.8,0.3,1.5,0.6,2.2c0.9,1.2,1.7,1.3,3,1.4c-0.5,0.9-0.9,1.8-1.4,2.7c0.8-1.5,1.5-2.7,1.4-2.8c1.6,4.6-0.8,10.4-3.3,14.3
			c0,0.2,0,0.3,0,0.5c0,1.4,0.2,3,1,4.2c1.9,2.9,4.2,2.5,6.9,3.3l0.2,0.2c-0.5,4.8-2.9,10.7-5.9,14.4c0,0,0,0,0,0
			c0,1.4-0.1,3.1,0.7,4.3c1.7,2.3,3.4,1.9,5.6,2.6l0,0.2c-0.8,5.2-3.7,10.2-6.4,14.3c0,1.4,0,3.1,0.8,4.3c1.7,2.3,3.4,1.9,5.6,2.6
			l0,0.2c-0.9,5.2-3.7,10.2-6.4,14.4c0,1.4,0,3.1,0.8,4.2c1.7,2.3,3.4,1.8,5.6,2.6l0,0.2c-0.9,5.2-3.7,10.2-6.4,14.4
			c0,1.4,0,3.1,0.8,4.2c1.7,2.3,3.4,1.8,5.6,2.6l0,0.2c-0.9,5.2-3.7,10.2-6.4,14.4c0,1.4,0,3.1,0.8,4.2c1.7,2.3,3.4,1.8,5.6,2.6
			l0,0.2c-0.9,5.2-3.7,10.2-6.4,14.3c0,1.4,0,3.1,0.8,4.2c1.7,2.3,3.4,1.8,5.6,2.6l0,0.2c-0.9,5.2-3.7,10.2-6.4,14.3
			c0,1.4,0,3.1,0.8,4.2c1.7,2.3,3.4,1.8,5.6,2.6l0,0.2c-0.9,5.2-3.7,10.2-6.4,14.3c0,1.4,0,3.1,0.8,4.2c1.7,2.3,3.4,1.8,5.6,2.6
			l0,0.2c-0.9,5.2-3.7,10.2-6.4,14.3c0,1.4,0,3.1,0.8,4.2c1.7,2.3,3.4,1.8,5.6,2.6l0,0.2c-0.9,5.2-3.7,10.2-6.4,14.3
			c0,1.4,0,3.1,0.8,4.2c1.7,2.3,3.4,1.8,5.6,2.6l0,0.2c-0.9,5.2-3.7,10.2-6.4,14.3c0,1.4,0,3.1,0.8,4.2c1.7,2.3,3.4,1.8,5.6,2.6
			l0,0.2c-0.9,5.2-3.7,10.2-6.4,14.3c0,1.4,0,3.1,0.8,4.2c1.7,2.3,3.4,1.8,5.6,2.6l0,0.2c-0.9,5.1-3.6,10-6.3,14.1
			c1.3,2.2,2.6,4.4,3.9,6.5C1461.2-419.2,1462-419.1,1462.8-418.8z"/>
		<path id="XMLID_20_" d="M1505.3-760.7c-6.4-1.2-12.3,12.3-14.2,17.5c-1.8,4.9-2.5,9.9-2.8,15.3c-0.1,2.8-0.1,5.6-0.2,8.5
			c0,0.6-0.1,1.2-0.1,1.9c-0.2,0-0.4,0.1-0.7,0.1c-5,0.1-6.9-6.6-7.8-11.3c-2-9.7-1.1-31.9-13.7-30.6c-1.5,0.2-4.2,7.2-4.4,8.8
			c-0.9,6.2-1.7,12.3-2.6,18.5c-2.4,1.3-4.3,3.5-5.8,6.4c-2,3.8-6.7,14.9,0.5,15.2c0,0,0,0,0.1,0c0.1,0.4,0.2,0.9,0.4,1.3
			c0.1,0.5,0.2,1,0.2,1.3c0.3-0.7,0.9-1.7,2-2.9c-0.8,0.9-1.4,2-1.9,3.1c0,1.5-0.6,1.6-0.3,0.6c-0.2,0.4-0.4,0.7-0.5,1.1
			c-1.6,3.1-3.5,7-3.1,10.8c0.6,5.4,3.6,5.5,7.3,6.7c0.2,0,0.3,0.1,0.3,0.2c-0.1,0.1-0.2,0.3-0.3,0.4c-1.4,2.1-2.5,4.5-3.6,6.8
			c-1.4,3.2-2.4,6.4-1.8,10c0.4,2.1,2,3.2,3.6,3.9c0.8,0.3,1.6,0.1,2.3,0.3c-3.6,4.6-9,15.5-3.9,20.3c0.3,0.3,2.7,1.2,3.8,1.3
			c-0.2,0.3-0.4,0.6-0.6,1c-2.2,3.6-4.2,7.7-5.1,12.1c-0.8,4.1,1,7.2,4.3,8c-0.1-0.1,0.9,0,1.6,0.1c-1.1,1.5-2,3.3-2.9,5
			c-1.7,3.4-3.3,7.1-3.1,11.1c0.1,1.8,0.9,3.1,2,4.1c0.9,0.8,2.9,0.6,3.8,1.1c-0.4,0.7-0.8,1.6-1.1,2.1c-1.1,2-2.1,4-3,6.2
			c-1.4,3.4-2.5,7.3-0.8,10.8c1,2.1,3.3,2.4,5.1,2.5c-2.3,3.5-4.4,7.5-5.5,11.7c-1,3.5-0.6,7.2,2.3,9c0.8,0.5,2.3,0.2,3,0.5
			c-0.5,0.9-1.2,2.3-1.6,2.9c-1.9,3.5-3.8,7.3-4.3,11.4c-0.7,5.4,2.7,6.1,6,7.2c0.2-0.3,0.5-0.7,0.9-1.1c-0.3,0.4-0.6,0.7-0.9,1.1
			c0.1,0,0.2,0.1,0.3,0.1c1.1,0.4-2,2.6-0.6,0.3c0,0,0,0.1-0.1,0.1c-1.2,1.8-2.2,3.8-3.1,5.7c-1.6,3.5-3,7-2.3,11
			c0.4,2.1,1.9,3.2,3.5,3.9c0.8,0.3,1.5,0.1,2.3,0.3c0.2-0.3,0.5-0.7,0.9-1.2c-0.3,0.4-0.6,0.8-0.9,1.2c0.1,0,0.2,0,0.3,0.1
			c1.1,0.4-1.8,2.4-0.7,0.6c-1.9,2.8-3.4,6.2-4.6,9.4c-1.1,3.2-1.6,6.8,0.4,9.6c1.2,1.7,3,1.3,4.6,1.7c0,0,0,0,0,0c0,0,0,0,0,0
			c0.1,0,0.2,0,0.3,0.1c1.1,0.4-1.7,2.4-0.8,0.7c-0.1,0.1-0.2,0.3-0.3,0.4c-3.1,5.1-9.5,17.9-0.8,20.1c-0.1-0.1,0.9,0,1.5,0.1
			c-0.9,1.2-1.6,2.5-2.3,3.9c-1.9,3.7-4,7.8-3.7,12.3c0.1,1.8,0.9,3.1,2,4.1c0.3,0.3,2.7,1.2,3.8,1.3c-0.2,0.3-0.4,0.6-0.6,1
			c-1.3,2.2-2.5,4.6-3.5,7c-1.3,3.1-2.3,6.5-1.2,10c0.6,2,2.4,2.8,4,3.1c-0.4-0.1,0.8,0,1.5,0.1c-0.7,1-1.5,2.3-2.3,3.8
			c0.3,0.5,0.6,1.1,1,1.6c2.7-4.1,5.4-9,6.3-14.1l0-0.2c-2.2-0.8-3.9-0.3-5.6-2.6c-0.8-1.1-0.9-2.8-0.8-4.2
			c2.7-4.2,5.6-9.2,6.4-14.3l0-0.2c-2.2-0.8-3.9-0.3-5.6-2.6c-0.8-1.1-0.9-2.8-0.8-4.2c2.7-4.2,5.6-9.2,6.4-14.3l0-0.2
			c-2.2-0.8-3.9-0.3-5.6-2.6c-0.8-1.1-0.9-2.8-0.8-4.2c2.7-4.2,5.6-9.2,6.4-14.3l0-0.2c-2.2-0.8-3.9-0.3-5.6-2.6
			c-0.8-1.1-0.9-2.8-0.8-4.2c2.7-4.2,5.6-9.2,6.4-14.3l0-0.2c-2.2-0.8-3.9-0.3-5.6-2.6c-0.8-1.1-0.9-2.8-0.8-4.2
			c2.7-4.2,5.6-9.2,6.4-14.3l0-0.2c-2.2-0.8-3.9-0.3-5.6-2.6c-0.8-1.1-0.9-2.8-0.8-4.2c2.7-4.1,5.6-9.2,6.4-14.3l0-0.2
			c-2.2-0.8-3.9-0.3-5.6-2.6c-0.8-1.1-0.9-2.8-0.8-4.2c2.7-4.2,5.6-9.2,6.4-14.3l0-0.2c-2.2-0.8-3.9-0.3-5.6-2.6
			c-0.8-1.1-0.9-2.8-0.8-4.2c2.7-4.2,5.6-9.2,6.4-14.4l0-0.2c-2.2-0.8-3.9-0.3-5.6-2.6c-0.8-1.1-0.9-2.8-0.8-4.2
			c2.7-4.2,5.6-9.2,6.4-14.4l0-0.2c-2.2-0.8-3.9-0.3-5.6-2.6c-0.8-1.1-0.9-2.8-0.8-4.2c2.7-4.2,5.6-9.2,6.4-14.4l0-0.2
			c-2.2-0.7-4-0.3-5.6-2.6c-0.8-1.1-0.9-2.8-0.8-4.3c2.7-4.1,5.6-9.2,6.4-14.3l0-0.2c-2.3-0.8-3.9-0.3-5.5-2.6
			c-0.8-1.2-0.7-2.9-0.7-4.3c0,0,0,0,0,0c3-3.7,5.4-9.6,5.9-14.4l-0.1-0.2c-2.7-0.8-5-0.5-6.9-3.3c-0.8-1.2-1-2.8-1-4.2
			c0-0.2,0-0.3,0-0.5c2.6-3.9,4.9-9.7,3.3-14.3c0.1,0.2-0.6,1.4-1.4,2.8c0.5-0.9,0.9-1.8,1.4-2.7c-1.3-0.1-2.1-0.2-3-1.4
			c-0.3-0.7-0.6-1.4-0.6-2.2c1.2-0.6,2.4-1.1,3.6-1.3c1.6-0.4,4.2-7,4.4-8.8c0.8-5.6,1.6-11.3,2.3-16.9c10.5,2.9,8.7,26.9,12.1,36.1
			c1,2.6,2.6,4.7,5,5.4c3.7,1.1,6-4,7.6-7.1c2.2-4.5,3.2-8.6,3.4-13.8c0.1-3.5,0.1-7.1,0.4-10.6c0.3-4.2,0.5-6.9,3.3-9.4
			c6.2-5.5,5.5,0,5.5,5c0,7.9,0,15.8,0,23.7c0,65.6-0.1,131.2-0.1,196.8c0,63.4-0.1,126.9-0.2,190.3c0,5.2,0,10.3,0,15.5
			c-12.9,1.4-23.7-4.8-31.2-16.4c-2.5,1.5-5.3,2.2-8.1,2.3c7.9,17.2,22.2,26.4,39.3,22.4c0.9-0.2,1.8-2.5,2.3-3.7
			c0.8-1.5,2.1-3.6,2.1-5.1c0-41.4,0.1-82.8,0.1-124.2c0.1-73.8,0.1-147.6,0.2-221.4c0-25.4,0-50.9,0-76.3c0-5.7,0-11.4,0-17.2
			C1506.2-759.1,1506.5-760.5,1505.3-760.7z M1488.2-717.7C1489.1-720.1,1490-718.3,1488.2-717.7L1488.2-717.7z M1453.5-704
			C1452.6-702.6,1451.9-701.9,1453.5-704L1453.5-704z M1457.8-688.3C1458.2-687.9,1457.2-687.4,1457.8-688.3L1457.8-688.3z
			 M1458.5-666.6c0,0.1-0.1,0.3-0.3,0.6C1458.3-666.2,1458.4-666.4,1458.5-666.6z M1458.5-581.1c0,0.2-0.1,0.4-0.2,0.7
			C1458.3-580.6,1458.4-580.8,1458.5-581.1z M1458-495.7c0.2-0.3,0.5-0.7,0.9-1.1C1458.6-496.4,1458.3-496,1458-495.7z"/>
	</g>
	<line id="XMLID_23_" class="st2" x1="1483.1" y1="-797.2" x2="1483.1" y2="-314.2"/>
</g>
<g id="XMLID_24_">
	<g id="XMLID_25_">
		<path id="XMLID_88_" class="st1" d="M1662.1-701.3c-2.3,2.6-4.5,5.2-6.7,7.9c-4.7,5.7-9.2,11.6-13.5,17.5
			c-7.1,9.7-13.9,19.6-20.4,29.7c-7.4,11.5-13.9,23.5-20.6,35.4c-14.2,25.2-28.3,50.4-42.5,75.6c-21.6,38.4-43.1,76.7-64.7,115.1
			c7,12.4,18.7,24.8,33.3,25.4c9.3-16.2,18.6-32.4,27.9-48.6c28-48.8,56-97.7,84-146.5c8.5-14.8,15.4-30.4,20.8-46.6
			c6.2-18.5,12.5-40.3,6.2-59.6C1665.5-697.2,1664-703.5,1662.1-701.3z"/>
		<path id="XMLID_26_" d="M1663.6-711.6c-34.4,39-58.2,84.2-83.5,129.2c-27.9,49.7-55.9,99.4-83.8,149.1c-1.4,2.5-2.8,5-4.2,7.6
			c-1.5,2.7-2.5,7.4-1.2,10.2c6.6,13.8,19.4,29.2,35.7,29.9c0.1,0,0.1-0.1,0.2-0.3c23.4-40.8,46.8-81.5,70.2-122.3
			c13.1-22.8,26.1-45.5,39.2-68.3c7.2-12.6,13.5-25.2,18.9-38.7c6.1-15.6,11-31.8,13.2-48.3c2.1-15.6,2.7-33.2-4.5-47.7
			L1663.6-711.6z M1665.9-696c6.4,19.3,0,41.1-6.2,59.6c-5.4,16.2-12.3,31.8-20.8,46.6c-28,48.8-56,97.7-84,146.5
			c-9.3,16.2-18.6,32.4-27.9,48.6c-14.6-0.6-26.3-13-33.3-25.4c21.6-38.4,43.1-76.7,64.7-115.1c14.2-25.2,28.3-50.4,42.5-75.6
			c6.7-11.9,13.3-23.9,20.6-35.4c6.5-10.1,13.3-20,20.4-29.7c4.4-6,8.9-11.8,13.5-17.5c2.2-2.7,4.4-5.3,6.7-7.9
			C1664-703.5,1665.5-697.2,1665.9-696z"/>
	</g>
	<line id="XMLID_27_" class="st2" x1="1707.6" y1="-759.3" x2="1500.1" y2="-389.9"/>
</g>
<g id="XMLID_28_">
	<g id="XMLID_29_">
		<path id="XMLID_91_" class="st1" d="M1821.2-579.6c-3.2-0.8-6.4-1.5-9.7-1.9c-12.8-1.6-26.5-0.9-38.5,4.1
			c-6.8,2.8-12.9,7.1-19,11.1c-49,31.4-97.7,63.2-146.5,94.8c-33.7,21.9-67.4,43.7-101.1,65.6c4.6,10.2,10.6,20.1,17.3,29
			c12.1,16.1,29.1,31.9,50.7,31.1c34.1-23.3,68.2-46.6,102.3-69.9c25.4-17.3,50.8-34.7,76.1-52c8.4-5.7,16.8-11.5,25.2-17.2
			c3-2.1,6.1-4.7,9.3-6.4c5.3-2.7,10-7.3,13.8-11.7c12.4-14,19.1-31.9,23.4-49.8c1.7-7,3-14,4-21.1
			C1829.2-578.4,1824.7-578.8,1821.2-579.6z"/>
		<path id="XMLID_30_" d="M1833.6-585c-20.7-7.2-45.7-7.6-64.8,4.3c-5.3,3.3-10.6,6.7-15.8,10.1c-22.1,14.2-44.2,28.5-66.3,42.8
			c-52.3,33.9-104.5,67.8-156.7,101.7c-8.5,5.5-17,11-25.5,16.5c-1.2,0.8-4.9,6.4-4.3,7.7c4.8,11.6,11.5,22.7,18.9,32.8
			c12,16.2,29.3,32,50.8,31.1c0.4,0,0.7-0.3,1-0.7c36.9-25.2,73.8-50.4,110.6-75.6c24.6-16.8,49.1-33.6,73.7-50.4
			c9.5-6.5,18.9-13.7,28.9-19.6c9.9-5.9,17.6-15.9,23.7-25.4c14.6-22.7,22.3-48.6,25.8-75.2L1833.6-585z M1828.6-573.9
			c-1,7.1-2.3,14.1-4,21.1c-4.3,18-11,35.8-23.4,49.8c-3.9,4.4-8.6,9-13.8,11.7c-3.3,1.7-6.3,4.3-9.3,6.4
			c-8.4,5.7-16.8,11.5-25.2,17.2c-25.4,17.3-50.8,34.7-76.1,52c-34.1,23.3-68.2,46.6-102.3,69.9c-21.6,0.8-38.5-15-50.7-31.1
			c-6.7-8.9-12.7-18.7-17.3-29c33.7-21.9,67.4-43.8,101.1-65.6c48.8-31.7,97.6-63.4,146.5-94.8c6.2-4,12.3-8.3,19-11.1
			c12-5,25.7-5.7,38.5-4.1c3.3,0.4,6.5,1.1,9.7,1.9C1824.7-578.8,1829.2-578.4,1828.6-573.9z"/>
	</g>
	<line id="XMLID_31_" class="st2" x1="1851.6" y1="-582.3" x2="1519.1" y2="-369.1"/>
</g>
<g id="XMLID_32_">
	<g id="XMLID_33_">
		<path id="XMLID_50_" class="st1" d="M1458-399.1c0.1-0.3,0.3-0.6,0.4-1c0.4-1.1,0.7-2.1,1-3.2c0.5-2,0.8-4,1-6
			c0.3-3,0.4-6.1,0.2-9.1c-0.2-2.6-0.8-3.3-2.4-5.5c-3.5-4.9-6.9-9.9-10.4-14.8c-33.8-48-67.5-96.1-101.3-144.1
			c-7.1-10.2-14-20.5-22-30c-11.6-13.8-24.4-26.8-38.5-38c-14.3-11.4-30.7-22-48.8-25.8c3.8,9.5,7.7,18.9,11.7,28.3
			c0.6,1.3,5.4,1.2,6.7,1.4c3.1,0.5,6.2,0.9,9.3,1.4c0,0.2,0,0.4-0.1,0.5c-1,2.8-1.9,5.6-2.9,8.3c-0.6,1.8-1.2,3.6-1.9,5.4
			c-0.5,1.3-0.5,0.5,0.3,0.7c5.7,1,11.5,1.9,17.2,2.9c0,0.2,0,0.4-0.1,0.5c-1,2.8-1.9,5.6-2.9,8.3c-0.6,1.8-1.2,3.6-1.9,5.4
			c-0.5,1.3-0.5,0.5,0.3,0.7c5.7,1,11.5,1.9,17.2,2.9c0,0.2,0,0.4-0.1,0.5c-1,2.8-1.9,5.6-2.9,8.3c-0.6,1.8-1.2,3.6-1.9,5.4
			c-0.5,1.3-0.5,0.5,0.3,0.7c5.7,1,11.5,1.9,17.2,2.9c0,0.2,0,0.4-0.1,0.5c-1,2.8-1.9,5.6-2.9,8.3c-0.6,1.8-1.2,3.6-1.9,5.4
			c-0.5,1.3-0.5,0.5,0.3,0.7c5.7,1,11.5,1.9,17.2,2.9c0,0.2,0,0.4-0.1,0.5c-1,2.8-1.9,5.6-2.9,8.3c-0.6,1.8-1.2,3.6-1.9,5.4
			c-0.5,1.3-0.5,0.5,0.3,0.7c5.7,1,11.5,1.9,17.2,2.9c0,0.2,0,0.4-0.1,0.5c-1,2.8-1.9,5.6-2.9,8.3c-0.6,1.8-1.2,3.6-1.9,5.4
			c-0.5,1.3-0.5,0.5,0.3,0.7c5.7,1,11.5,1.9,17.2,2.9c0,0.2,0,0.4-0.1,0.5c-1,2.8-1.9,5.6-2.9,8.3c-0.6,1.8-1.2,3.6-1.9,5.4
			c-0.5,1.3-0.5,0.5,0.3,0.7c5.7,1,11.5,1.9,17.2,2.9c0,0.2,0,0.4-0.1,0.5c-1,2.8-1.9,5.6-2.9,8.3c-0.6,1.8-1.2,3.6-1.9,5.4
			c-0.5,1.3-0.5,0.5,0.3,0.7c5.7,1,11.5,1.9,17.2,2.9c0,0.2,0,0.4-0.1,0.5c-1,2.8-1.9,5.6-2.9,8.3c-0.6,1.8-1.2,3.6-1.9,5.4
			c-0.5,1.3-0.5,0.5,0.3,0.7c5.7,1,11.5,1.9,17.2,2.9c0,0.2,0,0.4-0.1,0.5c-1,2.8-1.9,5.6-2.9,8.3c-0.6,1.8-1.2,3.6-1.9,5.4
			c-0.5,1.3-0.5,0.5,0.3,0.7c5.7,1,11.5,1.9,17.2,2.9c0,0.2,0,0.4-0.1,0.5c-1,2.8-1.9,5.6-2.9,8.3c-0.6,1.8-1.2,3.6-1.9,5.4
			c-0.5,1.3-0.5,0.5,0.3,0.7c5.7,1,11.5,1.9,17.2,2.9c0,0.2,0,0.4-0.1,0.5c-1,2.8-1.9,5.6-2.9,8.3c-0.6,1.8-1.2,3.6-1.9,5.4
			c-0.5,1.3-0.5,0.5,0.3,0.7c5.7,1,11.5,1.9,17.2,2.9c0,0.2,0,0.4-0.1,0.5c-1,2.8-1.9,5.6-2.9,8.3c-0.6,1.8-1.2,3.6-1.9,5.4
			c-0.5,1.3-0.5,0.5,0.3,0.7c5.7,1,11.5,1.9,17.2,2.9c0,0.2,0,0.4-0.1,0.5c-1.6,4.8-3.3,9.6-4.9,14.3
			C1434.6-394.4,1450-389,1458-399.1z"/>
		<path id="XMLID_34_" d="M1449.5-389.2c3.2-1.6,6-4.2,8.4-8.1c5.1-8.6,7.1-17.7,6.5-27.6c-0.2-3.4-2.4-5.4-4.3-8.2
			c-5.6-8-11.2-16-16.9-24c-0.6-0.9-1.2-1.7-1.8-2.6c-0.6-0.9-1.3-1.8-1.9-2.7c-1.3-1.9-2.6-3.8-4-5.7c-0.3-0.5-0.7-0.9-1-1.4
			c-30.4-43.3-60.9-86.7-91.3-130c-6.4-9.1-12.9-17.8-20.3-26.2c-11.6-13-24.2-25.2-38.1-35.7c-14.7-11.1-31.8-20.9-50.5-22.9
			c-0.9-0.1-4.1,5.7-3.8,6.5c3.9,10,8,20,12.2,29.9c0.9,2.1,1.7,4.1,2.6,6.2c0.3,0.7,3.3,0.7,3.9,0.8c3,0.4,6,0.9,9,1.3
			c0.9,0.1,1.8,0.3,2.7,0.4c0.2,0,0.3-0.1,0.3-0.1c0,0.1-0.1,0.3-0.3,0.7c-1.6,4.6-3.2,9.2-4.7,13.7c-0.1,0.2-0.1,0.4-0.1,0.5
			c5.7,1,11.5,1.9,17.2,2.9c0.8,0.1,0.7-0.7,0.3,0.7c-0.6,1.8-1.2,3.6-1.9,5.4c-1,2.8-1.9,5.6-2.9,8.3c-0.1,0.2-0.1,0.4-0.1,0.5
			c5.7,1,11.5,1.9,17.2,2.9c0.8,0.1,0.7-0.7,0.3,0.7c-0.6,1.8-1.2,3.6-1.9,5.4c-1,2.8-1.9,5.6-2.9,8.3c-0.1,0.2-0.1,0.4-0.1,0.5
			c5.7,1,11.5,1.9,17.2,2.9c0.8,0.1,0.7-0.7,0.3,0.7c-0.6,1.8-1.2,3.6-1.9,5.4c-1,2.8-1.9,5.6-2.9,8.3c-0.1,0.2-0.1,0.4-0.1,0.5
			c5.7,1,11.5,1.9,17.2,2.9c0.8,0.1,0.7-0.7,0.3,0.7c-0.6,1.8-1.2,3.6-1.9,5.4c-1,2.8-1.9,5.6-2.9,8.3c-0.1,0.2-0.1,0.4-0.1,0.5
			c5.7,1,11.5,1.9,17.2,2.9c0.8,0.1,0.7-0.7,0.3,0.7c-0.6,1.8-1.2,3.6-1.9,5.4c-1,2.8-1.9,5.6-2.9,8.3c-0.1,0.2-0.1,0.4-0.1,0.5
			c5.7,1,11.5,1.9,17.2,2.9c0.8,0.1,0.7-0.7,0.3,0.7c-0.6,1.8-1.2,3.6-1.9,5.4c-1,2.8-1.9,5.6-2.9,8.3c-0.1,0.2-0.1,0.4-0.1,0.5
			c5.7,1,11.5,1.9,17.2,2.9c0.8,0.1,0.7-0.7,0.3,0.7c-0.6,1.8-1.2,3.6-1.9,5.4c-1,2.8-1.9,5.6-2.9,8.3c-0.1,0.2-0.1,0.4-0.1,0.5
			c5.7,1,11.5,1.9,17.2,2.9c0.8,0.1,0.7-0.7,0.3,0.7c-0.6,1.8-1.2,3.6-1.9,5.4c-1,2.8-1.9,5.6-2.9,8.3c-0.1,0.2-0.1,0.4-0.1,0.5
			c5.7,1,11.5,1.9,17.2,2.9c0.8,0.1,0.7-0.7,0.3,0.7c-0.6,1.8-1.2,3.6-1.9,5.4c-1,2.8-1.9,5.6-2.9,8.3c-0.1,0.2-0.1,0.4-0.1,0.5
			c5.7,1,11.5,1.9,17.2,2.9c0.8,0.1,0.7-0.7,0.3,0.7c-0.6,1.8-1.2,3.6-1.9,5.4c-1,2.8-1.9,5.6-2.9,8.3c-0.1,0.2-0.1,0.4-0.1,0.5
			c5.7,1,11.5,1.9,17.2,2.9c0.8,0.1,0.7-0.7,0.3,0.7c-0.6,1.8-1.2,3.6-1.9,5.4c-1,2.8-1.9,5.6-2.9,8.3c-0.1,0.2-0.1,0.4-0.1,0.5
			c5.7,1,11.5,1.9,17.2,2.9c0.8,0.1,0.7-0.7,0.3,0.7c-0.6,1.8-1.2,3.6-1.9,5.4c-1,2.8-1.9,5.6-2.9,8.3c-0.1,0.2-0.1,0.4-0.1,0.5
			c5.7,1,11.5,1.9,17.2,2.9c0.8,0.1,0.7-0.7,0.3,0.7c-0.6,1.8-1.2,3.6-1.9,5.4c-1,2.8-1.9,5.6-2.9,8.3c-0.1,0.2-0.1,0.3-0.1,0.4
			c0,0.1,0,0.2,0,0.2c6.5,3.1,13.5,5.4,20,5.2C1444.1-387.3,1446.9-387.9,1449.5-389.2z M1425-398.9c1.6-4.8,3.3-9.6,4.9-14.3
			c0.1-0.2,0.1-0.4,0.1-0.5c-5.7-1-11.5-1.9-17.2-2.9c-0.8-0.1-0.7,0.7-0.3-0.7c0.6-1.8,1.2-3.6,1.9-5.4c1-2.8,1.9-5.6,2.9-8.3
			c0.1-0.2,0.1-0.4,0.1-0.5c-5.7-1-11.5-1.9-17.2-2.9c-0.8-0.1-0.7,0.7-0.3-0.7c0.6-1.8,1.2-3.6,1.9-5.4c1-2.8,1.9-5.6,2.9-8.3
			c0.1-0.2,0.1-0.4,0.1-0.5c-5.7-1-11.5-1.9-17.2-2.9c-0.8-0.1-0.7,0.7-0.3-0.7c0.6-1.8,1.2-3.6,1.9-5.4c1-2.8,1.9-5.6,2.9-8.3
			c0.1-0.2,0.1-0.4,0.1-0.5c-5.7-1-11.5-1.9-17.2-2.9c-0.8-0.1-0.7,0.7-0.3-0.7c0.6-1.8,1.2-3.6,1.9-5.4c1-2.8,1.9-5.6,2.9-8.3
			c0.1-0.2,0.1-0.4,0.1-0.5c-5.7-1-11.5-1.9-17.2-2.9c-0.8-0.1-0.7,0.7-0.3-0.7c0.6-1.8,1.2-3.6,1.9-5.4c1-2.8,1.9-5.6,2.9-8.3
			c0.1-0.2,0.1-0.4,0.1-0.5c-5.7-1-11.5-1.9-17.2-2.9c-0.8-0.1-0.7,0.7-0.3-0.7c0.6-1.8,1.2-3.6,1.9-5.4c1-2.8,1.9-5.6,2.9-8.3
			c0.1-0.2,0.1-0.4,0.1-0.5c-5.7-1-11.5-1.9-17.2-2.9c-0.8-0.1-0.7,0.7-0.3-0.7c0.6-1.8,1.2-3.6,1.9-5.4c1-2.8,1.9-5.6,2.9-8.3
			c0.1-0.2,0.1-0.4,0.1-0.5c-5.7-1-11.5-1.9-17.2-2.9c-0.8-0.1-0.7,0.7-0.3-0.7c0.6-1.8,1.2-3.6,1.9-5.4c1-2.8,1.9-5.6,2.9-8.3
			c0.1-0.2,0.1-0.4,0.1-0.5c-5.7-1-11.5-1.9-17.2-2.9c-0.8-0.1-0.7,0.7-0.3-0.7c0.6-1.8,1.2-3.6,1.9-5.4c1-2.8,1.9-5.6,2.9-8.3
			c0.1-0.2,0.1-0.4,0.1-0.5c-5.7-1-11.5-1.9-17.2-2.9c-0.8-0.1-0.7,0.7-0.3-0.7c0.6-1.8,1.2-3.6,1.9-5.4c1-2.8,1.9-5.6,2.9-8.3
			c0.1-0.2,0.1-0.4,0.1-0.5c-5.7-1-11.5-1.9-17.2-2.9c-0.8-0.1-0.7,0.7-0.3-0.7c0.6-1.8,1.2-3.6,1.9-5.4c1-2.8,1.9-5.6,2.9-8.3
			c0.1-0.2,0.1-0.4,0.1-0.5c-5.7-1-11.5-1.9-17.2-2.9c-0.8-0.1-0.7,0.7-0.3-0.7c0.6-1.8,1.2-3.6,1.9-5.4c1-2.8,1.9-5.6,2.9-8.3
			c0.1-0.2,0.1-0.4,0.1-0.5c-5.7-1-11.5-1.9-17.2-2.9c-0.8-0.1-0.7,0.7-0.3-0.7c0.6-1.8,1.2-3.6,1.9-5.4c1-2.8,1.9-5.6,2.9-8.3
			c0.1-0.2,0.1-0.4,0.1-0.5c-3.1-0.5-6.2-0.9-9.3-1.4c-1.3-0.2-6.1-0.1-6.7-1.4c-4-9.4-7.9-18.8-11.7-28.3
			c18.1,3.8,34.5,14.4,48.8,25.8c14.1,11.2,26.8,24.3,38.5,38c8,9.5,14.9,19.8,22,30c33.8,48,67.5,96.1,101.3,144.1
			c3.5,4.9,6.9,9.9,10.4,14.8c1.6,2.2,2.2,2.9,2.4,5.5c0.2,3,0.1,6.1-0.2,9.1c-0.2,2-0.5,4-1,6c-0.3,1.1-0.6,2.2-1,3.2
			c-0.1,0.3-0.2,0.6-0.4,1C1450-389,1434.6-394.4,1425-398.9z"/>
	</g>
	<line id="XMLID_35_" class="st2" x1="1232.9" y1="-707.3" x2="1458" y2="-399.1"/>
</g>
<path id="XMLID_95_" class="st3" d="M1532.3-440.2h-492.4c-47.6,0-86.3,36.5-86.3,81.8v0.4c0,45.4,38.7,82.8,86.3,82.8h492.4
	c47.6,0,86.3-37.4,86.3-82.8v-0.4C1618.6-403.8,1579.9-440.2,1532.3-440.2z M1608.6-358c0,39.9-34.2,72.8-76.3,72.8h-492.4
	c-42.1,0-76.3-32.8-76.3-72.8v-0.4c0-39.9,34.2-71.8,76.3-71.8h492.6c42.1,0,76.1,31.9,76.1,71.8V-358z"/>
<path id="XMLID_192_" class="st0" d="M1470.2,163.7c-0.1,0-0.2,0-0.3-0.1c-0.1,0.1-0.2,0.2-0.3,0.4
	C1468.1,165.9,1471.4,164,1470.2,163.7z"/>
<path id="XMLID_191_" class="st0" d="M1470.9,162.6c-0.4,0.4-0.7,0.7-0.9,1c0,0,0,0,0,0C1470.2,163.3,1470.5,162.9,1470.9,162.6z"/>
<path id="XMLID_190_" class="st0" d="M1470.2,200.7c-0.1,0-0.2,0-0.3-0.1c-0.2,0.2-0.3,0.4-0.5,0.6
	C1468.4,202.8,1471.3,201,1470.2,200.7z"/>
<polygon id="XMLID_189_" class="st0" points="1469.9,200.7 1469.9,200.7 1469.9,200.7 "/>
<path id="XMLID_188_" class="st0" d="M1463.6,210.7c-0.1,0-0.2,0-0.3-0.1c-0.2,0.2-0.3,0.4-0.5,0.6
	C1461.5,213.1,1464.8,211.1,1463.6,210.7z"/>
<path id="XMLID_187_" class="st0" d="M882.5,345.8c-0.2,0.1-0.5,0.1-0.7,0.2c-2,0.7-0.6,1.3,0.7,0.1
	C882.5,346,882.5,345.9,882.5,345.8z"/>
<path id="XMLID_186_" class="st0" d="M1137.2,348.7c0,0.1,0,0.1,0,0.2C1137.3,348.7,1137.3,348.6,1137.2,348.7z"/>
<path id="XMLID_185_" class="st0" d="M1464.3,209.5c-0.5,0.5-0.8,0.8-1.1,1.1c0,0,0,0,0,0C1463.6,210.3,1463.9,209.9,1464.3,209.5z"
	/>
<path id="XMLID_184_" class="st0" d="M1470.4,52.7c-0.1,0.2-0.2,0.3-0.3,0.5C1470.3,53,1470.4,52.8,1470.4,52.7z"/>
<path id="XMLID_183_" class="st0" d="M1470.4,126.7c-0.1,0.2-0.1,0.4-0.2,0.6C1470.3,127.1,1470.4,126.9,1470.4,126.7z"/>
<path id="XMLID_182_" class="st0" d="M1470,200.6c0.3-0.3,0.6-0.6,0.9-0.9C1470.5,200,1470.2,200.3,1470,200.6z"/>
<path id="XMLID_181_" class="st1" d="M883,345.6c-0.2,0-0.4,0.1-0.5,0.2c0,0.1,0,0.2,0,0.3C882.7,346,882.8,345.8,883,345.6z"/>
<path id="XMLID_180_" d="M1469.9,163.6c-0.1,0.1-0.2,0.3-0.3,0.4C1469.7,163.8,1469.8,163.7,1469.9,163.6
	C1469.9,163.6,1469.9,163.6,1469.9,163.6z"/>
<path id="XMLID_179_" d="M1468.4,89.4c0,0,0.1,0,0.4,0.1C1468.6,89.4,1468.5,89.4,1468.4,89.4z"/>
<path id="XMLID_178_" d="M1468.3,219.1c0,0,0.1,0,0.4,0.1C1468.6,219.1,1468.4,219.1,1468.3,219.1z"/>
<path id="XMLID_177_" d="M1468.3,256.1c0.1,0,0.2,0,0.3,0.1C1468.6,256.2,1468.5,256.2,1468.3,256.1z"/>
<path id="XMLID_176_" d="M1463.2,210.7c-0.2,0.2-0.4,0.4-0.5,0.6C1462.9,211.1,1463.1,210.9,1463.2,210.7
	C1463.2,210.7,1463.2,210.7,1463.2,210.7z"/>
<path id="XMLID_175_" d="M1469.9,200.7c-0.2,0.3-0.4,0.5-0.5,0.6C1469.6,201.1,1469.7,200.9,1469.9,200.7
	C1469.9,200.7,1469.9,200.7,1469.9,200.7z"/>
<path id="XMLID_174_" class="st1" d="M1136.5,349.4c0.4-0.3,0.6-0.5,0.7-0.6c0-0.1,0-0.1,0-0.2
	C1137.1,348.7,1136.8,349,1136.5,349.4z"/>
<path id="XMLID_173_" class="st4" d="M1242.7,361.4c-0.1,0.2-0.2,0.6-0.3,1c-0.1,0.5-0.1,1-0.1,1.5c0,1.4,0.1,2.7,0.3,4.1
	c0.5,3,1.3,6,2.4,8.9c2.9,7.8,7,15.1,12.1,21.7c11.3,14.7,27.5,25.8,45.5,27.9c0-16.2,0-32.3,0-48.5c0-1,2.8-7.2,3.9-7.2
	c10.5,0,21.1,0,31.6,0c7.1,0,14.1,0,21.2,0c2.5,0,5.3,0.1,7.8,0.5c15.2,2.5,19.9,19.7,13.1,32.3c-3.5,6.5-7.9,11-15.5,12.1
	c-5.9,0.8-12,0.7-18,0.6c1.4,2.2,3.2,3.8,5.2,5.4c6.3,4.9,13.6,5.2,21.3,5.2c51.1,0,102.2,0,153.3,0c-2.9-26-5.9-53-8.8-80
	c-17,0-34.1,0-51.1,0c-58.7,0-117.4,0-176.1,0c-5.4,0-10.7,0-16.1,0c-2.8,0-6.1,1.6-8.7,2.5C1257.9,351.7,1248.3,355.1,1242.7,361.4
	z"/>
<path id="XMLID_170_" class="st5" d="M1245,391.8c11.2,21.9,32.4,40.4,57.8,41.4c1,0,3.8-5.3,3.8-6.3c0-16.3,0-33.2,0-49.2
	c18,0,36.9,0,55.4,0c9.8,0,16.8,9.1,17.5,18.3c0.2,2.3-0.1,4.8-0.5,7.1c-0.3,0.8-0.5,1.4-0.5,1.7c-0.5,0.5-1.2,1-1.8,1.5
	c-2.8,2.1-6.5,2.8-10,3.2c-7.5,0.8-15.3,0.2-22.8,0.2c-1,0-4,5.3-3.8,6.3c2.9,13.1,16,17.8,28,17.8c12,0,24,0,36.1,0
	c33.5,0,66.9,0,100.4,0c7.5,0,15.1,0,22.6,0c1,0,3.9-5.2,3.8-6.1c-3.2-29-6.4-57.9-9.5-86.9c0,0.2-0.4,0.3-0.9,1
	c0.3-0.9,0.6-1.9,0.9-1.9c-46.3,0-92.5,0-138.8,0c-28,0-56,0-84,0c-6.5,0-13,0-19.6,0c-1.4,0-2.6,0.7-4,1.1
	c-7.3,1.8-14.5,4.6-21.1,8.2c-7,3.8-14.5,11.5-15.4,19.9C1237.7,376.6,1241.7,385.2,1245,391.8z M1274.3,346.8c5.4,0,10.7,0,16.1,0
	c58.7,0,117.4,0,176.1,0c17,0,34.1,0,51.1,0c2.9,27,5.9,54,8.8,80c-51.1,0-102.2,0-153.3,0c-7.7,0-15-0.2-21.3-5.2
	c-2-1.5-3.7-3.3-5.2-5.6c6,0.1,12.1,0.4,18-0.4c7.6-1,12-5.4,15.5-11.9c6.8-12.6,2.1-30-13.1-32.5c-2.5-0.4-5.3-0.5-7.8-0.5
	c-7.1,0-14.1,0-21.2,0c-10.5,0-21.1,0-31.6,0c-1.1,0-3.9,6.2-3.9,7.2c0,16.2,0,32.3,0,48.5c-18-2-34.2-13.2-45.5-27.9
	c-5.1-6.6-9.2-13.9-12.1-21.7c-1.1-2.9-1.9-5.9-2.4-8.9c-0.2-1.3-0.3-2.7-0.3-4.1c0-0.5,0.1-1,0.1-1.5c0-0.4,0.2-0.8,0.3-1
	c5.6-6.3,15.2-9.8,22.9-12.2C1268.2,348.4,1271.5,346.8,1274.3,346.8z"/>
<line id="XMLID_169_" class="st6" x1="1159.6" y1="386.3" x2="1526.6" y2="386.3"/>
<g id="XMLID_162_">
	<g id="XMLID_164_">
		<path id="XMLID_168_" class="st1" d="M79.2-620.1c2.3-0.1,4.8-0.2,7.2-0.6c-0.4-1.7-1-3.4-1.9-5c-1.1-2-0.9-1.8-3-1.9
			c-5.9-0.4-12.3-3-14.7-8.9c-3.4-8.1-1.5-17.9,2.8-25.3c3-5.1,6.8-9.5,12.9-10.5c7.1-1.1,15,0.1,21.9,1.3
			c22.9,4.1,43.5,16.7,66.7,19.2c5.3,0.6,11.3,1.6,16.4-0.5c4.5-1.8,8.4-4.6,12-7.8c3.6-3.1,7.1-6.5,10.1-10.1c0-0.6,0-1.1,0-1.7
			c0-2.6,0-5.2,0-7.8c0-2.7-2.6-4.3-4.6-5.7c-7.4-5.1-15.8-8.6-24.2-11.7c-5.3-2-9.2-3.3-14.6-3.3c-21.2,0-42.4,0-63.6,0
			c-48.5,0-97,0-145.6,0c-3.5,0-7.3-0.3-9.9,2.4c-0.1,0.2-0.2,0.4-0.3,0.7c-0.4,1.1-0.7,2.3-0.9,3.5c-0.4,2.2-0.8,4.4-0.9,6.6
			c-0.9,11.4,0.3,22.9,2,34.1c1.1,7.5,2.5,15,4.1,22.4c7.3,0.4,14.6,0.9,21.8,1.4c4.5,2.8,9,5.5,13.5,8.3c17.2,0.6,34.5,1,51.7,1.2
			C51.9-619.5,65.6-619.3,79.2-620.1z"/>
		<path id="XMLID_165_" d="M-48.7-630.6c-1.6-7.4-3-14.9-4.1-22.4c-1.7-11.2-2.9-22.8-2-34.2c0.2-2.2,0.5-4.4,0.9-6.6
			c0.2-1.2,0.5-2.3,0.9-3.5c0.1-0.2,0.2-0.4,0.3-0.6c2.5-2.7,6.4-2.4,9.9-2.4c48.5,0,97,0,145.6,0c21.2,0,42.4,0,63.6,0
			c5.4,0,9.3,1.3,14.6,3.3c8.4,3.1,16.8,6.7,24.1,11.8c2,1.4,4.6,2.9,4.6,5.6c0,2.6,0,5.2,0,7.8c0,0.6,0,1.1,0,1.7
			c-3,3.6-6.5,6.9-10.1,10.1c-3.6,3.1-7.6,6-12,7.8c-5.1,2.1-11.1,1.1-16.4,0.5c-23.2-2.5-43.8-15.1-66.7-19.2
			c-7-1.2-14.8-2.4-21.9-1.3c-6.2,0.9-10,5.3-12.9,10.5c-4.3,7.4-6.1,17.2-2.8,25.3c2.4,5.9,8.8,8.5,14.7,8.9c2,0.1,1.9-0.1,3,1.9
			c0.9,1.6,1.5,3.3,1.9,5c-2.4,0.4-4.9,0.4-7.2,0.6c-13.6,0.9-27.3,0.6-40.9,0.5c-17.2-0.2-34.5-0.7-51.7-1.2
			c3.8,2.3,7.6,4.7,11.4,7c19.2,0.6,38.5,0.9,57.8,0.8c9.5-0.1,20.2,0.7,29.5-1.7c2.8-0.7,5.3-4.8,5.6-7.5c0.4-3.9-1.6-8.6-3.7-11.8
			c-0.2-0.3-4-0.2-4.5-0.3c-6.1-0.9-10.9-4.6-12.9-10.5c-1.6-4.6-1-10.3,0.1-15c0.7-2.9,3.9-4.5,6.6-5.4c4.1-1.4,9.1-0.7,13.2-0.5
			c11.3,0.6,22.3,3.5,32.9,7.2c9.4,3.2,18.5,7.1,28,9.8c9.2,2.7,20.7,5.5,30.3,3.8c7.5-1.3,14.1-7.5,19.4-12.6
			c2.4-2.3,4.7-4.8,6.9-7.3c0.8-0.9,1.5-1.8,2.3-2.7c0.7-0.8,0.3-0.6,0.3-0.6c0-1,3.8-4.1,3.8-6.2v0c0-1.2,0-2.4,0-3.7
			c0-2.6,0-5.2,0-7.8c0-2.9-1.6-3.7-3.8-5.4c-7.6-5.9-17.1-9.2-26-12.5c-5.9-2.2-9.4-2.7-15.4-2.7c-24.5,0-48.9,0-73.4,0
			c-44.7,0-89.4,0-134.1,0c-10.8-2-16.4,9.5-18.4,18.4c-3.2,13.4-1,28.2,1,41.6c0.8,5.2,1.7,10.3,2.7,15.5
			C-52.2-630.7-50.5-630.7-48.7-630.6z M89.5-621.5c-0.2,0.1-0.4,0.1-0.7,0.2c-0.2,0.1-0.3,0.1-0.5,0.2c0.2-0.2,0.3-0.4,0.5-0.5
			C90.1-622.7,91.4-622.1,89.5-621.5z"/>
	</g>
	<line id="XMLID_163_" class="st2" x1="-59.4" y1="-659.7" x2="307.6" y2="-659.7"/>
</g>
<g id="XMLID_154_">
	<g id="XMLID_156_">
		<path id="XMLID_161_" class="st1" d="M-34.8-501.7c-6.8,4.2-13.9,8.4-19.7,14c-1.4,1.3-2.8,2.8-3.7,4.5c0,0,0.1,0.1,0.1,0.1
			c1.4,1.5,1.8,1,3.6,0.1c1.9-0.9,3.9-1.8,6-2.5c5.1-1.8,10.4-3.2,15.8-4.2c14.1-2.9,28.5-4.3,42.9-5.3c38.1-2.8,76.4-3.1,114.5-4.1
			c40.3-1,80.6-2.2,120.7-6.8c27.9-3.2,58.7-7.1,83.9-20.6c-35.1-25.2-80.7-24.5-122.2-24.7c-49.9-0.3-99.7-0.6-149.6-0.8
			C26.5-535.8-5-520-34.8-501.7z"/>
		<path id="XMLID_157_" d="M-46.7-480.1c11.7-4,24.2-5.7,36.5-7.1c16.5-1.9,33.2-2.9,49.8-3.6c40-1.8,80.1-2.1,120.1-3.5
			c33.7-1.2,67.6-2.9,101-7.7c24.7-3.5,51.4-8.1,73.1-21.2c0.6-0.4,0.4-5.4-0.1-5.9c-41.3-33.2-100.1-28-149.9-28.2
			c-32.4-0.2-64.8-0.4-97.2-0.5c-4.4,0-8.9,0-13.3-0.1c-5.3,0-10.6-0.1-15.9-0.1c-6.5,3.4-12.9,6.8-19.4,10.2
			c-1.5,0.8-3.1,1.6-4.6,2.4C18-537.2,2.6-529-12.6-520.5c-12.6,7-25.6,14.1-37.1,22.9c-5.1,3.8-10,7.8-9.8,14.6
			c0.1,2.4,0.2,4.6,2,6.3C-55.9-475.2-49-479.4-46.7-480.1z M57.5-552.1c49.9,0.3,99.7,0.6,149.6,0.8c41.5,0.2,87.1-0.5,122.2,24.7
			c-25.2,13.5-56,17.4-83.9,20.6c-40,4.6-80.4,5.7-120.7,6.8c-38.2,1-76.4,1.3-114.5,4.1c-14.4,1.1-28.8,2.5-42.9,5.3
			c-5.3,1.1-10.6,2.4-15.8,4.2c-2,0.7-4,1.6-6,2.5c-1.8,0.9-2.2,1.4-3.6-0.1c0,0-0.1-0.1-0.1-0.1c0.9-1.7,2.3-3.1,3.7-4.5
			c5.8-5.6,12.9-9.8,19.7-14C-5-520,26.5-535.8,57.5-552.1z M-58.9-481.4c0-0.2,0.1-0.5,0.3-0.9c0,0.6-0.1,0.9-0.2,1
			C-58.9-481.2-58.9-481.3-58.9-481.4z"/>
	</g>
</g>
<g id="XMLID_193_">
	<g id="XMLID_195_">
		<path id="XMLID_204_" class="st1" d="M271.6-393.5c-19,4.6-37.9,9.6-56.7,15.1c-6.2,1.8-12.3,3.6-18.4,5.5
			c-1.6,0.5-6.5,2.9-7.9,2.1c-0.8-0.4-1.6-0.8-2.5-1.2c-4-1.8-8-3.4-12.1-4.9c-32.6-11.8-66.8-20-100.6-28.3
			c-21.1-5.2-42.3-10.2-63.6-14.9c-4.7,2.2-8.8,5.6-12.5,9.4c5.2,1.3,10.4,2.5,15.6,3.8c29.5,7.2,59,14.4,88.5,21.7
			c12.2,3,24.5,6,36.7,9c3,0.7,6.1,1.5,9.1,2.2c2.8,0.7,4.9,3.1,7,4.9c4.4,3.9,11.5,9.5,11.5,15.6c0-0.1,0.1-0.1,0.1-0.2
			c0,0.1-0.1,0.2-0.1,0.3c0,0.9-0.2,1.9-0.6,2.8c-3,7.2-11.1,13.4-17.3,18.2c-1.5,1.1-3.7,1.6-5.5,2.2c-5.2,1.8-10.5,3.7-15.7,5.6
			c-15.5,5.5-31,11.1-46.4,16.8c-12,4.4-24.3,8.6-35.8,14c-0.7,0.3-1.4,0.7-2.1,1c-0.6,0.3-1.2,0.7-1.7,1.2
			c-0.7,0.7-1.1,0.6-1.2,0.5c0,0.1,0.1,0.2,0.1,0.4c0.8,2.7,4.3,5.1,7.4,4.2c2-0.6,3.9-1.2,5.9-1.8c11-3.5,21.9-7,32.8-10.6
			c29.3-9.4,58.5-18.9,87.8-28.4c6.5-2.1,13-4.2,19.5-6.3c1.6-0.5,7.1,2.3,8.7,2.8c8.3,2.7,16.5,5.4,24.8,8
			c10.4,3.3,20.8,6.6,31.3,9.8c9.9,3,20.4,7.2,30.8,8.5c15.8,2.1,32.9-2.4,46.2-10.8c-32.4-11-64.9-22.1-97.3-33.1
			c-0.3-0.1,1.3-5,2-5.3c30.4-9.9,60.7-20.1,90.8-30.8C313-395.8,291.9-398.4,271.6-393.5z M192-340.4c-7.8-2.1-10-8.3-7.8-15
			c2-6,7.5-11.3,14.9-9.2C214.6-360.4,207.2-337.6,192-340.4z"/>
		<path id="XMLID_200_" d="M336.3-386.6C321.9-398,302.9-403,284.2-401c-2.6,0.3-5,0.9-7.6,1.5c-9.3,2.2-18.6,4.6-27.9,7
			c-14.3,3.8-28.6,7.8-42.8,12c-3.7,1.1-7.5,2.3-11.2,3.4c-2.6,0.8-3.4,1.3-5.6,0.2c-2.5-1.2-5-2.2-7.6-3.2
			c-14.2-5.6-29-9.9-43.7-14.1C96.3-405.9,54.1-416,11.7-425.3c-0.1,0-0.1,0-0.2,0.1c-6.6,3.1-12.1,8.7-16.7,14
			c-0.4,0.4-2.3,5.1-1.9,5.2c47.6,11.6,95.1,23.3,142.6,34.9c3.6,0.9,7.2,1.7,10.7,2.6c2,0.5,4.4,3.4,5.9,4.6
			c4.2,3.6,9.2,8.1,11.2,13.3c-2.6,3.1-5.6,6-8.7,8.7c-1.5,1.3-3.9,4.1-5.7,4.7c-2.7,1-5.5,1.9-8.2,2.9
			c-13.8,4.9-27.5,9.8-41.3,14.7c-14.7,5.3-29.4,10.7-43.9,16.4c-3.9,1.5-7.8,3-11.5,5c-4.2,2.3-8.5,9.3-6.3,13.9
			c3.2,6.4,15.2,0.3,19.6-1.1c12.8-4.1,25.6-8.2,38.3-12.4c28-9,56-18.1,83.9-27.1c3.2-1,8.9-4.3,12.3-3.2
			c13.9,4.6,27.9,9.2,41.9,13.6c9.6,3.1,19.2,6.1,28.9,9c10.3,3.1,20.6,6.7,31.5,6.8c15.4,0.2,32.1-6.2,43.9-15.5
			c0.5-0.4,2.3-5.1,1.9-5.2c-31.4-10.7-62.7-21.3-94.1-32c29.5-9.7,58.9-19.6,88.1-30.1C335-381.6,336.8-386.2,336.3-386.6z
			 M237.3-348.3c32.4,11,64.9,22.1,97.3,33.1c-13.3,8.5-30.4,12.9-46.2,10.8c-10.4-1.4-20.9-5.5-30.8-8.5
			c-10.5-3.2-20.9-6.5-31.3-9.8c-8.3-2.7-16.5-5.3-24.8-8c-1.5-0.5-7-3.3-8.7-2.8c-6.5,2.1-13,4.2-19.5,6.3
			c-29.3,9.5-58.5,18.9-87.8,28.4c-10.9,3.5-21.9,7.1-32.8,10.6c-2,0.6-3.9,1.3-5.9,1.8c-3.1,0.9-6.6-1.6-7.4-4.2
			c-0.1-0.2-0.1-0.3-0.1-0.4c0.1,0.1,0.5,0.2,1.2-0.5c0.5-0.4,1.1-0.8,1.7-1.2c0.7-0.4,1.4-0.7,2.1-1c11.5-5.4,23.8-9.6,35.8-14
			c15.4-5.7,30.9-11.3,46.4-16.8c5.2-1.9,10.5-3.7,15.7-5.6c1.8-0.6,4-1,5.5-2.2c6.2-4.9,14.3-11,17.3-18.2c0.4-0.9,0.6-1.9,0.6-2.8
			c0-0.1,0.1-0.2,0.1-0.3c0,0.1-0.1,0.1-0.1,0.2c0-6.1-7-11.7-11.5-15.6c-2.1-1.8-4.2-4.2-7-4.9c-3-0.7-6.1-1.5-9.1-2.2
			c-12.2-3-24.5-6-36.7-9c-29.5-7.2-59-14.4-88.5-21.7c-5.2-1.3-10.4-2.6-15.6-3.8c3.6-3.7,7.8-7.2,12.5-9.4
			c21.3,4.7,42.5,9.7,63.6,14.9c33.8,8.3,68,16.5,100.6,28.3c4.1,1.5,8.2,3.1,12.1,4.9c0.8,0.4,1.7,0.8,2.5,1.2
			c1.5,0.7,6.3-1.6,7.9-2.1c6.1-1.9,12.3-3.7,18.4-5.5c18.8-5.5,37.7-10.5,56.7-15.1c20.2-4.9,41.4-2.3,58.4,9.2
			c-30.1,10.7-60.4,20.9-90.8,30.8C238.6-353.4,237-348.4,237.3-348.3z"/>
		<path id="XMLID_199_" class="st1" d="M197-359.4c-3.1-0.6-12.6,0-11.9,4.7c0.7,4.6,4.1,7.7,8.8,9c3.1,0.6,12.5,0,11.8-4.7
			C205.2-354.7,201.7-358.6,197-359.4z"/>
		<path id="XMLID_196_" d="M199-364.7c-7.4-2-12.9,3.2-14.9,9.2c-2.2,6.7,0.1,12.9,7.8,15C207.2-337.6,214.6-360.4,199-364.7z
			 M205.8-350.4c0.7,4.7-8.7,5.3-11.8,4.7c-4.7-1.3-8.1-4.4-8.8-9c-0.7-4.7,8.7-5.3,11.9-4.7C201.7-358.6,205.2-354.7,205.8-350.4z"
			/>
	</g>
</g>
<g id="XMLID_116_">
	<g id="XMLID_118_">
		<path id="XMLID_122_" class="st1" d="M9.7,38.3c3.4,0.7,6.8,1.4,10.2,2c7.3,1.3,14.6,2.4,21.9,3.3c11.9,1.5,23.9,2.6,35.9,3.3
			c13.7,0.8,27.3,0.7,41,0.7c28.9,0.1,57.8,0.1,86.7,0.1c44,0.1,88,0.2,132,0.2c7.4-12.2,12.5-28.5,5.9-41.5
			c-18.7-0.2-37.4-0.4-56.1-0.6c-56.3-0.6-112.6-1.2-168.9-1.8c-17-0.2-34,1.4-50.8,4.6c-19.2,3.7-41.3,8.7-55,23.7
			C11.6,33.4,6.9,37.7,9.7,38.3z"/>
		<path id="XMLID_119_" d="M0,42c50.8,11,101.9,9.7,153.5,9.8c57,0.1,114,0.2,171,0.3c2.9,0,5.8,0,8.7,0c3.1,0,7.7-1.4,9.4-3.9
			c8.8-12.5,16-31.2,8.6-45.8c0-0.1-0.2-0.1-0.4,0c-47-0.5-94-1-141-1.5c-26.2-0.3-52.5-0.5-78.7-0.8c-14.5-0.2-28.6,0.5-43,2.4
			C71.6,4.7,55.1,8.4,39.5,14.6C24.9,20.4,9.3,28.5,0.1,41.8L0,42z M12.5,32.4c13.7-15,35.8-20.1,55-23.7
			c16.7-3.2,33.7-4.8,50.8-4.6c56.3,0.6,112.6,1.2,168.9,1.8c18.7,0.2,37.4,0.4,56.1,0.6c6.6,13,1.5,29.3-5.9,41.5
			c-44-0.1-88-0.2-132-0.2c-28.9,0-57.8-0.1-86.7-0.1c-13.7,0-27.3,0.1-41-0.7c-12-0.7-23.9-1.8-35.9-3.3c-7.3-0.9-14.6-2-21.9-3.3
			c-3.4-0.6-6.8-1.3-10.2-2C6.9,37.7,11.6,33.4,12.5,32.4z"/>
	</g>
</g>
<g id="XMLID_109_">
	<g id="XMLID_111_">
		<path id="XMLID_115_" class="st1" d="M6.1,164.3c2.3,2.4,4.6,4.7,7.1,6.8c9.9,8.3,21.8,15.1,34.6,17.4c7.2,1.3,14.7,1,22,1
			c58.2,0.2,116.4,0,174.5-0.2c40.2-0.1,80.3-0.2,120.5-0.3c1.7-11.1,2-22.6,1.2-33.7c-1.4-20.2-7.2-42.6-25.7-53.6
			c-41.3,1.1-82.6,2.2-123.9,3.2c-30.7,0.8-61.5,1.6-92.2,2.4c-10.2,0.3-20.3,0.5-30.5,0.8c-3.7,0.1-7.7,0.7-11.3,0.3
			c-5.9-0.6-12.3,0.7-18,2.3c-18,5-33.4,16.4-46.7,29.1C12.6,144.8,7.7,150,3,155.4C0,158.9,3.6,161.6,6.1,164.3z"/>
		<path id="XMLID_112_" d="M-7.3,162.1c13.4,17.3,34.3,31.2,56.8,31.6c6.3,0.1,12.5,0.1,18.8,0.1c26.3,0.1,52.6,0,78.9,0
			c62.3-0.1,124.5-0.2,186.8-0.4c10.1,0,20.2-0.1,30.4-0.1c1.4,0,7.5-2.7,7.8-4.1c2.3-12.4,2.7-25.3,1.9-37.8
			c-1.3-20.1-7.3-42.7-25.8-53.7c-0.3-0.2-0.7-0.2-1.2,0c-44.7,1.2-89.3,2.3-134,3.5c-29.7,0.8-59.5,1.6-89.2,2.3
			c-11.6,0.3-23.3,1.3-34.9,0.8c-11.5-0.4-23.4,3.8-33.7,8.5c-24.6,11.1-45.1,28.8-62.5,49.2L-7.3,162.1z M3,155.4
			c4.7-5.4,9.6-10.6,14.8-15.5c13.4-12.8,28.7-24.1,46.7-29.1c5.6-1.6,12.1-2.9,18-2.3c3.7,0.4,7.7-0.2,11.3-0.3
			c10.2-0.3,20.3-0.5,30.5-0.8c30.7-0.8,61.5-1.6,92.2-2.4c41.3-1.1,82.6-2.2,123.9-3.2c18.5,11,24.3,33.5,25.7,53.6
			c0.8,11.1,0.5,22.6-1.2,33.7c-40.2,0.1-80.3,0.2-120.5,0.3c-58.2,0.1-116.4,0.4-174.5,0.2c-7.3,0-14.8,0.3-22-1
			c-12.8-2.3-24.7-9.2-34.6-17.4c-2.5-2.1-4.9-4.4-7.1-6.8C3.6,161.6,0,158.9,3,155.4z"/>
	</g>
</g>
<g id="XMLID_102_">
	<g id="XMLID_104_">
		<path id="XMLID_108_" class="st1" d="M338.2-221c-0.2-0.3-0.4-0.6-0.6-0.9c-0.6-0.9-1.3-1.8-2-2.7c-1.3-1.5-2.7-3-4.3-4.3
			c-2.3-2-4.7-3.9-7.3-5.5c-2.2-1.4-3.1-1.2-5.8-1.3c-6-0.1-12-0.2-18.1-0.3c-58.7-0.8-117.4-1.7-176.2-2.5
			c-12.4-0.2-24.8-0.7-37.2,0.2c-18,1.3-36,4-53.4,8.8c-17.6,4.9-35.8,12-49.5,24.4c9.9,2.5,19.8,4.9,29.7,7.1
			c1.4,0.3,4.2-3.7,5.1-4.6c2.2-2.3,4.4-4.5,6.6-6.8c0.2,0.1,0.3,0.2,0.4,0.4c1.7,2.4,3.4,4.8,5.1,7.2c1.1,1.6,2.2,3.1,3.3,4.7
			c0.8,1.2,0.1,0.7,0.7,0.2c4.2-4.1,8.3-8.2,12.5-12.3c0.2,0.1,0.3,0.2,0.4,0.4c1.7,2.4,3.4,4.8,5.1,7.2c1.1,1.6,2.2,3.1,3.3,4.7
			c0.8,1.2,0.1,0.7,0.7,0.2c4.2-4.1,8.3-8.2,12.5-12.3c0.2,0.1,0.3,0.2,0.4,0.4c1.7,2.4,3.4,4.8,5.1,7.2c1.1,1.6,2.2,3.1,3.3,4.7
			c0.8,1.2,0.1,0.7,0.7,0.2c4.2-4.1,8.3-8.2,12.5-12.3c0.2,0.1,0.3,0.2,0.4,0.4c1.7,2.4,3.4,4.8,5.1,7.2c1.1,1.6,2.2,3.1,3.3,4.7
			c0.8,1.2,0.1,0.7,0.7,0.2c4.2-4.1,8.3-8.2,12.5-12.3c0.2,0.1,0.3,0.2,0.4,0.4c1.7,2.4,3.4,4.8,5.1,7.2c1.1,1.6,2.2,3.1,3.3,4.7
			c0.8,1.2,0.1,0.7,0.7,0.2c4.2-4.1,8.3-8.2,12.5-12.3c0.2,0.1,0.3,0.2,0.4,0.4c1.7,2.4,3.4,4.8,5.1,7.2c1.1,1.6,2.2,3.1,3.3,4.7
			c0.8,1.2,0.1,0.7,0.7,0.2c4.2-4.1,8.3-8.2,12.5-12.3c0.2,0.1,0.3,0.2,0.4,0.4c1.7,2.4,3.4,4.8,5.1,7.2c1.1,1.6,2.2,3.1,3.3,4.7
			c0.8,1.2,0.1,0.7,0.7,0.2c4.2-4.1,8.3-8.2,12.5-12.3c0.2,0.1,0.3,0.2,0.4,0.4c1.7,2.4,3.4,4.8,5.1,7.2c1.1,1.6,2.2,3.1,3.3,4.7
			c0.8,1.2,0.1,0.7,0.7,0.2c4.2-4.1,8.3-8.2,12.5-12.3c0.2,0.1,0.3,0.2,0.4,0.4c1.7,2.4,3.4,4.8,5.1,7.2c1.1,1.6,2.2,3.1,3.3,4.7
			c0.8,1.2,0.1,0.7,0.7,0.2c4.2-4.1,8.3-8.2,12.5-12.3c0.2,0.1,0.3,0.2,0.4,0.4c1.7,2.4,3.4,4.8,5.1,7.2c1.1,1.6,2.2,3.1,3.3,4.7
			c0.8,1.2,0.1,0.7,0.7,0.2c4.2-4.1,8.3-8.2,12.5-12.3c0.2,0.1,0.3,0.2,0.4,0.4c1.7,2.4,3.4,4.8,5.1,7.2c1.1,1.6,2.2,3.1,3.3,4.7
			c0.8,1.2,0.1,0.7,0.7,0.2c4.2-4.1,8.3-8.2,12.5-12.3c0.2,0.1,0.3,0.2,0.4,0.4c1.7,2.4,3.4,4.8,5.1,7.2c1.1,1.6,2.2,3.1,3.3,4.7
			c0.8,1.2,0.1,0.7,0.7,0.2c4.2-4.1,8.3-8.2,12.5-12.3c0.2,0.1,0.3,0.2,0.4,0.4c1.7,2.4,3.4,4.8,5.1,7.2c1.1,1.6,2.2,3.1,3.3,4.7
			c0.8,1.2,0.1,0.7,0.7,0.2c4.2-4.1,8.3-8.2,12.5-12.3c0.2,0.1,0.3,0.2,0.4,0.4c2.9,4.1,5.8,8.3,8.7,12.4
			C328.3-199.2,341.8-208.5,338.2-221z"/>
		<path id="XMLID_105_" d="M341.3-208.2c0.6-3.5,0.2-7.3-1.6-11.5c-3.9-9.2-10.2-16.1-18.6-21.5c-2.9-1.8-5.8-1.3-9.2-1.3
			c-9.8-0.1-19.5-0.3-29.3-0.4c-1,0-2.1,0-3.1,0c-1.1,0-2.2,0-3.3,0c-2.3,0-4.6-0.1-6.9-0.1c-0.6,0-1.1,0-1.7,0
			c-53-0.7-105.9-1.5-158.9-2.2c-11.2-0.2-22,0-33.1,1.1c-17.3,1.7-34.6,4.8-51.3,9.9c-17.7,5.4-35.6,13.6-48.2,27.4
			c-0.6,0.6,2.2,6.6,3.1,6.8c10.4,2.7,20.9,5.2,31.4,7.7c2.2,0.5,4.4,1,6.6,1.5c0.7,0.2,2.5-2.3,2.9-2.7c2.1-2.2,4.2-4.3,6.3-6.5
			c0.6-0.7,1.3-1.3,1.9-2c0.1-0.1,0.1-0.2,0.1-0.3c0,0.1,0.1,0.3,0.4,0.7c2.8,4,5.6,7.9,8.4,11.9c0.1,0.2,0.2,0.3,0.4,0.4
			c4.2-4.1,8.3-8.2,12.5-12.3c0.6-0.6-0.1-1,0.7,0.2c1.1,1.6,2.2,3.1,3.3,4.7c1.7,2.4,3.4,4.8,5.1,7.2c0.1,0.2,0.2,0.3,0.4,0.4
			c4.2-4.1,8.3-8.2,12.5-12.3c0.6-0.6-0.1-1,0.7,0.2c1.1,1.6,2.2,3.1,3.3,4.7c1.7,2.4,3.4,4.8,5.1,7.2c0.1,0.2,0.2,0.3,0.4,0.4
			c4.2-4.1,8.3-8.2,12.5-12.3c0.6-0.6-0.1-1,0.7,0.2c1.1,1.6,2.2,3.1,3.3,4.7c1.7,2.4,3.4,4.8,5.1,7.2c0.1,0.2,0.2,0.3,0.4,0.4
			c4.2-4.1,8.3-8.2,12.5-12.3c0.6-0.6-0.1-1,0.7,0.2c1.1,1.6,2.2,3.1,3.3,4.7c1.7,2.4,3.4,4.8,5.1,7.2c0.1,0.2,0.2,0.3,0.4,0.4
			c4.2-4.1,8.3-8.2,12.5-12.3c0.6-0.6-0.1-1,0.7,0.2c1.1,1.6,2.2,3.1,3.3,4.7c1.7,2.4,3.4,4.8,5.1,7.2c0.1,0.2,0.2,0.3,0.4,0.4
			c4.2-4.1,8.3-8.2,12.5-12.3c0.6-0.6-0.1-1,0.7,0.2c1.1,1.6,2.2,3.1,3.3,4.7c1.7,2.4,3.4,4.8,5.1,7.2c0.1,0.2,0.2,0.3,0.4,0.4
			c4.2-4.1,8.3-8.2,12.5-12.3c0.6-0.6-0.1-1,0.7,0.2c1.1,1.6,2.2,3.1,3.3,4.7c1.7,2.4,3.4,4.8,5.1,7.2c0.1,0.2,0.2,0.3,0.4,0.4
			c4.2-4.1,8.3-8.2,12.5-12.3c0.6-0.6-0.1-1,0.7,0.2c1.1,1.6,2.2,3.1,3.3,4.7c1.7,2.4,3.4,4.8,5.1,7.2c0.1,0.2,0.2,0.3,0.4,0.4
			c4.2-4.1,8.3-8.2,12.5-12.3c0.6-0.6-0.1-1,0.7,0.2c1.1,1.6,2.2,3.1,3.3,4.7c1.7,2.4,3.4,4.8,5.1,7.2c0.1,0.2,0.2,0.3,0.4,0.4
			c4.2-4.1,8.3-8.2,12.5-12.3c0.6-0.6-0.1-1,0.7,0.2c1.1,1.6,2.2,3.1,3.3,4.7c1.7,2.4,3.4,4.8,5.1,7.2c0.1,0.2,0.2,0.3,0.4,0.4
			c4.2-4.1,8.3-8.2,12.5-12.3c0.6-0.6-0.1-1,0.7,0.2c1.1,1.6,2.2,3.1,3.3,4.7c1.7,2.4,3.4,4.8,5.1,7.2c0.1,0.2,0.2,0.3,0.4,0.4
			c4.2-4.1,8.3-8.2,12.5-12.3c0.6-0.6-0.1-1,0.7,0.2c1.1,1.6,2.2,3.1,3.3,4.7c1.7,2.4,3.4,4.8,5.1,7.2c0.1,0.2,0.2,0.3,0.4,0.4
			c4.2-4.1,8.3-8.2,12.5-12.3c0.6-0.6-0.1-1,0.7,0.2c1.1,1.6,2.2,3.1,3.3,4.7c1.7,2.4,3.4,4.8,5.1,7.2c0.1,0.1,0.2,0.2,0.2,0.3
			c0.1,0.1,0.1,0.1,0.1,0.1c6.3-3.5,12.3-7.8,15.9-13.1C339.7-202.8,340.8-205.4,341.3-208.2z M319.1-194.1
			c-2.9-4.1-5.8-8.3-8.7-12.4c-0.1-0.2-0.2-0.3-0.4-0.4c-4.2,4.1-8.3,8.2-12.5,12.3c-0.6,0.6,0.1,1-0.7-0.2
			c-1.1-1.6-2.2-3.1-3.3-4.7c-1.7-2.4-3.4-4.8-5.1-7.2c-0.1-0.2-0.2-0.3-0.4-0.4c-4.2,4.1-8.3,8.2-12.5,12.3c-0.6,0.6,0.1,1-0.7-0.2
			c-1.1-1.6-2.2-3.1-3.3-4.7c-1.7-2.4-3.4-4.8-5.1-7.2c-0.1-0.2-0.2-0.3-0.4-0.4c-4.2,4.1-8.3,8.2-12.5,12.3c-0.6,0.6,0.1,1-0.7-0.2
			c-1.1-1.6-2.2-3.1-3.3-4.7c-1.7-2.4-3.4-4.8-5.1-7.2c-0.1-0.2-0.2-0.3-0.4-0.4c-4.2,4.1-8.3,8.2-12.5,12.3c-0.6,0.6,0.1,1-0.7-0.2
			c-1.1-1.6-2.2-3.1-3.3-4.7c-1.7-2.4-3.4-4.8-5.1-7.2c-0.1-0.2-0.2-0.3-0.4-0.4c-4.2,4.1-8.3,8.2-12.5,12.3c-0.6,0.6,0.1,1-0.7-0.2
			c-1.1-1.6-2.2-3.1-3.3-4.7c-1.7-2.4-3.4-4.8-5.1-7.2c-0.1-0.2-0.2-0.3-0.4-0.4c-4.2,4.1-8.3,8.2-12.5,12.3c-0.6,0.6,0.1,1-0.7-0.2
			c-1.1-1.6-2.2-3.1-3.3-4.7c-1.7-2.4-3.4-4.8-5.1-7.2c-0.1-0.2-0.2-0.3-0.4-0.4c-4.2,4.1-8.3,8.2-12.5,12.3c-0.6,0.6,0.1,1-0.7-0.2
			c-1.1-1.6-2.2-3.1-3.3-4.7c-1.7-2.4-3.4-4.8-5.1-7.2c-0.1-0.2-0.2-0.3-0.4-0.4c-4.2,4.1-8.3,8.2-12.5,12.3c-0.6,0.6,0.1,1-0.7-0.2
			c-1.1-1.6-2.2-3.1-3.3-4.7c-1.7-2.4-3.4-4.8-5.1-7.2c-0.1-0.2-0.2-0.3-0.4-0.4c-4.2,4.1-8.3,8.2-12.5,12.3c-0.6,0.6,0.1,1-0.7-0.2
			c-1.1-1.6-2.2-3.1-3.3-4.7c-1.7-2.4-3.4-4.8-5.1-7.2c-0.1-0.2-0.2-0.3-0.4-0.4c-4.2,4.1-8.3,8.2-12.5,12.3c-0.6,0.6,0.1,1-0.7-0.2
			c-1.1-1.6-2.2-3.1-3.3-4.7c-1.7-2.4-3.4-4.8-5.1-7.2c-0.1-0.2-0.2-0.3-0.4-0.4c-4.2,4.1-8.3,8.2-12.5,12.3c-0.6,0.6,0.1,1-0.7-0.2
			c-1.1-1.6-2.2-3.1-3.3-4.7c-1.7-2.4-3.4-4.8-5.1-7.2c-0.1-0.2-0.2-0.3-0.4-0.4c-4.2,4.1-8.3,8.2-12.5,12.3c-0.6,0.6,0.1,1-0.7-0.2
			c-1.1-1.6-2.2-3.1-3.3-4.7c-1.7-2.4-3.4-4.8-5.1-7.2c-0.1-0.2-0.2-0.3-0.4-0.4c-4.2,4.1-8.3,8.2-12.5,12.3c-0.6,0.6,0.1,1-0.7-0.2
			c-1.1-1.6-2.2-3.1-3.3-4.7c-1.7-2.4-3.4-4.8-5.1-7.2c-0.1-0.2-0.2-0.3-0.4-0.4c-2.2,2.3-4.4,4.5-6.6,6.8c-0.9,0.9-3.7,4.9-5.1,4.6
			c-9.9-2.3-19.9-4.6-29.7-7.1c13.7-12.5,31.8-19.5,49.5-24.4c17.4-4.8,35.4-7.5,53.4-8.8c12.4-0.9,24.8-0.4,37.2-0.2
			c58.7,0.8,117.4,1.7,176.2,2.5c6,0.1,12,0.2,18.1,0.3c2.7,0,3.6-0.1,5.8,1.3c2.6,1.6,5,3.5,7.3,5.5c1.5,1.3,2.9,2.8,4.3,4.3
			c0.7,0.8,1.4,1.8,2,2.7c0.2,0.3,0.4,0.6,0.6,0.9C341.8-208.5,328.3-199.2,319.1-194.1z"/>
	</g>
</g>
<path id="XMLID_99_" class="st3" d="M1532.3,288.8h-492.4c-47.6,0-86.3,36.5-86.3,81.8v0.4c0,45.4,38.7,82.8,86.3,82.8h492.4
	c47.6,0,86.3-37.4,86.3-82.8v-0.4C1618.6,325.2,1579.9,288.8,1532.3,288.8z M1608.6,371c0,39.9-34.2,72.8-76.3,72.8h-492.4
	c-42.1,0-76.3-32.8-76.3-72.8v-0.4c0-39.9,34.2-71.8,76.3-71.8h492.6c42.1,0,76.1,31.9,76.1,71.8V371z"/>
<g id="XMLID_141_">
	<path id="XMLID_146_" class="st0" d="M34.7-56.9c-0.3-0.2-0.5-0.3-0.6-0.3C34.3-57.1,34.5-57,34.7-56.9z"/>
	<path id="XMLID_145_" class="st1" d="M382.4-100.1c-5.2,0-10.3,0-15.5,0c-63.4-0.1-126.9-0.1-190.3-0.2
		c-65.6-0.1-131.2-0.1-196.8-0.1c-7.9,0-15.8,0-23.7,0c-5,0-10.5-0.7-5,5.5c2.5,2.8,5.2,3,9.4,3.3c3.5,0.3,7.1,0.3,10.6,0.4
		c5.2,0.2,9.3,1.2,13.8,3.4c3.1,1.5,8.2,3.9,7.1,7.6c-0.7,2.4-2.8,4-5.4,5c-9.2,3.4-33.2,1.6-36.1,12.1c5.6,0.8,11.3,1.6,16.9,2.3
		c1.8,0.2,8.4,2.8,8.8,4.4c0.3,1.2,0.7,2.5,1.3,3.6c0.8-0.1,1.5-0.3,2.2-0.6c1.2-0.9,1.3-1.7,1.4-3l0-0.1c4.6-1.6,17.7,3.1,18.9,2.4
		c2.9-1.9,2.5-4.2,3.3-6.9l0.2-0.1c4.8,0.5,17.6,6,18.7,5.2c2.3-1.7,1.9-3.3,2.6-5.6l0.2,0c5.2,0.8,17.5,6.4,18.6,5.6
		c2.3-1.7,1.9-3.4,2.6-5.6l0.2,0c5.2,0.9,17.4,6.4,18.6,5.6c2.3-1.7,1.8-3.4,2.6-5.6l0.2,0c5.2,0.9,17.4,6.4,18.6,5.6
		c2.3-1.7,1.8-3.4,2.6-5.6l0.2,0c5.2,0.9,17.4,6.4,18.6,5.6c2.3-1.7,1.8-3.4,2.6-5.6l0.2,0c5.2,0.9,17.4,6.4,18.6,5.6
		c2.3-1.7,1.8-3.4,2.6-5.6l0.2,0c5.2,0.9,17.4,6.4,18.6,5.6c2.3-1.7,1.8-3.4,2.6-5.6l0.2,0c5.2,0.9,17.4,6.4,18.6,5.6
		c2.3-1.7,1.8-3.4,2.6-5.6l0.2,0c5.2,0.9,17.4,6.4,18.6,5.6c2.3-1.7,1.8-3.4,2.6-5.6l0.2,0c5.2,0.9,17.4,6.4,18.6,5.6
		c2.3-1.7,1.8-3.4,2.6-5.6l0.2,0c5.2,0.9,17.4,6.4,18.6,5.6c2.3-1.7,1.8-3.4,2.6-5.6l0.2,0c5.2,0.9,17.4,6.4,18.6,5.6
		c2.3-1.7,1.8-3.4,2.6-5.6l0.2,0c4.9,0.8,9.6,3.4,13.6,6c2.1-1.2,5-2.4,7-3.6c0.2-0.7,0.3-1.5,0.6-2.4l0.2,0
		c0.8,0.1,1.5,0.3,2.3,0.5c1-0.6,2-1.2,3-1.8c9.2-5.5,18.5-11,27.7-16.5c3.2-1.9,5.6-4,9.5-4.2c11.5-0.6,22,1.3,32,6.3
		c4.5,2.3,7.6,5.3,9.4,8.4c0-0.1-0.1-0.1-0.1-0.2C377.5-76.4,383.7-87.3,382.4-100.1z"/>
	<path id="XMLID_142_" d="M-60-104c-1.2,6.4,12.3,12.3,17.5,14.2c4.9,1.8,9.9,2.5,15.3,2.8c2.8,0.1,5.6,0.1,8.5,0.2
		c0.6,0,1.2,0.1,1.9,0.1c0,0.2,0.1,0.4,0.1,0.7c0.1,5-6.6,6.9-11.3,7.8c-9.7,2-31.9,1.1-30.6,13.7c0.2,1.5,7.2,4.2,8.8,4.4
		c6.2,0.9,12.3,1.7,18.5,2.6c1.3,2.4,3.5,4.3,6.4,5.8c3.8,2,14.9,6.7,15.2-0.5c0,0,0,0,0-0.1c0.4-0.1,11.6,3.8,15.4,3.4
		c5.4-0.6,5.5-3.6,6.7-7.3c0-0.2,0.1-0.3,0.2-0.3c0.1,0.1,0.3,0.2,0.4,0.3c2.1,1.4,4.5,2.5,6.8,3.6c3.2,1.4,6.4,2.4,10,1.8
		c2.1-0.4,3.2-2,3.9-3.6c0.3-0.8,0.1-1.6,0.3-2.3c4.6,3.6,15.5,9,20.3,3.9c0.3-0.3,1.2-2.7,1.3-3.8c0.3,0.2,0.6,0.4,1,0.6
		c3.6,2.2,7.7,4.2,12.1,5.1c4.1,0.8,7.2-1,8-4.3c-0.1,0.1,0-0.9,0.1-1.6c1.5,1.1,3.3,2,5,2.9c3.4,1.7,7.1,3.3,11.1,3.1
		c1.8-0.1,3.1-0.9,4.1-2c0.8-0.9,0.6-2.9,1.1-3.8c0.7,0.4,1.6,0.8,2.1,1.1c2,1.1,4,2.1,6.2,3c3.4,1.4,7.3,2.5,10.8,0.8
		c2.1-1,2.4-3.3,2.5-5.1c3.5,2.3,7.5,4.4,11.7,5.5c3.5,1,7.2,0.6,9-2.3c0.5-0.8,0.2-2.3,0.5-3c0.9,0.5,2.3,1.2,2.9,1.6
		c3.5,1.9,7.3,3.8,11.4,4.3c5.4,0.7,6.1-2.7,7.2-6c0,0,0,0,0,0c0-0.1,0.1-0.2,0.1-0.3c0.4-1.1,4.2,2.8,6.2,3.7c3.5,1.6,7,3,11,2.3
		c2.1-0.4,3.2-1.9,3.9-3.5c0.3-0.8,0.1-1.5,0.3-2.3c0,0,0,0,0,0c0-0.1,0-0.2,0.1-0.3c0.4-1.1,6.7,4.1,10,5.3
		c3.2,1.1,6.8,1.6,9.6-0.4c1.7-1.2,1.3-3,1.7-4.6c0,0,0,0,0,0c0,0,0,0,0,0c0-0.1,1,0.7,1.2,0.8c5.1,3.1,17.9,9.5,20.1,0.8
		c-0.1,0.1,0-0.9,0.1-1.5c1.2,0.9,2.5,1.6,3.9,2.3c3.7,1.9,7.8,4,12.3,3.7c1.8-0.1,3.1-0.9,4.1-2c0.3-0.3,1.2-2.7,1.3-3.8
		c0.3,0.2,0.6,0.4,1,0.6c2.2,1.3,4.6,2.5,7,3.5c3.1,1.3,6.5,2.3,10,1.2c2-0.6,3.1-4.8,3.3-5.5c1,0.7,2.3,1.5,3.8,2.3
		c0.5-0.3,1.1-0.6,1.6-1c-0.2-0.1-0.3-0.2-0.5-0.3c-4-2.6-8.7-5.1-13.6-6l-0.2,0c-0.8,2.2-0.3,3.9-2.6,5.6
		c-1.1,0.8-13.4-4.7-18.6-5.6l-0.2,0c-0.8,2.2-0.3,3.9-2.6,5.6c-1.1,0.8-13.4-4.7-18.6-5.6l-0.2,0c-0.8,2.2-0.3,3.9-2.6,5.6
		c-1.1,0.8-13.4-4.7-18.6-5.6l-0.2,0c-0.8,2.2-0.3,3.9-2.6,5.6c-1.1,0.8-13.4-4.7-18.6-5.6l-0.2,0c-0.8,2.2-0.3,3.9-2.6,5.6
		c-1.1,0.8-13.4-4.7-18.6-5.6l-0.2,0c-0.8,2.2-0.3,3.9-2.6,5.6c-1.1,0.8-13.4-4.7-18.6-5.6l-0.2,0c-0.8,2.2-0.3,3.9-2.6,5.6
		c-1.1,0.8-13.4-4.7-18.6-5.6l-0.2,0c-0.8,2.2-0.3,3.9-2.6,5.6c-1.1,0.8-13.4-4.7-18.6-5.6l-0.2,0c-0.8,2.2-0.3,3.9-2.6,5.6
		c-1.1,0.8-13.4-4.7-18.6-5.6l-0.2,0c-0.8,2.2-0.3,3.9-2.6,5.6c-1.1,0.8-13.4-4.8-18.6-5.6l-0.2,0c-0.7,2.2-0.3,4-2.6,5.6
		c-1.1,0.8-13.4-4.7-18.6-5.6l-0.2,0c-0.8,2.3-0.3,3.9-2.6,5.6c-1.2,0.8-13.9-4.7-18.7-5.2l-0.2,0.1c-0.8,2.7-0.5,5-3.3,6.9
		c-1.2,0.8-14.3-4-18.9-2.4l0,0.1c-0.1,1.3-0.2,2.1-1.4,3c-0.7,0.3-1.4,0.6-2.2,0.6c-0.6-1.2-1.1-2.4-1.3-3.6
		c-0.4-1.6-7-4.2-8.8-4.4c-5.6-0.8-11.3-1.6-16.9-2.3c2.9-10.5,26.9-8.7,36.1-12.1c2.6-1,4.7-2.6,5.4-5c1.1-3.7-4-6-7.1-7.6
		c-4.5-2.2-8.6-3.2-13.8-3.4c-3.5-0.1-7.1-0.1-10.6-0.4c-4.2-0.3-6.9-0.5-9.4-3.3c-5.5-6.2,0-5.5,5-5.5c7.9,0,15.8,0,23.7,0
		c65.6,0,131.2,0.1,196.8,0.1c63.4,0,126.9,0.1,190.3,0.2c5.2,0,10.3,0,15.5,0c1.4,12.9-4.8,23.7-16.4,31.2c0,0.1,0.1,0.1,0.1,0.2
		c1.4,2.5,2.1,5.2,2.2,7.9c17.2-7.9,26.4-22.2,22.4-39.3c-0.2-0.9-2.5-1.8-3.7-2.3c-1.5-0.8-3.6-2.1-5.1-2.1
		c-41.4,0-82.8-0.1-124.2-0.1c-73.8-0.1-147.6-0.1-221.4-0.2c-25.4,0-50.9,0-76.3,0c-5.7,0-11.4,0-17.2,0
		C-58.3-104.9-59.7-105.1-60-104z M34.1-57.1c0.1,0,0.3,0.1,0.6,0.3C34.5-57,34.3-57.1,34.1-57.1z"/>
</g>
</svg>
