<?xml version="1.0" encoding="utf-8"?>
<!-- Generator: Adobe Illustrator 16.0.0, SVG Export Plug-In . SVG Version: 6.00 Build 0)  -->
<!DOCTYPE svg PUBLIC "-//W3C//DTD SVG 1.1//EN" "http://www.w3.org/Graphics/SVG/1.1/DTD/svg11.dtd">
<svg version="1.1" id="Camada_1" xmlns="http://www.w3.org/2000/svg" xmlns:xlink="http://www.w3.org/1999/xlink" x="0px" y="0px"
	 width="536.973px" height="180.605px" viewBox="0 0 536.973 180.605" enable-background="new 0 0 536.973 180.605"
	 xml:space="preserve">
<path fill="#FFFFFF" d="M0,0v180.605h536.973V0H0z M528.613,172.246H8.36V8.36h520.253V172.246z"/>
<g enable-background="new    ">
	<path fill="#E5B449" d="M48.633,110.227l-23.136-9.938v-4.102l23.136-9.938v5.146l-16.199,6.861l16.199,6.823V110.227z"/>
	<path fill="#E5B449" d="M481.234,81.477L470.55,116.53h-5.172l10.631-35.052H481.234z"/>
	<path fill="#E5B449" d="M511.486,100.289l-23.136,9.938v-5.146l16.198-6.843l-16.198-6.842V86.25l23.136,9.938V100.289z"/>
</g>
<g enable-background="new    ">
	<path fill="#FFFFFF" d="M89.443,154.313c-0.482-2.114-0.482-4.275,0-6.484c0.479-2.211,0.624-4.373,0.433-6.485
		c-1.25,5.283-1.441,9.606-0.577,12.97l-0.577,0.721c-0.193,0.191-0.241,0.311-0.144,0.36c0.095,0.047,0.144,0.167,0.144,0.36
		c-0.576-0.193-0.937-0.481-1.081-0.864c-0.144-0.386-0.554-0.674-1.225-0.865v0.145c0,0.191,0.047,0.335,0.145,0.432
		c-0.097,0.095-0.169,0.072-0.216-0.071c-0.05-0.145-0.169-0.217-0.36-0.217c-0.097,0.191-0.097,0.311,0,0.36
		c0.095,0.048,0,0.167-0.288,0.36c-0.577,0-0.961-0.144-1.153-0.433c-0.194-0.288-0.385-0.528-0.577-0.72
		c-0.77-0.577-1.513-1.203-2.233-1.874c-0.721-0.673-1.32-1.682-1.801-3.026c-0.095-3.267,0.049-6.822,0.432-10.663
		c0.385-3.842,0.817-7.589,1.297-11.24l0.865-8.791c-0.097-0.191-0.122-0.238-0.072-0.144c0.047,0.097,0.022,0.144-0.072,0.144
		l1.153-5.476c0.191-1.633,0.407-3.146,0.648-4.54c0.239-1.392,0.552-2.857,0.937-4.395c0.479-2.306,0.959-4.634,1.441-6.989
		c0.479-2.354,0.959-4.49,1.441-6.413c0.191-0.383,0.263-0.695,0.216-0.937c-0.05-0.238,0.022-0.599,0.216-1.081
		c0.865-4.129,1.752-8.55,2.666-13.258c0.912-4.706,1.752-9.078,2.522-13.113c0.865-2.688,1.536-5.235,2.018-7.638
		c0.191-1.633,0.383-3.337,0.576-5.116c0.191-1.776,0.383-3.434,0.577-4.972c0.191-0.191,0.311-0.576,0.36-1.152
		c0.047-0.576,0.022-1.009-0.072-1.297c0.191-1.153,0.383-2.473,0.577-3.963c0.191-1.488-0.194-2.666-1.153-3.531
		c0-1.056,0.145-1.873,0.433-2.449s0.335-1.345,0.144-2.306c0.383-0.191,0.671-0.288,0.865-0.288
		c0.479-0.577,0.768-1.176,0.865-1.802c0.094-0.624,0.335-1.175,0.72-1.657c0.191-0.576,0.599-0.937,1.225-1.081
		c0.624-0.144,1.175-0.407,1.657-0.792c0.191,0,0.288,0.024,0.288,0.072c0,0.049,0.095,0.121,0.288,0.216
		c0.865,0,1.633,0.097,2.306,0.288c0.671,0.193,1.272,0.481,1.801,0.864c0.527,0.386,1.056,0.746,1.585,1.081
		c0.527,0.338,1.128,0.648,1.801,0.937l2.306,3.459c0,0.77,0,1.657,0,2.666s-0.097,2.042-0.288,3.098
		c-1.059,8.646-2.258,17.055-3.603,25.219c-1.347,8.167-2.882,16.572-4.612,25.219c0.48-0.288,0.959-0.624,1.441-1.009
		c0.479-0.383,0.959-0.671,1.441-0.864c0.288-0.671,0.696-1.128,1.225-1.369c0.527-0.238,1.081-0.599,1.657-1.081l1.153-1.297
		c0.479-0.576,0.959-1.081,1.441-1.513c0.479-0.433,0.959-0.888,1.441-1.369l7.782-6.629c1.344-1.153,2.738-2.306,4.179-3.459
		c1.441-1.152,2.785-2.306,4.035-3.458c0.479-0.769,1.056-1.441,1.729-2.018c0.671-0.576,1.344-1.104,2.018-1.585
		c0-0.48,0.144-0.793,0.432-0.938c0.289-0.144,0.577-0.311,0.865-0.504c0.288-0.288,0.624-0.552,1.009-0.793
		c0.383-0.238,0.671-0.599,0.865-1.08c0.576-0.671,1.248-1.441,2.018-2.306c0.768-0.865,1.488-1.824,2.162-2.883
		c0.191,0.097,0.335,0.05,0.432-0.144c0.095-0.191,0.288-0.239,0.577-0.145l0.144-0.144l0.288-0.145
		c0.191,0.481,0.479,0.385,0.865-0.288c0.094,0.097,0.263,0.097,0.504,0c0.238-0.095,0.407-0.145,0.504-0.145
		c0.288,0.288,0.648,0.505,1.081,0.648c0.432,0.145,0.84,0.36,1.225,0.648h0.576c0.191-0.191,0.288-0.36,0.288-0.504
		c0-0.145,0.047-0.216,0.145-0.216c0.288,0,0.527,0.121,0.72,0.359c0.191,0.241,0.383,0.458,0.577,0.649
		c-0.194,0.864-0.385,1.49-0.577,1.873c-0.193,0.385-0.385,0.864-0.576,1.441h0.144c-0.288,0.385-0.577,0.745-0.865,1.08
		c-0.288,0.338-0.626,0.698-1.009,1.081l0.433-1.153c-0.865,0.962-1.779,1.826-2.738,2.595c-0.961,0.77-1.729,1.682-2.306,2.737
		c0.479-0.479,0.984-1.056,1.513-1.729c0.527-0.672,1.175-1.2,1.945-1.586l0.721-0.432l-3.026,2.882
		c-0.482,0.576-1.009,1.225-1.585,1.945c-0.577,0.721-1.203,1.322-1.874,1.802c-0.194,0.288-0.457,0.504-0.792,0.648
		c-0.338,0.144-0.602,0.216-0.793,0.216c-0.481,0.771-1.058,1.394-1.729,1.873c-0.673,0.482-1.25,1.059-1.729,1.729
		c-0.193,0.097-0.36,0.266-0.504,0.505c-0.144,0.24-0.313,0.457-0.504,0.648c-0.673,0.961-1.466,1.851-2.377,2.666
		c-0.914,0.817-1.851,1.609-2.81,2.377c-0.77,0.865-1.513,1.657-2.234,2.378c-0.72,0.721-1.61,1.322-2.666,1.802
		c0,0.77-0.241,1.297-0.72,1.585c-0.482,0.288-1.009,0.626-1.585,1.009c-0.864,0.962-1.851,1.851-2.954,2.666
		c-1.105,0.817-2.186,1.61-3.242,2.378c-0.194,0-0.216-0.072-0.072-0.217c0.144-0.144,0.12-0.216-0.072-0.216
		c-0.194,0.193-0.36,0.36-0.504,0.505c-0.144,0.144-0.313,0.313-0.504,0.504c-0.194,0-0.457,0.072-0.792,0.216
		c-0.338,0.145-0.554,0.122-0.649-0.071c-0.385,0.481-0.698,0.673-0.937,0.576c-0.241-0.095-0.504,0.097-0.792,0.576
		c-0.194,0-0.194-0.095,0-0.288l-3.891,3.17c1.344,1.729,2.544,3.628,3.603,5.692c1.056,2.067,1.824,4.107,2.306,6.125
		c1.441,3.94,2.785,7.831,4.035,11.672c1.248,3.844,2.93,7.494,5.044,10.952c0.479,0.577,0.815,1.203,1.009,1.874
		c0.191,0.673,0.527,1.347,1.009,2.018l1.441,1.873c0.479,0.576,0.887,1.152,1.225,1.729c0.335,0.576,0.216,1.344-0.36,2.306
		c-0.289,0-0.648-0.025-1.081-0.072c-0.432-0.05-0.842-0.169-1.225-0.36c-0.194,0-0.241,0.022-0.144,0.072
		c0.094,0.047,0.144,0.166,0.144,0.36c-0.194,0-0.385-0.05-0.577-0.145c-0.193-0.097-0.385-0.097-0.576,0
		c-0.289,1.153,0.047,1.824,1.009,2.018c0.094,0.191,0.072,0.264-0.072,0.216c-0.144-0.049-0.169,0.023-0.072,0.217
		c-0.193,0.383-0.432,0.407-0.72,0.072c-0.288-0.338-0.529-0.602-0.721-0.793c-0.673-0.288-1.394-0.673-2.162-1.153
		c-0.77-0.481-1.538-0.961-2.306-1.44c-0.193-0.193-0.385-0.433-0.576-0.721c-0.194-0.288-0.385-0.336-0.577-0.145v-0.144v-0.433
		c-0.482-0.095-0.77-0.238-0.865-0.433c-0.193-0.191-0.288-0.335-0.288-0.432l-0.721-0.865c0,0.289,0.047,0.482,0.145,0.577
		c-0.482,0.193-0.842,0.169-1.081-0.072c-0.241-0.239-0.457-0.527-0.648-0.865c-0.194-0.335-0.385-0.671-0.577-1.008
		c-0.193-0.336-0.481-0.552-0.864-0.649c-0.865-0.576-1.441-1.463-1.729-2.665c-0.288-1.2-0.817-2.138-1.585-2.811
		c-0.194-1.056-0.648-1.993-1.369-2.81c-0.721-0.815-1.081-1.946-1.081-3.387c-0.77-1.824-1.538-3.77-2.306-5.837
		c-0.77-2.064-1.538-4.057-2.306-5.98c-0.288-0.191-0.529-0.335-0.72-0.432c-0.194-0.095-0.241-0.383-0.144-0.865
		c-0.673,3.364-1.347,6.87-2.018,10.521c-0.673,3.651-1.25,7.255-1.729,10.808c-0.193,0.961-0.338,1.898-0.432,2.81
		c-0.097,0.915-0.338,1.755-0.721,2.522c-0.193,2.688-0.482,5.548-0.865,8.574c-0.385,3.026-0.626,5.739-0.72,8.142
		c0.094,0.577,0.191,1.176,0.288,1.802c0.095,0.624,0.095,1.175,0,1.657c-0.482,0-0.817-0.193-1.009-0.576
		c-0.193,0.191-0.241,0.311-0.144,0.36c0.095,0.047,0.095,0.119,0,0.216c-0.194,0-0.288-0.05-0.288-0.145
		c0-0.097-0.05-0.144-0.144-0.144c0.191-0.771,0.191-1.419,0-1.945c-0.194-0.529-0.194-1.131,0-1.802
		c0.094,0.095,0.119,0.216,0.072,0.36c-0.049,0.145-0.025,0.216,0.072,0.216c0.191-0.193,0.191-0.481,0-0.864
		c0.094-1.635,0.216-3.364,0.36-5.188c0.144-1.826,0.216-3.556,0.216-5.188l0.144-1.729c-0.385,0.479-0.554,1.08-0.504,1.801
		c0.047,0.721-0.168,1.416-0.648,2.09c-0.097,0.191-0.122,0.383-0.072,0.576c0.047,0.191,0.022,0.288-0.072,0.288
		c0-0.193-0.025-0.481-0.072-0.864c-0.05-0.386,0.022-0.817,0.216-1.297v0.576l0.289-0.433l-0.289-0.288l0.721-2.449
		c-0.097-0.098-0.338-0.05-0.721,0.144c0,0.191,0.072,0.216,0.216,0.072c0.144-0.145,0.167-0.122,0.072,0.072
		c-0.194,0.094-0.241,0.238-0.145,0.432c0.095,0.191,0.047,0.383-0.144,0.577c-0.193,1.152-0.36,2.328-0.504,3.53
		c-0.144,1.2-0.266,2.473-0.36,3.818c-0.097,0.577-0.097,1.153,0,1.729c0.094,0.576,0.094,1.104,0,1.585
		c0.094,0.095,0.119,0.048,0.072-0.144c-0.049-0.193,0.022-0.241,0.216-0.145c0.191,0.671,0.263,1.441,0.216,2.306
		c-0.05,0.865,0.022,1.633,0.216,2.306c0.191,0.288,0.191,0.527,0,0.721c-0.288,0-0.554,0.022-0.792,0.072
		c-0.241,0.047-0.504-0.024-0.792-0.216c-0.288,0.094-0.338,0.191-0.144,0.288c0.191,0.095,0.238,0.238,0.144,0.432
		C89.97,154.407,89.731,154.313,89.443,154.313z M81.517,127.509c0,0.288-0.022,0.457-0.072,0.505
		c-0.047,0.049-0.072,0.121-0.072,0.216c-0.095,0-0.12-0.119-0.072-0.36C81.351,127.631,81.422,127.509,81.517,127.509z
		 M81.805,122.61v0.576V122.61z M83.679,154.89c0-0.098-0.025-0.145-0.072-0.145c-0.049,0-0.072-0.05-0.072-0.145
		C83.629,154.407,83.679,154.504,83.679,154.89z M89.443,154.601c-0.097,0-0.144-0.097-0.144-0.288h0.144V154.601z M92.037,153.16
		c-0.097,0-0.144,0.022-0.144,0.072c0,0.047-0.049,0.071-0.144,0.071v-0.144H92.037z M92.901,135.003
		c0,0.385-0.024,0.77-0.072,1.152c-0.05,0.383,0.022,0.671,0.216,0.865l0.433-2.307c0.191-0.288,0.311-0.623,0.36-1.008
		c0.047-0.383-0.072-0.672-0.36-0.865l-0.721,2.162H92.901z M108.753,124.915c0,0.481,0.047,0.721,0.145,0.721
		C108.992,125.541,108.944,125.3,108.753,124.915z M109.33,126.357c0,0.288,0.047,0.432,0.144,0.432L109.33,126.357z
		 M112.644,131.544c-0.288-0.288-0.577-0.599-0.865-0.937c-0.288-0.336-0.576-0.743-0.865-1.225
		C111.297,130.344,111.874,131.065,112.644,131.544z M112.5,89.753c-0.097,0.288-0.169,0.457-0.216,0.505
		c-0.049,0.049-0.169,0.121-0.36,0.216C112.115,89.994,112.306,89.753,112.5,89.753z M146.221,59.059
		c-0.097,0.193-0.169,0.288-0.216,0.288c-0.049,0-0.122,0.05-0.216,0.145L146.221,59.059z M148.382,56.609l0.432-0.864v0.145
		L148.382,56.609z"/>
</g>
<g enable-background="new    ">
	<path fill="#FFFFFF" d="M181.649,118.816l0.133-0.267l0.4-0.267l-0.8,1.599c-0.179,0.445-0.445,0.846-0.799,1.199
		c-0.356,0.356-0.622,0.756-0.799,1.199l-0.533,1.065c0.266-0.177,0.466-0.443,0.6-0.799c0.133-0.354,0.42-0.666,0.866-0.933
		c-0.089,0.355-0.289,0.646-0.6,0.865c-0.312,0.224-0.556,0.557-0.732,1c-0.179,0.179-0.4,0.512-0.667,0.999
		c-0.266,0.489-0.489,0.822-0.666,0.999c-0.179,0-0.267,0.046-0.267,0.134c-0.622,0.712-1.289,1.312-1.998,1.798
		c-0.712,0.489-1.422,0.956-2.132,1.399v0.267c-0.179,0.179-0.379,0.267-0.6,0.267c-0.223,0-0.422,0.045-0.6,0.133v0.133
		c-0.267,0-0.579,0.09-0.933,0.267c-0.179-0.087-0.399-0.087-0.666,0c-0.267,0.09-0.489,0.134-0.666,0.134
		c-0.356,0-0.446,0.046-0.267,0.133c0.177,0.09,0.133,0.09-0.133,0c-0.445-0.087-0.889-0.243-1.333-0.466
		c-0.445-0.221-0.799-0.421-1.065-0.6c-0.446-0.354-0.866-0.621-1.266-0.8c-0.399-0.177-0.689-0.354-0.866-0.533
		c-0.889-0.532-1.622-1.286-2.198-2.265c-0.579-0.977-1.045-2.042-1.399-3.197c0,0.09-0.133-0.088-0.4-0.533
		c0.177,0,0.267,0.046,0.267,0.134c0,0.089,0.043,0.045,0.133-0.134c-0.356-0.354-0.579-0.799-0.666-1.332
		c-0.09-0.533-0.223-1.066-0.4-1.599c0-0.443-0.023-0.71-0.066-0.8c-0.046-0.087-0.023-0.267,0.066-0.533
		c0-0.177-0.089-0.354-0.267-0.532l-0.266-3.73c0-0.088-0.023-0.267-0.067-0.533c-0.046-0.267-0.066-0.487-0.066-0.666
		c0-0.71-0.023-1.133-0.067-1.266c-0.046-0.134-0.066-0.244-0.066-0.333c0-0.088,0-0.244,0-0.467c0-0.221,0.043-0.732,0.133-1.532
		c-1.245,1.955-2.621,4.264-4.13,6.929c-1.511,2.664-3.021,4.975-4.53,6.928c-0.712,1.155-1.445,2.198-2.198,3.131
		c-0.756,0.933-1.622,1.799-2.598,2.598c0,0.09,0.044,0.134,0.133,0.134c-0.533,0.179-1.045,0.422-1.532,0.732
		c-0.489,0.313-0.956,0.512-1.399,0.6c-0.622,0.179-1.132,0.333-1.532,0.466c-0.399,0.134-0.866,0.156-1.399,0.067
		c-0.712,0-1.311-0.11-1.798-0.333c-0.489-0.221-1.045-0.421-1.666-0.6c-0.533-0.267-1.022-0.511-1.465-0.733
		c-0.446-0.221-0.889-0.554-1.333-0.999c-0.533-1.332-0.933-2.798-1.199-4.396c-0.267-1.42-0.29-2.998-0.067-4.729
		c0.221-1.732,0.42-3.219,0.6-4.464c0-0.266,0.021-0.599,0.066-0.999c0.044-0.399,0.154-0.732,0.333-0.999
		c0.087-1.687,0.354-3.374,0.799-5.063c0.443-1.687,0.933-3.418,1.465-5.196c0.533-1.775,1.087-3.597,1.666-5.462
		c0.577-1.865,0.999-3.73,1.266-5.596c0.71-0.354,1.332-1.199,1.865-2.532c0.443-0.443,0.887-0.576,1.332-0.399
		c0.444,0.18,0.887,0.18,1.333,0c0.71,0.09,1.553,0.399,2.531,0.933c0.977,0.533,1.776,0.889,2.398,1.066
		c0.533,0.355,0.843,0.865,0.933,1.532c0.087,0.666,0.087,1.378,0,2.131c-0.09,0.756-0.246,1.556-0.466,2.398
		c-0.223,0.846-0.379,1.622-0.466,2.332l-0.667,3.063c-0.179,0.979-0.466,2.065-0.866,3.265c-0.4,1.199-0.689,2.244-0.866,3.131
		c-0.533,2.221-1.022,4.442-1.465,6.661c-0.446,2.222-0.712,4.709-0.799,7.461c1.153-0.799,2.109-1.976,2.864-3.53
		c0.753-1.553,1.576-2.818,2.465-3.797c0.177-0.354,0.333-0.62,0.466-0.8c0.133-0.177,0.244-0.443,0.333-0.799
		c0.71-1.066,1.353-2.176,1.932-3.331c0.577-1.153,1.176-2.485,1.799-3.997c0.977-1.775,1.909-3.597,2.798-5.462
		c0.887-1.865,1.686-3.818,2.398-5.862c0.621-0.8,1.087-1.732,1.399-2.798c0.311-1.066,0.733-2.086,1.266-3.064
		c0.087-0.177,0.2-0.377,0.333-0.6c0.133-0.221,0.2-0.467,0.2-0.732c0.177-0.178,0.287-0.354,0.333-0.533
		c0.044-0.177,0.2-0.221,0.466-0.134l0.4-0.933c0.177,0,0.31,0.067,0.399,0.2c0.087,0.134,0.177,0.156,0.267,0.066
		c0.177,0,0.267,0.112,0.267,0.333c0,0.223,0.087,0.29,0.266,0.2c-0.179-0.177-0.089-0.243,0.267-0.2
		c0.354,0.046,0.487-0.021,0.4-0.199c0.177-0.177,0.399-0.267,0.666-0.267c0,0.09,0.021,0.156,0.066,0.2
		c0.044,0.045,0.067,0.155,0.067,0.333c0.443,0.179,0.843,0.489,1.199,0.933c0.354,0.445,0.8,0.712,1.333,0.799
		c0.267,0.356,0.42,0.467,0.466,0.333c0.044-0.133,0.11,0.066,0.2,0.6c0-0.087-0.023-0.044-0.066,0.134
		c-0.046,0.179-0.067,0.355-0.067,0.532c0.088,0.18,0.154,0.09,0.2-0.267c0.043-0.354,0.11-0.576,0.2-0.666
		c0,0.18-0.023,0.446-0.066,0.8c-0.046,0.355-0.023,0.533,0.066,0.533c0.087,0.179,0.2,0.223,0.333,0.133
		c0.133-0.087,0.267-0.154,0.4-0.2c0.133-0.043,0.287-0.043,0.466,0c0.177,0.046,0.31,0.246,0.399,0.6l0.133,0.8
		c-0.089,0.799-0.089,1.422,0,1.865c0.087,0.445,0.133,1.022,0.133,1.731v1.333l-1.865,8.127c0,0.179,0.021,0.245,0.066,0.199
		c0.044-0.043,0.021,0.023-0.066,0.2v0.134c0,0.089-0.023,0.155-0.066,0.199c-0.046,0.046-0.067,0.112-0.067,0.2
		c-0.445,2.754-0.799,5.529-1.066,8.327c-0.266,2.798-0.089,5.396,0.533,7.794c0.177,0.712,0.354,1.155,0.533,1.332
		c0.177,0.179,0.4,0.533,0.666,1.065c-0.179,0.533-0.089,0.979,0.267,1.333h0.4v-0.134c0-0.087,0.133-0.221,0.399-0.399
		c0.443-0.088,0.554-0.11,0.333-0.066c-0.223,0.046-0.246,0.022-0.066-0.067c1.153-0.532,2.242-1.419,3.264-2.664
		c1.02-1.243,1.999-2.598,2.931-4.063s1.775-2.998,2.531-4.597c0.753-1.599,1.443-3.019,2.065-4.264
		c-0.089-0.177-0.046-0.221,0.133-0.133c0.177,0.09,0.133,0.046-0.133-0.134h-0.133v-0.266c0.177,0,0.244-0.088,0.2-0.267
		c-0.046-0.177,0.021-0.177,0.2,0c0.177-0.088,0.287-0.287,0.333-0.6c0.044-0.311,0.244-0.51,0.6-0.6
		c0-0.443,0.044-0.82,0.133-1.133c0.087-0.31,0.221-0.687,0.399-1.132c0.267-0.267,0.4-0.8,0.4-1.599v0.266h0.133v0.667
		c0.087-0.444,0.177-1.087,0.267-1.933c0.087-0.843,0.443-1.31,1.065-1.398c0.087-0.177,0.133-0.443,0.133-0.8
		c0-0.354,0.087-0.753,0.267-1.199c0,0.267,0.043,0.4,0.133,0.4c0,0.355-0.023,0.712-0.067,1.065
		c-0.045,0.356,0.021,0.756,0.2,1.199l-0.133,1.466c0.177-0.088,0.244-0.2,0.2-0.333c-0.046-0.134-0.023-0.244,0.067-0.333v0.399
		c0.087-0.088,0.11-0.134,0.066-0.134c-0.046,0-0.023-0.087,0.066-0.266c0.177,0.266,0.2,0.532,0.067,0.799s-0.246,0.533-0.333,0.8
		v-0.666l-0.267,1.198c-0.089,0.446-0.223,0.89-0.4,1.333c-0.179,0.445-0.223,0.933-0.133,1.465l0.399-1.998
		c0,0.267-0.023,0.622-0.066,1.065c-0.046,0.446-0.156,0.756-0.333,0.933c0,0.18-0.046,0.4-0.133,0.667
		c-0.09,0.266-0.133,0.532-0.133,0.799c0.177-0.533,0.354-1.02,0.533-1.466c0.177-0.443,0.267-1.02,0.267-1.731
		c0.177-0.354,0.31-0.666,0.4-0.933c0.087-0.267,0.266-0.577,0.533-0.933c-0.445,1.777-1.066,3.643-1.865,5.596
		c-0.799,1.954-1.511,3.687-2.132,5.195v0.134c-0.179,0.09-0.356,0.622-0.533,1.599l0.267-1.065c0,0.445-0.046,0.732-0.133,0.865
		c-0.09,0.134-0.133,0.29-0.133,0.467c0.177-0.177,0.287-0.421,0.333-0.732c0.044-0.311,0.2-0.554,0.466-0.733
		c0.087,0,0.066,0.066-0.066,0.2c-0.133,0.133-0.2,0.289-0.2,0.466c-0.356,0.712-0.666,1.112-0.933,1.199
		c-0.179,1.066-0.622,1.955-1.332,2.665c-0.09,0.267-0.133,0.532-0.133,0.799s-0.089,0.489-0.267,0.666l0.799-1.065
		c-0.089,0-0.089-0.088,0-0.267L181.649,118.816z M165.928,86.174c0-0.088-0.023-0.134-0.066-0.134
		c-0.046,0-0.067-0.043-0.067-0.133v-0.133l-0.133-0.134C165.661,85.821,165.749,85.997,165.928,86.174z M166.194,85.775h-0.267
		v0.133c0,0.179,0.087,0.267,0.267,0.267V85.775z M169.792,107.091c-0.089,0-0.133-0.087-0.133-0.267
		c0-0.177,0.044-0.354,0.133-0.532V107.091z M169.925,104.693c0.177,0,0.2,0.134,0.066,0.4s-0.2,0.445-0.2,0.532
		c-0.089-0.087-0.089-0.221,0-0.399C169.879,105.049,169.925,104.872,169.925,104.693z M172.989,129.607v0.134V129.607z
		 M174.455,129.074c-0.089,0.179-0.246,0.289-0.466,0.333c-0.223,0.046-0.423,0.112-0.6,0.199c0.087,0,0.133-0.043,0.133-0.133
		c0-0.088,0.043-0.133,0.133-0.133h-0.133C174.055,129.163,174.365,129.074,174.455,129.074z M177.386,126.409
		c-0.09,0.445-0.489,0.846-1.199,1.199v0.133c-0.179,0-0.267,0.09-0.267,0.267c-0.266,0.18-0.512,0.333-0.732,0.467
		c-0.223,0.133-0.512,0.333-0.866,0.6c0.177-0.354,0.354-0.533,0.533-0.533c0.177-0.088,0.354-0.177,0.533-0.267
		c0.177-0.087,0.31-0.221,0.4-0.399c0.354-0.354,0.576-0.533,0.666-0.533l-0.133,0.134c0.177-0.178,0.333-0.311,0.466-0.4
		c0.133-0.087,0.244-0.31,0.333-0.666H177.386z M174.588,128.408h0.133l0.133,0.133L174.588,128.408z M174.854,128.408
		c0.177-0.354,0.487-0.533,0.933-0.533c-0.09,0.089-0.223,0.156-0.4,0.199C175.208,128.12,175.031,128.231,174.854,128.408z
		 M179.65,121.746l0.133-0.133v-0.134l0.533-0.666h-0.267l-0.267,0.533C179.605,121.614,179.561,121.746,179.65,121.746z
		 M181.916,118.282c-0.179-0.088-0.2-0.133-0.067-0.133c0.133,0,0.2-0.088,0.2-0.267c0.087,0.089,0.087,0.156,0,0.199
		C181.959,118.128,181.916,118.195,181.916,118.282z M182.049,118.15l-0.133,0.266v-0.133L182.049,118.15z M182.182,118.282
		l0.133-0.267v0.134L182.182,118.282z M182.715,117.483c0,0.356-0.133,0.533-0.4,0.533v-0.267c0-0.087,0.044-0.177,0.133-0.267
		H182.715l0.133-0.133v0.133H182.715z M182.848,117.083c-0.089-0.087-0.089-0.177,0-0.267h0.133
		C182.892,116.906,182.848,116.996,182.848,117.083z M183.514,114.951c0.087,0.267,0.154,0.356,0.2,0.267
		c0.044-0.087,0.11-0.177,0.2-0.267c0,0.267-0.046,0.489-0.133,0.666c-0.089,0.18-0.223,0.356-0.4,0.533v0.134
		c0,0.089-0.046,0.155-0.133,0.199c-0.089,0.046-0.179,0.156-0.266,0.333c0-0.354,0.11-0.643,0.333-0.865
		C183.535,115.731,183.602,115.397,183.514,114.951z M183.914,113.487c0,0.089-0.09,0.133-0.267,0.133
		c0.087,0,0.133-0.133,0.133-0.399c0.087,0,0.11,0.046,0.066,0.133c-0.046,0.09-0.023,0.046,0.067-0.133V113.487z M184.313,113.619
		c-0.089,0.09-0.133,0.09-0.133,0c-0.179,0.09-0.266,0.267-0.266,0.533l-0.133-0.134c0-0.087-0.023-0.133-0.067-0.133
		c-0.045,0-0.066-0.044-0.066-0.134h0.267c0-0.087,0.021-0.153,0.066-0.199c0.044-0.044,0.067-0.11,0.067-0.2
		c0.177,0,0.243,0.023,0.2,0.066C184.201,113.465,184.224,113.532,184.313,113.619z M184.047,112.953
		c0,0.09-0.046,0.179-0.133,0.267c0-0.177,0.021-0.287,0.066-0.333c0.044-0.044,0.067-0.154,0.067-0.333V112.953z M184.18,113.086
		l0.133-0.133c0-0.088,0.021-0.154,0.067-0.2c0.043-0.044,0.066-0.11,0.066-0.199c-0.089,0-0.133-0.044-0.133-0.134
		c0-0.087,0.044-0.133,0.133-0.133l0.133-0.134c0,0.09-0.023,0.246-0.066,0.467c-0.046,0.223-0.113,0.379-0.2,0.466H184.18
		c0,0.09-0.045,0.18-0.133,0.267c0-0.177,0.043-0.31,0.133-0.399V113.086z M184.313,114.019c0.087,0.09,0.044,0.18-0.133,0.267
		C184.268,114.198,184.313,114.109,184.313,114.019z M184.58,112.021c-0.089,0.09-0.133,0.179-0.133,0.267
		c0-0.267,0.044-0.487,0.133-0.666V112.021z M184.58,113.487c0.087,0.089,0.087,0.155,0,0.199c-0.089,0.046-0.133,0.112-0.133,0.2
		c0-0.088,0.021-0.154,0.067-0.2C184.557,113.642,184.58,113.575,184.58,113.487z M184.713,102.295c0,0.089-0.046,0.179-0.133,0.267
		c0-0.178,0.021-0.288,0.066-0.334C184.69,102.185,184.713,102.207,184.713,102.295z M184.847,111.754
		c0.177-0.087,0.221-0.221,0.133-0.399c-0.09-0.177-0.046-0.354,0.133-0.533l0.4-0.399l-0.666,1.731V111.754z M186.312,108.024
		v-0.133V108.024z M186.579,104.293v0.134c0,0.089-0.023,0.133-0.067,0.133c-0.045,0-0.066,0.046-0.066,0.133L186.579,104.293z
		 M186.712,106.558l-0.267,0.267L186.712,106.558z M187.778,102.695c-0.09,0.622-0.246,1.155-0.466,1.599
		c-0.223,0.445-0.379,0.889-0.466,1.332c-0.09-0.443,0-0.887,0.266-1.332C187.378,103.85,187.599,103.317,187.778,102.695z"/>
	<path fill="#FFFFFF" d="M205.896,98.831l-0.267,0.399c-0.179,0-0.133-0.134,0.133-0.399c-0.889,0.532-1.732,1.288-2.531,2.265
		c-0.799,0.979-1.466,1.821-1.999,2.531c-0.089,0-0.179,0.046-0.267,0.133c-0.179,0.18-0.266,0.313-0.266,0.4
		c-0.09-0.178-0.2-0.088-0.333,0.267c-0.133,0.355-0.289,0.622-0.466,0.799l-0.666,0.933v0.267
		c-0.533,0.622-0.933,1.199-1.199,1.731c-0.267,0.533-0.579,1.112-0.933,1.732l-1.865,3.464v1.066
		c-0.09,0.622-0.156,1.045-0.2,1.266c-0.046,0.223-0.066,0.399-0.066,0.532c0,0.134-0.023,0.379-0.067,0.733
		c-0.045,0.355-0.112,0.979-0.2,1.865c-0.267,1.244-0.445,2.198-0.533,2.864c-0.09,0.666-0.156,1.266-0.2,1.799
		c-0.045,0.532-0.066,1.111-0.066,1.731c0,0.623-0.046,1.466-0.133,2.531c-0.267,0.18-0.399,0.313-0.399,0.4
		c0,0.089-0.046,0.179-0.133,0.267c0,0.179-0.046,0.333-0.133,0.466c-0.089,0.133-0.133,0.246-0.133,0.333
		c-0.179,0.267-0.246,0.579-0.2,0.933c0.043,0.356-0.023,0.666-0.2,0.933c-0.089-0.267-0.066-0.576,0.067-0.933
		c0.133-0.354,0.11-0.62-0.067-0.799c-0.089,0.355-0.133,0.755-0.133,1.198c0,0.446-0.046,0.8-0.133,1.066
		c-0.267,0-0.423,0.046-0.466,0.133c-0.046,0.09-0.156,0.134-0.333,0.134v-0.134c-0.179,0.18-0.579,0.356-1.199,0.533
		c-0.623,0.179-1.022,0.179-1.199,0c-0.089,0.09-0.133,0.267-0.133,0.533s-0.089,0.445-0.266,0.532h-0.133v-1.065l-0.133,0.933
		c-0.089-0.177-0.156-0.354-0.2-0.533c-0.046-0.177-0.113-0.31-0.2-0.399c0,0.712-0.045,1.065-0.133,1.065
		c-0.089,0-0.133-0.153-0.133-0.466c0-0.311-0.09-0.554-0.267-0.732c-0.179,0.355-0.179,0.645,0,0.865
		c0.177,0.223,0.221,0.333,0.133,0.333c-0.179,0.09-0.446,0.09-0.799,0c-0.356-0.087-0.579-0.266-0.667-0.532l-0.533,0.532
		c-0.089,0.09-0.133,0.09-0.133,0h-0.933c-0.179-0.266-0.333-0.399-0.466-0.399s-0.29-0.177-0.466-0.533
		c-0.179,0-0.246,0.112-0.2,0.333c0.043,0.224-0.023,0.423-0.2,0.6c-0.356-0.354-0.623-0.732-0.8-1.132
		c-0.179-0.4-0.356-0.82-0.533-1.266c0-0.178,0.043-0.221,0.133-0.134c0.087,0.09,0.133,0.046,0.133-0.133
		c-0.09-1.51,0.021-3.019,0.333-4.53c0.31-1.509,0.554-3.107,0.733-4.796l0.399-2.665c0.087-1.153,0.177-2.042,0.267-2.664
		c0.087-0.621,0.154-1.153,0.2-1.599c0.044-0.443,0.133-0.954,0.267-1.532c0.133-0.577,0.287-1.443,0.466-2.599l0.933-3.33
		c0-0.088,0.021-0.221,0.066-0.4c0.044-0.177,0.021-0.31-0.066-0.399c0.443-2.309,0.933-4.707,1.465-7.194
		c0.533-2.485,0.933-5.017,1.199-7.594v-0.533c0.177-0.177,0.267-0.62,0.267-1.332c0-0.178,0.043-0.288,0.133-0.333
		c0.088-0.044,0.133-0.154,0.133-0.334c0.087-0.976,0.443-1.599,1.066-1.865c0.621-0.266,1.153-0.709,1.599-1.332
		c0.444,0,1.066-0.066,1.865-0.199c0.8-0.134,1.376-0.244,1.732-0.334c0.266,0,0.443,0.09,0.533,0.267c0.087,0.18,0.221,0.18,0.4,0
		c0.443,0.446,1.065,0.866,1.865,1.266c0.799,0.4,1.419,0.912,1.865,1.532c0.354,0.623,0.377,1.333,0.067,2.132
		c-0.313,0.8-0.466,1.645-0.466,2.531c-0.179,1.066-0.379,2.178-0.6,3.331c-0.223,1.155-0.379,2.265-0.466,3.331l1.732-1.333
		c1.153-1.242,2.332-2.198,3.531-2.864s2.419-1.442,3.664-2.331c0.71-0.088,1.22-0.244,1.532-0.467
		c0.31-0.221,0.866-0.333,1.666-0.333c0.62,0,1.109,0.313,1.465,0.933h0.133c0.087,0.179,0.4,0.313,0.933,0.399
		c0.533,0.09,0.666,0.489,0.4,1.199v-0.267c0-0.266-0.133-0.266-0.4,0c0,0.267-0.046,0.423-0.133,0.467
		c-0.089,0.046-0.045,0.156,0.133,0.333c-0.179,0.09-0.445,0.046-0.799-0.133c0,0.179-0.089,0.445-0.267,0.799
		c0-0.087-0.045-0.133-0.133-0.133c-0.179,0-0.312-0.044-0.399-0.134c-0.179,0-0.356,0.023-0.533,0.066
		c-0.179,0.046-0.223,0.2-0.133,0.467c-0.533-0.267-0.866-0.467-1-0.6s-0.379-0.11-0.732,0.066c0.087,0.09,0.243,0.156,0.466,0.2
		c0.22,0.046,0.333,0.156,0.333,0.333c0,0.179-0.023,0.223-0.067,0.133c-0.046-0.087-0.066-0.043-0.066,0.134
		c-0.446,0.267-0.822,0.556-1.132,0.866c-0.313,0.312-0.689,0.512-1.133,0.6c0-0.178,0.044-0.267,0.133-0.267
		c0.087,0,0.133-0.177,0.133-0.533l-0.4,0.8l-0.133-0.134c-0.179,0.179-0.333,0.313-0.466,0.399c-0.133,0.09-0.29,0.267-0.466,0.533
		v-0.133c-0.179,0.089-0.313,0.133-0.4,0.133V98.831z M197.235,110.288c0,0.267-0.089,0.579-0.266,0.933L197.235,110.288z"/>
	<path fill="#FFFFFF" d="M265.183,103.627c0.267,0,0.443-0.088,0.533-0.267c0,0.09,0.044-0.044,0.133-0.399
		c0.087-0.354,0.221-0.577,0.4-0.666c-0.09,0.267-0.156,0.466-0.2,0.6c-0.045,0.133-0.066,0.289-0.066,0.466
		c0.267-0.354,0.4-0.754,0.4-1.199h0.266c0.443-0.887,0.887-1.686,1.333-2.397c0.443-0.71,0.976-1.42,1.599-2.132
		c-0.089,0.622-0.267,1.021-0.532,1.199c-0.267,0.179-0.313,0.488-0.134,0.933l0.8-1.066l-0.933,1.732h-0.267
		c-0.266,0.622-0.533,1.244-0.799,1.865c-0.267,0.622-0.712,1.155-1.332,1.599c0.087,0.089,0.11,0.133,0.066,0.133
		c-0.046,0,0.021,0.046,0.2,0.134l-1.599,3.33c0.177-0.087,0.31-0.266,0.4-0.532c0.087-0.267,0.266-0.443,0.533-0.533
		c-0.089-0.177-0.089-0.311,0-0.399c0.087-0.088,0.133-0.221,0.133-0.4c0.177,0.09,0.221,0.156,0.133,0.2
		c-0.09,0.046-0.133,0.156-0.133,0.333c0.533-0.354,0.866-0.843,0.999-1.466c0.133-0.62,0.42-1.109,0.866-1.465
		c0.087,0.179,0.066,0.333-0.067,0.466c-0.133,0.134-0.156,0.289-0.066,0.467c-0.267,0.799-0.623,1.465-1.066,1.998
		c-0.445,0.533-0.756,1.245-0.933,2.132c-0.179,0.09-0.246,0.179-0.2,0.267c0.043,0.089-0.023,0.179-0.2,0.267
		c-0.179,0.355-0.712,1.178-1.599,2.465c-0.889,1.288-1.888,2.664-2.998,4.13c-1.112,1.466-2.132,2.844-3.064,4.13
		c-0.933,1.289-1.488,2.111-1.665,2.465v0.399c-0.179,0.09-0.267,0.18-0.267,0.267c0,0.09-0.046,0.179-0.133,0.267l0.4-0.399
		l-0.799,0.933c-0.179,0.179-0.313,0.267-0.4,0.267v-0.134c-0.267,0.267-0.313,0.445-0.133,0.533
		c-0.267-0.088-0.445,0.022-0.533,0.333c-0.09,0.313-0.09,0.512,0,0.6h-0.267v0.267c-0.356,0.089-0.623,0.312-0.799,0.666
		l-0.267,0.666c-0.179,0.179-0.445,0.445-0.799,0.8c-0.356,0.355-0.756,0.755-1.199,1.198c-0.179,0.267-0.399,0.467-0.666,0.6
		c-0.267,0.134-0.445,0.333-0.533,0.6c0.887-0.62,1.909-1.509,3.064-2.664c-0.622,0.712-1.222,1.354-1.798,1.932
		c-0.579,0.578-1.355,1.089-2.332,1.532v0.267h0.133h0.133c-0.089,0.179-0.246,0.223-0.466,0.133c-0.223-0.087-0.422-0.087-0.599,0
		h0.266c-0.179,0.179-0.312,0.246-0.399,0.2c-0.09-0.044-0.179,0.022-0.267,0.199c0.177-0.443,0-0.576-0.533-0.399
		c-0.09-0.087-0.133-0.087-0.133,0c0,0.09-0.046,0.134-0.133,0.134c-0.623,0.179-1.245,0.245-1.865,0.199
		c-0.623-0.044-1.155-0.154-1.599-0.333c-0.09,0-0.133,0.046-0.133,0.134c-0.179,0-0.313-0.044-0.4-0.134
		c-0.089-0.087-0.223-0.133-0.399-0.133c-0.267-0.443-0.623-0.733-1.066-0.866c-0.446-0.134-0.845-0.287-1.199-0.467
		c-0.179-0.177-0.399-0.576-0.666-1.198c-0.267-0.621-0.446-1.153-0.533-1.6c-0.712-1.865-1.088-4.063-1.132-6.595
		c-0.046-2.531-0.112-4.817-0.2-6.861c-0.799,1.332-1.578,2.531-2.332,3.598c-0.756,1.065-1.622,2.221-2.598,3.464v0.267
		c-0.889,0.979-1.688,1.978-2.398,2.997c-0.712,1.022-1.555,1.889-2.531,2.599v0.399c-0.623,0.445-1.266,0.822-1.932,1.133
		c-0.666,0.312-1.399,0.6-2.198,0.865c-0.623,0.267-1.266,0.446-1.932,0.533c-0.667,0.09-1.355,0.134-2.065,0.134
		c-0.712,0.089-1.312,0.089-1.798,0c-0.489-0.088-1-0.178-1.532-0.267c-0.445-0.178-0.956-0.354-1.532-0.533
		c-0.579-0.177-1.089-0.354-1.532-0.533c-0.533-0.354-0.933-0.909-1.199-1.665c-0.267-0.754-0.444-1.62-0.533-2.598
		c-0.087-0.977-0.11-1.976-0.066-2.998c0.046-1.021,0.112-1.932,0.2-2.731c0.354-2.842,0.954-5.683,1.799-8.526
		c0.843-2.842,1.842-5.417,2.998-7.728c0.62-1.243,1.243-2.442,1.865-3.598c0.62-1.153,1.287-2.309,1.999-3.464
		c0.266-0.443,0.487-0.933,0.666-1.465c0.177-0.533,0.487-0.977,0.933-1.333c1.953-2.664,4.174-4.973,6.662-6.928
		c0.533-0.71,1.376-1.22,2.531-1.532c1.153-0.31,2.265-0.487,3.331-0.533c1.066-0.043,1.932-0.043,2.598,0
		c0.666,0.046,0.733,0.067,0.2,0.067c0.177,0,0.333,0.066,0.466,0.199c0.133,0.134,0.333,0.2,0.6,0.2
		c0.087,0.09,0.154,0.156,0.2,0.2c0.044,0.045,0.244,0.022,0.6-0.067c0.267,0.18,0.554,0.313,0.866,0.4
		c0.31,0.089,0.6,0.312,0.866,0.666c0.354,0.089,0.6,0.289,0.733,0.6c0.133,0.312,0.42,0.466,0.866,0.466
		c1.243,0.712,2.219,1.312,2.931,1.799c0.71,0.489,1.687,1.089,2.931,1.799c0,0.179,0.021,0.313,0.067,0.399
		c0.043,0.09,0.066,0.223,0.066,0.399c0,0.18-0.133,0.313-0.399,0.4c-0.267,0.089-0.489,0.223-0.667,0.399c-0.445,0-0.778,0-0.999,0
		c-0.223,0-0.556,0.09-1,0.267c-0.089,0-0.2-0.044-0.333-0.134c-0.133-0.087-0.289-0.177-0.466-0.267
		c-0.266-0.087-0.333-0.066-0.2,0.067c0.133,0.133,0.021,0.112-0.333-0.067c-0.445-0.177-0.912-0.31-1.399-0.399
		c-0.489-0.087-0.956-0.221-1.399-0.399c-0.445-0.177-0.866-0.399-1.266-0.666c-0.4-0.267-0.956-0.487-1.666-0.666
		c-0.445-0.178-0.912-0.311-1.399-0.4c-0.489-0.087-0.956-0.087-1.399,0c-0.179,0-0.379,0.067-0.6,0.2
		c-0.223,0.133-0.466,0.289-0.732,0.466c-2.754,2.844-4.886,5.819-6.395,8.927c0,0.179-0.023,0.267-0.067,0.267
		c-0.046,0-0.066,0.046-0.066,0.133l-1.732,3.465c0,0.179-0.023,0.379-0.067,0.599c-0.046,0.224-0.156,0.557-0.333,1
		c0,0.089-0.023,0.133-0.066,0.133c-0.046,0-0.067,0.046-0.067,0.134l-0.133,0.133c-0.266,0.445-0.533,0.999-0.799,1.665
		s-0.489,1.223-0.666,1.666c-0.267,0.532-0.489,0.979-0.666,1.332c-0.179,0.355-0.267,0.712-0.267,1.065
		c-0.533,1.778-1.022,3.644-1.466,5.596c-0.445,1.955-0.579,4.176-0.399,6.662c1.243-1.153,2.309-2.332,3.197-3.531
		c0.887-1.198,1.776-2.375,2.665-3.53c0.443-0.887,0.976-1.665,1.599-2.331c0.62-0.667,1.066-1.399,1.332-2.199
		c0.977-1.065,1.865-2.219,2.665-3.464c0.8-1.242,1.553-2.441,2.265-3.597c0.087-0.267,0.133-0.333,0.133-0.2
		c0,0.134,0.043,0.2,0.133,0.2c0.71-1.332,1.62-2.731,2.731-4.197c1.11-1.465,1.799-2.818,2.065-4.063
		c0.177,0,0.266,0.046,0.266,0.134c0,0.089,0.087,0.089,0.267,0v-0.533c0.443,0,0.753-0.177,0.933-0.533
		c0.177-0.354,0.487-0.443,0.933-0.267c0.177-0.177,0.2-0.333,0.066-0.466c-0.133-0.133-0.2-0.287-0.2-0.467
		c0.177,0,0.31,0.023,0.4,0.067c0.087,0.046,0.177,0.066,0.266,0.066c0-0.177,0.177-0.267,0.533-0.267
		c0.266-0.088,0.354-0.133,0.266-0.133c-0.089,0-0.133-0.044-0.133-0.134c0.177,0.09,0.333,0.156,0.466,0.2
		c0.133,0.046,0.287,0.066,0.466,0.066c0.177-0.354,0.487-0.443,0.933-0.267c0.443,0.179,0.709,0.356,0.799,0.533
		c0.087-0.088,0.11-0.177,0.066-0.267c-0.046-0.088,0.021-0.133,0.2-0.133c0.177,0,0.221,0.066,0.133,0.199
		c-0.089,0.134-0.089,0.246,0,0.333c0.267-0.087,0.354-0.221,0.267-0.399c-0.089-0.177-0.133-0.354-0.133-0.533
		c0.267,0.267,0.354,0.556,0.267,0.866c-0.089,0.313,0.087,0.556,0.533,0.732v-0.266v-0.267c0.177,0.089,0.267,0.289,0.267,0.6
		c0,0.312,0.133,0.645,0.4,0.999c0.443,0.179,0.666,0.622,0.666,1.332c0,0.445-0.112,1.045-0.333,1.799
		c-0.223,0.756-0.333,1.355-0.333,1.799c0.177,1.065,0.087,2.154-0.267,3.264c-0.356,1.111-0.623,2.198-0.799,3.265
		c-0.267,0.712-0.446,1.422-0.533,2.131c-0.089,0.713-0.179,1.556-0.266,2.532c-0.267,1.865-0.466,3.553-0.6,5.063
		c-0.133,1.511-0.023,3.331,0.333,5.462c-0.179,0.623-0.2,1.266-0.067,1.933c0.133,0.666,0.244,1.354,0.333,2.064
		c0.62-0.267,1.065-0.62,1.332-1.065c0.267-0.443,0.666-0.8,1.199-1.066c0.533-0.709,1.176-1.398,1.932-2.064
		c0.754-0.666,1.353-1.486,1.799-2.465c0.267-0.267,0.799-0.933,1.599-1.999c0.799-1.065,1.666-2.219,2.598-3.464
		c0.933-1.242,1.819-2.397,2.665-3.464c0.843-1.065,1.486-1.819,1.932-2.265c0.087-0.267,0.2-0.554,0.333-0.866
		c0.133-0.31,0.288-0.377,0.466-0.199c0.444-0.267,0.777-0.71,1-1.333c0.221-0.62,0.51-1.109,0.866-1.465
		c0.177-0.354,0.4-0.688,0.667-1c0.266-0.31,0.487-0.643,0.666-0.999c0-0.177,0.021-0.333,0.066-0.466
		c0.044-0.134,0.11-0.333,0.2-0.6c0.087,0,0.2-0.067,0.333-0.2s0.287-0.243,0.466-0.333c0.177,0.179,0.154,0.423-0.067,0.732
		c-0.223,0.313-0.379,0.556-0.466,0.733c0.177,0.179,0.221,0.355,0.133,0.532c-0.089,0.18-0.089,0.313,0,0.4h0.133
		C265.403,102.917,265.183,103.361,265.183,103.627z M237.737,112.021c-0.446,0.355-0.779,0.799-1,1.332
		c-0.223,0.533-0.512,1.155-0.866,1.865L237.737,112.021z M236.938,111.887c0.354-0.266,0.487-0.532,0.4-0.799L236.938,111.887z
		 M237.604,110.954c-0.267,0-0.313,0.046-0.133,0.134L237.604,110.954z M254.125,125.477c0,0.179-0.023,0.267-0.067,0.267
		c-0.045,0-0.066,0.046-0.066,0.133C253.991,125.789,254.035,125.656,254.125,125.477z M264.916,108.156
		c0.177-0.177,0.221-0.354,0.133-0.532c0,0.179-0.023,0.289-0.066,0.333C264.937,108.003,264.916,108.07,264.916,108.156z
		 M266.115,101.762c0,0.179-0.09,0.355-0.267,0.533L266.115,101.762z"/>
</g>
<g enable-background="new    ">
	<path fill="#FFFFFF" d="M285.643,120.32c-0.086-0.681-0.172-1.383-0.256-2.107c-0.086-0.723-0.044-1.47,0.127-2.236L285.643,120.32
		z M285.77,127.859c-0.172-0.512-0.256-1.086-0.256-1.726c0-0.639-0.043-1.297-0.127-1.979L285.77,127.859z M368.947,51.325
		c0,0.085,0.042,0.171,0.127,0.255v0.512l0.129,0.127v0.256c0,0.172,0,0.342,0,0.511c0,0.172-0.045,0.3-0.129,0.384h-0.127
		c0,0.256-0.044,0.427-0.128,0.511c0.17,0.256,0.233,0.491,0.192,0.703c-0.045,0.214-0.108,0.491-0.192,0.83
		c0-0.084-0.022-0.191-0.063-0.319c-0.045-0.128-0.064-0.275-0.064-0.447c-0.086,0.172-0.127,0.342-0.127,0.512
		c0,0.171-0.086,0.597-0.256,1.277c0,0.172,0.084,0.3,0.256,0.383c0-0.169,0.084-0.339,0.255-0.511c0,0.172,0,0.428,0,0.767
		c0,0.342-0.086,0.512-0.255,0.512l-0.256,3.321c0-0.084,0.084-0.17,0.256-0.255c0.169,0.171,0.232,0.511,0.191,1.021
		c-0.045,0.512-0.236,0.853-0.575,1.022v0.639c0-0.084,0.021-0.128,0.063-0.128c0.042,0,0.064-0.042,0.064-0.128
		c0.17,0.767,0.211,1.47,0.127,2.108c-0.086,0.639-0.043,1.428,0.129,2.364l-0.64-1.022c0,0.172,0,0.405,0,0.703
		c0,0.299,0.042,0.618,0.128,0.958v-0.384c0,0.172,0.02,0.405,0.064,0.703c0.041,0.3,0.02,0.533-0.064,0.702v0.128h0.128
		c-0.086,0.086-0.128,0.172-0.128,0.256c0,1.108,0.042,1.705,0.128,1.789c0.084,0.086,0.169-0.128,0.255-0.639
		c0.084-0.512,0.17-1.234,0.256-2.173c0.084-0.936,0.212-1.872,0.383-2.811v0.383c-0.766,6.05-1.555,11.99-2.363,17.824
		c-0.811,5.835-1.875,11.606-3.193,17.313c-1.322,5.708-3.003,11.329-5.047,16.865c-2.045,5.538-4.729,11.032-8.05,16.482v0.639
		c-0.341,0-0.47-0.02-0.384-0.063c0.084-0.042,0.128-0.106,0.128-0.192c-0.255,0-0.341,0.064-0.255,0.192
		c0.084,0.128,0,0.277-0.256,0.447c0-0.256-0.128-0.234-0.383,0.063c-0.256,0.3-0.428,0.619-0.512,0.958
		c-0.086,0-0.15-0.02-0.191-0.063c-0.044-0.042-0.15-0.064-0.32-0.064c0,0.172-0.127,0.384-0.383,0.64h-0.256l-0.639,1.021
		l0.384-0.511c0.083,0.084,0.083,0.147,0,0.191c-0.086,0.042-0.086,0.192,0,0.447c-0.086-0.086-0.342,0.084-0.767,0.512
		c-0.342,0.339-0.853,0.681-1.533,1.021c-0.342,0.256-0.684,0.426-1.022,0.512l-1.661,0.383c-0.597,0.595-1.277,0.979-2.044,1.15
		c-0.767,0.169-1.577,0.211-2.428,0.127c-1.449,0-3.046-0.555-4.792-1.66c-1.746-1.108-3.365-2.386-4.854-3.834
		c-1.491-1.447-2.728-2.874-3.705-4.279c-0.98-1.406-1.386-2.406-1.214-3.003c-0.684-0.595-1.066-1.233-1.15-1.917
		c-0.086-0.681-0.256-1.319-0.511-1.916l0.128,0.128c-0.256-0.767-0.342-1.533-0.256-2.3c0.084-0.767-0.213-1.362-0.895-1.789
		c-0.342,0.683-0.725,1.514-1.149,2.491c-0.427,0.98-0.874,2.003-1.342,3.066c-0.47,1.066-0.958,2.066-1.47,3.003
		c-0.511,0.938-1.021,1.705-1.533,2.3c-0.086,0.427-0.235,0.747-0.447,0.958c-0.213,0.214-0.447,0.405-0.702,0.575l0.128,0.128
		c-0.172,0.341-0.406,0.83-0.703,1.469c-0.299,0.64-0.639,1.278-1.021,1.917c-0.384,0.639-0.768,1.214-1.15,1.725
		c-0.383,0.512-0.703,0.895-0.959,1.15c-0.596,0.936-1.555,1.83-2.874,2.683c-1.321,0.851-2.45,1.405-3.386,1.661
		c-0.853,0.17-1.705,0.275-2.556,0.319c-0.853,0.042-1.619,0.319-2.3,0.831c-0.172,0-0.191-0.044-0.064-0.128
		c0.129-0.086,0.106-0.128-0.063-0.128c-2.044,0.595-3.749,0.383-5.11-0.639c-1.363-1.022-2.492-2.386-3.387-4.089
		c-0.894-1.705-1.619-3.493-2.172-5.366c-0.555-1.873-1.043-3.364-1.469-4.472v0.383c-0.342-0.17-0.428-0.425-0.256-0.767
		l0.256,0.256v-0.511c-0.172-1.448-0.428-2.917-0.767-4.408c-0.341-1.489-0.427-3.131-0.256-4.919v-5.366
		c-0.255-0.256-0.384-0.426-0.384-0.512v-0.128c0.084-1.361,0.084-2.83,0-4.407c-0.085-1.575,0.043-3.003,0.384-4.28
		c0-0.17-0.022-0.298-0.063-0.384c-0.044-0.084-0.064-0.212-0.064-0.383c0.17-0.512,0.212-1.106,0.128-1.789
		c-0.085-0.681-0.128-1.405-0.128-2.172c0.084,0.172,0.105,0.319,0.064,0.447c-0.044,0.127-0.021,0.235,0.063,0.319
		c0.084-0.426,0.17-0.831,0.256-1.214c0.083-0.384,0.128-0.787,0.128-1.214c-0.172,0.172-0.236,0.383-0.191,0.639
		c0.041,0.256-0.022,0.511-0.192,0.767c0-0.425,0.084-0.958,0.256-1.597c0.169-0.64,0.298-1.17,0.384-1.598l-0.256,0.256
		c0-0.084,0-0.298,0-0.639c0-0.34,0.084-0.34,0.256,0c0-0.256-0.045-0.426-0.129-0.512c-0.086-0.084-0.043-0.297,0.129-0.639
		c0,0.086,0.127,0.044,0.383-0.128c-0.172-0.425-0.236-0.83-0.191-1.214c0.041-0.383-0.022-0.786-0.191-1.214
		c0.51-4.088,1.086-7.857,1.725-11.307c0.639-3.45,1.297-6.792,1.98-10.03c0.68-3.236,1.361-6.494,2.044-9.774
		c0.681-3.278,1.319-6.75,1.917-10.413c0-0.767,0.084-1.105,0.255-1.022c0.17,0.086,0.212-0.127,0.128-0.639
		c0.34,0.086,0.595,0.022,0.767-0.191c0.169-0.212,0.319-0.447,0.447-0.703c0.128-0.255,0.255-0.488,0.384-0.702
		c0.127-0.212,0.402-0.275,0.83-0.191l0.383-0.767c0.17,0.171,0.553,0.363,1.15,0.574c0.595,0.214,0.936,0.108,1.021-0.319
		c0.512,0.172,0.809,0,0.895-0.511c0.084,0.086,0.105,0.149,0.064,0.191c-0.044,0.044-0.021,0.149,0.063,0.319
		c0.256,0,0.384-0.105,0.384-0.319c0-0.212,0.041-0.403,0.127-0.575c1.022,0.767,1.703,1.406,2.045,1.917
		c0.426,0.427,0.681,0.511,0.767,0.256c0.084-0.256,0.255-0.084,0.511,0.511c0,0.597,0.02,1.214,0.064,1.853
		c0.041,0.639,0.063,1.13,0.063,1.47c0,1.449-0.108,2.918-0.319,4.407c-0.213,1.492-0.574,2.961-1.086,4.408
		c0,0.683,0.064,1.405,0.191,2.172c0.128,0.767,0.02,1.619-0.319,2.556c-0.255,1.108-0.511,2.344-0.767,3.705
		c-0.256,1.364-0.469,2.684-0.639,3.961c-0.172,1.278-0.342,2.386-0.512,3.322c-0.172,0.938-0.341,1.811-0.511,2.619
		c-0.171,0.811-0.341,1.641-0.511,2.491c-0.172,0.853-0.342,1.875-0.512,3.066c-0.766,4.686-1.321,9.646-1.66,14.886
		c-0.342,5.238-0.428,10.029-0.256,14.374c0.17,3.749,0.553,7.326,1.15,10.732c0.594,3.407,1.744,6.091,3.449,8.049
		c1.191-1.191,2.47-2.661,3.833-4.408c1.362-1.744,2.428-3.342,3.194-4.791c1.873-3.322,3.406-7.069,4.6-11.243
		c0.851-2.214,1.639-4.748,2.363-7.603c0.723-2.853,1.384-5.43,1.98-7.729l3.961-21.466c0.17-1.703,0.32-2.98,0.447-3.833
		c0.128-0.851,0.256-1.575,0.383-2.172c0.129-0.595,0.256-1.277,0.384-2.044s0.319-1.917,0.575-3.45
		c0.512-0.084,0.937-0.17,1.277-0.256c0.34-0.083,0.553-0.339,0.639-0.767c-0.086-0.169-0.191-0.275-0.318-0.319
		c-0.129-0.042-0.192-0.233-0.192-0.574c0.17,0.085,0.276,0.085,0.319,0c0.042-0.084,0.148-0.084,0.32,0
		c0.425-0.34,0.51-0.787,0.255-1.342c-0.255-0.553-0.172-0.914,0.255-1.086c0.512,0.255,0.745,0.277,0.703,0.063
		c-0.043-0.212,0.02-0.531,0.191-0.958c0.17-0.17,0.212-0.17,0.129,0c-0.086,0.172-0.086,0.3,0,0.383
		c0.169-0.169,0.447-0.233,0.83-0.191c0.383,0.044,0.658-0.02,0.83-0.191c0.426,0.427,0.914,0.619,1.47,0.575
		c0.553-0.042,1.17,0.149,1.853,0.574v-0.639c0.595,0.256,0.979,0.639,1.15,1.15c0.169,0.511,0.553,0.853,1.149,1.021v-0.383
		c0.255,0.767,0.403,1.705,0.447,2.811c0.042,1.108,0.233,2.045,0.575,2.812c-0.172,1.277-0.256,2.172-0.256,2.683
		c0,0.512,0,0.917,0,1.214c0,0.3,0,0.725,0,1.277c0,0.556-0.044,1.514-0.128,2.875c-0.511,4.175-1.044,8.519-1.597,13.032
		c-0.555,4.517-0.98,8.966-1.277,13.353c-0.301,4.388-0.342,8.561-0.129,12.521c0.212,3.961,0.831,7.475,1.854,10.541
		c0.425,0.938,0.83,1.726,1.213,2.364c0.384,0.639,0.959,1.3,1.726,1.98c0.425,0,0.767-0.106,1.022-0.319
		c0.255-0.212,0.594-0.234,1.021-0.064l2.556-2.811c0.169-0.595,0.425-1.15,0.767-1.661c0.34-0.511,0.723-1.022,1.15-1.533
		c0.85-1.191,1.68-2.64,2.49-4.344c0.809-1.703,1.554-3.322,2.236-4.855c0.17-0.426,0.275-0.831,0.32-1.214
		c0.041-0.384,0.146-0.786,0.318-1.214c0.084-0.425,0.212-0.786,0.384-1.086c0.17-0.298,0.468-0.745,0.895-1.342
		c0.595-1.617,1.106-3.449,1.533-5.494c0.425-2.044,0.937-4.044,1.533-6.005c0.083-0.595,0.169-1.042,0.255-1.342
		c0.084-0.297,0.17-0.553,0.256-0.767c0.084-0.211,0.17-0.447,0.256-0.702c0.084-0.256,0.211-0.681,0.383-1.278
		c-0.086-0.084-0.172-0.128-0.256-0.128c-0.085,0-0.085-0.127,0-0.383c0.17,0.342,0.256,0.214,0.256-0.384
		c0.084,0.256,0.128,0.556,0.128,0.895c0.511-0.169,0.724-0.53,0.64-1.086c-0.086-0.553,0.084-0.958,0.51-1.214
		c0.256-0.937,0.32-1.725,0.192-2.363s-0.063-1.298,0.191-1.98c0-0.084,0.042-0.212,0.128-0.384
		c0.084-0.169,0.128-0.339,0.128-0.511c0.339-0.851,0.511-1.789,0.511-2.811c0-1.022,0.17-2.001,0.512-2.939
		c0.084-0.083,0.211-1.233,0.383-3.449c0.17-2.214,0.361-4.664,0.575-7.347c0.212-2.684,0.361-5.11,0.447-7.283
		c0.083-2.172,0.083-3.258,0-3.258c-0.086-0.17-0.044-0.447,0.128-0.83c0.17-0.384,0.17-0.873,0-1.47
		c-0.086,0-0.128,0.044-0.128,0.128l0.767-3.833c-0.172,0-0.277,0.086-0.32,0.255c-0.043,0.172-0.148,0.172-0.318,0
		c-0.172,0-0.214-0.063-0.128-0.191c0.083-0.128,0.042-0.233-0.128-0.319c0-0.17,0.042-0.275,0.128-0.319
		c0.083-0.042,0.128-0.233,0.128-0.575c-0.086-0.339-0.128-0.639-0.128-0.895v-0.255c0-0.426,0.083-0.979,0.255-1.661
		c0.17-0.681,0.043-1.106-0.383-1.277c-0.086-0.851-0.064-1.682,0.064-2.492c0.127-0.809,0.146-1.553,0.063-2.235
		c-0.342-0.596-0.086-1.362,0.767-2.3h0.256c0-0.084-0.045-0.148-0.129-0.192c-0.086-0.042-0.043-0.191,0.129-0.447
		c0.169,0.172,0.255,0.15,0.255-0.063c0-0.212,0.042-0.191,0.128,0.063c0.17,0,0.297,0.064,0.383,0.192
		c0.084,0.128,0.129,0.021,0.129-0.319l1.404-1.917c0.256,0.172,0.659,0.086,1.215-0.256c0.553-0.339,0.872-0.297,0.957,0.128
		c0.084,0,0.129-0.02,0.129-0.063c0-0.042,0.084-0.064,0.255-0.064v0.384c0-0.084,0.021-0.128,0.063-0.128s0.064-0.042,0.064-0.128
		c0.17,0.172,0.233,0.47,0.191,0.895c-0.043,0.428,0.02,0.725,0.191,0.895c0.17,0.086,0.212,0.021,0.129-0.191
		c-0.086-0.212-0.045-0.403,0.127-0.575c0.34,0.172,0.512,0.427,0.512,0.767c0,0.342,0.127,0.683,0.383,1.022
		c-0.086-0.767-0.086-1.617,0-2.556c0.17,0.256,0.275,0.575,0.319,0.958c0.042,0.384,0.063,0.703,0.063,0.958
		c0.084,0.086,0.129,0,0.129-0.255c0.425,0.172,0.639,0.511,0.639,1.021c0,0.512,0.041,1.022,0.127,1.533
		c0.256,0.767,0.361,1.619,0.32,2.556c-0.045,0.938-0.15,1.789-0.32,2.556c0.426,0,0.639-0.191,0.639-0.575
		c0-0.383-0.086-0.658-0.255-0.83c0-0.34,0.021-0.787,0.063-1.342c0.042-0.553,0.148-1,0.32-1.342
		c0.084,0.086,0.105,0.172,0.063,0.256c-0.044,0.086-0.022,0.172,0.063,0.256c0.084-0.426,0.064-0.831-0.063-1.214
		c-0.128-0.384-0.278-0.831-0.447-1.342c0.339,0.341,0.595,0.788,0.767,1.342c0.17,0.555,0.256,1.107,0.256,1.66
		c0,0.556-0.022,1.13-0.064,1.726c-0.044,0.597-0.021,1.149,0.064,1.661c0.17-0.682,0.191-1.47,0.063-2.364
		s-0.108-1.725,0.063-2.491c0.084,1.277,0.148,2.491,0.191,3.642c0.043,1.149-0.107,2.363-0.447,3.641h0.129
		c0,0.086-0.045,0.172-0.129,0.256v0.128l-0.127,0.128v-0.256c0-0.084-0.044-0.128-0.128-0.128v0.256L368.947,51.325z
		 M343.01,141.657c-0.086,0.084-0.299,0.128-0.639,0.128C342.627,141.53,342.838,141.486,343.01,141.657z M344.543,140.507
		c0.17,0.17,0.129,0.275-0.127,0.319c-0.256,0.042-0.384,0.192-0.384,0.447c-0.171-0.255-0.128-0.405,0.128-0.447
		C344.416,140.782,344.543,140.677,344.543,140.507z M347.865,137.952c0-0.172,0.17-0.256,0.512-0.256
		c0,0.084-0.086,0.17-0.256,0.256C347.949,138.036,347.865,138.036,347.865,137.952z M348.632,137.186
		c0.084,0,0.128-0.044,0.128-0.128L348.632,137.186z M349.398,135.78c0,0.428-0.086,0.726-0.256,0.895L349.398,135.78z
		 M349.526,137.058c0,0.084-0.128,0.256-0.384,0.511L349.526,137.058z M350.165,136.035c0.17,0.256,0.17,0.428,0,0.511
		c-0.171,0.086-0.255,0.256-0.255,0.512c-0.172-0.256-0.172-0.468,0-0.639C350.08,136.249,350.165,136.121,350.165,136.035z
		 M354.765,91.445c-0.085-0.17-0.149-0.426-0.191-0.767c-0.044-0.34-0.063-0.595-0.063-0.767c0.17,0,0.297,0.213,0.383,0.639
		C354.977,90.977,354.935,91.275,354.765,91.445z M355.275,87.612c-0.171,0-0.255-0.021-0.255-0.064
		c0-0.042-0.086-0.063-0.256-0.063V87.1c0.17,0.172,0.298,0.256,0.384,0.256h0.127V87.612z M355.531,88.761h-0.127
		c-0.086-0.084-0.129-0.191-0.129-0.319s0.043-0.191,0.129-0.191c0.169,0.086,0.255,0.256,0.255,0.511H355.531z M355.659,83.779
		c0.17,0.171,0.212,0.405,0.128,0.702c-0.086,0.3-0.128,0.491-0.128,0.575c-0.171-0.084-0.235-0.275-0.191-0.575
		C355.51,84.184,355.573,83.949,355.659,83.779z M355.659,83.779c-0.171-0.17-0.191-0.361-0.063-0.575
		c0.127-0.212,0.147-0.403,0.063-0.575c0.17,0.172,0.233,0.363,0.192,0.575C355.807,83.417,355.743,83.609,355.659,83.779z
		 M356.17,79.69c-0.172-0.17-0.213-0.361-0.127-0.575c0.084-0.212,0.127-0.403,0.127-0.575c0.256,0,0.32,0.128,0.191,0.384
		C356.234,79.179,356.17,79.434,356.17,79.69z M356.298,114.953l-0.128,0.256C356.254,115.125,356.298,115.039,356.298,114.953z
		 M356.809,77.518c-0.427-0.256-0.618-0.617-0.574-1.086c0.042-0.468,0.105-0.915,0.191-1.342
		C356.682,75.857,356.809,76.667,356.809,77.518z M356.682,82.5c0.084-0.936,0.147-1.958,0.191-3.066
		c0.042-1.105,0.275-2.128,0.703-3.066L356.682,82.5z M357.192,72.534c0.17,0,0.256,0.128,0.256,0.384
		c0,0.255-0.086,0.383-0.256,0.383V72.534z M357.832,68.573c0.083,0.172,0.083,0.491,0,0.959c-0.086,0.469-0.172,0.874-0.256,1.214
		c0,0.341,0,0.469,0,0.383c0-0.084,0-0.256,0-0.511c0-0.256,0.041-0.596,0.127-1.022c0-0.17,0.021-0.34,0.064-0.511
		C357.81,68.915,357.832,68.745,357.832,68.573z M357.576,75.985c0.084-1.361,0.147-2.448,0.191-3.259
		c0.042-0.808,0.084-1.425,0.127-1.853c0.043-0.425,0.084-0.723,0.129-0.895c0.041-0.169,0.105-0.383,0.191-0.639L357.576,75.985z
		 M358.215,66.912c-0.172-0.595-0.236-1.341-0.191-2.235c0.041-0.895,0.063-1.767,0.063-2.619c0.255,0.683,0.339,1.469,0.255,2.363
		C358.256,65.316,358.215,66.146,358.215,66.912z M358.854,59.886c0,0.255-0.086,0.532-0.256,0.83
		c-0.172,0.3-0.299,0.619-0.383,0.958c0-0.255,0.063-0.511,0.191-0.767C358.534,60.653,358.682,60.313,358.854,59.886z
		 M358.215,68.829c0-0.425,0.041-0.767,0.127-1.022L358.215,68.829z M358.342,67.552c0-0.426,0.043-0.851,0.129-1.278
		L358.342,67.552z M358.598,65.379c0,0.256-0.043,0.428-0.127,0.512L358.598,65.379z M368.691,64.358
		c-0.172-0.426-0.235-0.681-0.191-0.767c0.042-0.084,0.148-0.34,0.319-0.767c0,0.427,0.021,0.66,0.063,0.702
		C368.926,63.571,368.861,63.846,368.691,64.358z M368.691,59.758c-0.086-0.17,0-0.298,0.256-0.384
		C369.117,59.374,369.031,59.502,368.691,59.758z M368.947,62.697c-0.172-0.595-0.191-1.086-0.064-1.47
		c0.129-0.383,0.234-0.83,0.32-1.341c0.17,0.427,0.191,0.894,0.063,1.405C369.139,61.802,369.031,62.271,368.947,62.697z
		 M369.33,43.276c-0.172-0.17-0.277-0.361-0.318-0.575c-0.045-0.211-0.108-0.403-0.192-0.575c0.17,0.086,0.275,0.256,0.319,0.512
		C369.181,42.892,369.244,43.106,369.33,43.276z M368.947,50.431h-0.128v0.383L368.947,50.431z M369.074,50.686h-0.127v0.256h0.127
		V50.686z M369.842,55.031c-0.172,0.172-0.214,0.172-0.128,0c0.084-0.17,0.084-0.256,0-0.256c-0.172,0.428-0.277,0.767-0.319,1.022
		c-0.044,0.255-0.107,0.597-0.191,1.021c0.17-0.083,0.339-0.383,0.511-0.894c0,0.171-0.044,0.341-0.128,0.511
		c-0.086,0.172-0.128,0.342-0.128,0.511v-0.128c-0.341,0.086-0.446,0.428-0.319,1.022c0.128,0.597,0.105,1.066-0.064,1.405
		c-0.085-0.936-0.107-1.853-0.063-2.747c0.041-0.894,0.146-1.853,0.318-2.874l0.384-0.512c-0.172,0.342-0.214,0.661-0.128,0.959
		C369.67,54.371,369.756,54.691,369.842,55.031z M369.969,52.475v0.639c0-0.169-0.086-0.425-0.255-0.767v-0.128
		c-0.172,0-0.256-0.083-0.256-0.255c0,0.086,0.084,0.214,0.256,0.383v0.384c-0.086,0-0.214-0.17-0.384-0.512v-0.894
		c0,0.085-0.043,0.127-0.127,0.127c0.084-0.083,0.127-0.169,0.127-0.255c0-0.084,0.043-0.212,0.128-0.384v-1.149
		c0.084,0.255,0.147,0.533,0.192,0.83c0.041,0.3,0.02,0.533-0.064,0.703c0,0.172,0.042,0.299,0.128,0.383l0.255,0.639v0.128
		l0.129,0.128H369.969z M369.203,51.836c0,0.086,0.02,0.149,0.063,0.191c0.042,0.044,0.063,0.108,0.063,0.191
		c0,0.086-0.043,0.086-0.127,0V51.836z M369.203,53.369c0-0.084,0.02-0.128,0.063-0.128c0.042,0,0.063-0.042,0.063-0.128
		C369.33,53.285,369.287,53.369,369.203,53.369z M369.458,53.114c0,0.172-0.044,0.3-0.128,0.384c0-0.084,0.021-0.147,0.064-0.191
		C369.437,53.264,369.458,53.199,369.458,53.114z M369.458,58.48c0.17,0.256,0.128,0.598-0.128,1.022
		C369.5,59.162,369.542,58.822,369.458,58.48z M370.098,51.07c-0.086,0.086-0.129,0.214-0.129,0.383
		c-0.086-0.083-0.127-0.255-0.127-0.511v-0.128L370.098,51.07z M369.969,52.219v-0.511c0.084,0.256,0.129,0.47,0.129,0.639
		L369.969,52.219z M370.225,52.475h-0.127v-0.128L370.225,52.475z"/>
	<path fill="#FFFFFF" d="M406.256,104.733c-0.172,0.171-0.384,0.277-0.639,0.319c-0.256,0.044-0.47,0.107-0.64,0.191
		c-0.683,0.938-1.811,2.3-3.386,4.089c-1.577,1.788-3.322,3.685-5.238,5.686c-1.916,2.002-3.855,3.877-5.813,5.622
		c-1.96,1.746-3.622,3.046-4.983,3.896l0.128,0.128c-0.938,0.683-1.896,1.193-2.874,1.533c-0.98,0.341-2.066,0.427-3.259,0.256
		c-0.086,0-0.192-0.021-0.319-0.064c-0.128-0.042-0.363-0.02-0.703,0.064c-0.938-0.426-1.746-0.596-2.428-0.512
		c-0.682,0.086-1.404-0.084-2.172-0.511c-0.342,0-0.66-0.042-0.958-0.128c-0.3-0.084-0.533-0.128-0.702-0.128
		c-0.854-0.17-1.258-0.425-1.215-0.767c0.043-0.339-0.318-0.723-1.086-1.149c-1.107-1.362-1.874-2.917-2.299-4.664
		c-0.428-1.745-0.428-3.853,0-6.324c0.425-1.617,0.616-3.173,0.574-4.664c-0.044-1.489,0.234-2.958,0.83-4.407
		c0.17-0.17,0.256-0.298,0.256-0.384l-0.127-0.256c0.51-1.105,0.936-2.063,1.277-2.874c0.339-0.809,0.639-1.617,0.895-2.428
		c0.255-0.809,0.531-1.64,0.83-2.492c0.297-0.85,0.703-1.83,1.214-2.938c0.255-0.425,0.447-0.83,0.575-1.214
		c0.127-0.383,0.275-0.786,0.447-1.214c0.17-0.169,0.318-0.339,0.447-0.511c0.127-0.17,0.275-0.339,0.447-0.511
		c0.425-1.106,0.914-2.064,1.469-2.875c0.553-0.809,1.256-1.681,2.108-2.619c0.255-0.34,0.53-0.703,0.83-1.086
		c0.298-0.384,0.531-0.787,0.703-1.214c0.169-0.681,0.639-0.979,1.405-0.895h0.383c0.17-0.425,0.426-0.723,0.768-0.895
		c0.339-0.17,0.68-0.339,1.021-0.511c0.256,0,0.467,0.021,0.639,0.063c0.17,0.044,0.34,0.108,0.512,0.191
		c0.256-0.339,0.595-0.425,1.021-0.255c0.256-0.084,0.639-0.084,1.15,0h0.256c0.084,0,0.17-0.042,0.256-0.128
		c0.083,0.086,0.146,0.172,0.191,0.256c0.041,0.086,0.147,0.171,0.318,0.255c0.17,0.172,0.32,0.235,0.447,0.192
		c0.129-0.042,0.275,0.021,0.447,0.191c0.17,0,0.426,0.086,0.768,0.255c0.084,0,0.127-0.041,0.127-0.127
		c0-0.084,0.084-0.084,0.256,0l-0.128,0.639c0.17,0,0.256-0.021,0.256-0.064c0-0.042,0.042-0.063,0.128-0.063
		c0.17,0.086,0.275,0.172,0.318,0.256c0.043,0.086,0.148,0.127,0.32,0.127V80.2c1.873,1.194,2.98,3.024,3.322,5.494
		c0.339,2.472,0.041,4.855-0.895,7.155v0.256c-0.768,0.938-1.386,1.874-1.854,2.811c-0.469,0.938-1.002,1.747-1.597,2.428
		c-0.086,0.427-0.3,0.746-0.639,0.958c-0.341,0.214-0.597,0.447-0.767,0.703c-0.938,0.683-1.811,1.491-2.619,2.428
		c-0.811,0.938-1.811,1.704-3.003,2.3c-0.341,0.255-1.002,0.597-1.979,1.021c-0.98,0.428-1.726,0.811-2.236,1.15
		c-0.428,0.767-0.747,1.258-0.959,1.469c-0.213,0.214-0.383,0.428-0.511,0.64c-0.128,0.213-0.214,0.532-0.255,0.958
		c-0.045,0.427-0.15,1.193-0.32,2.3c-0.172,1.193-0.427,2.386-0.766,3.577c-0.342,1.194-0.428,2.3-0.256,3.322
		c0.256,1.449,1.021,2.472,2.299,3.066c1.192-0.256,2.301-0.703,3.322-1.342c1.022-0.639,2-1.342,2.939-2.108
		c0.17,0.086,0.275,0.086,0.318,0c0.043-0.083,0.148-0.127,0.32-0.127c0.681-0.512,1.426-1.001,2.236-1.47
		c0.809-0.467,1.425-1.086,1.852-1.853l0.384-0.384h-0.128c0.34-0.339,0.723-0.595,1.15-0.767c0.425-0.169,0.766-0.553,1.021-1.149
		v0.128c0.17-0.084,0.404-0.212,0.703-0.384c0.297-0.17,0.403-0.467,0.319-0.895c0.084,0.086,0.17,0.128,0.255,0.128v-0.255
		c0.256-0.256,0.512-0.531,0.768-0.831c0.256-0.298,0.467-0.489,0.639-0.575c1.021-0.851,1.959-1.767,2.811-2.747
		c0.851-0.978,1.703-1.958,2.556-2.938c0.851-0.979,1.788-2,2.812-3.066c1.021-1.063,2.213-2.108,3.576-3.13
		c0.256-0.17,0.468-0.384,0.64-0.639c0.169-0.256,0.339-0.468,0.511-0.64c0.256-0.084,0.467-0.297,0.639-0.639
		c0.17-0.339,0.384-0.681,0.639-1.022c0.34,0.598,0.639,0.726,0.895,0.384c0.512-0.34,0.895-0.639,1.15-0.895
		s0.553-0.595,0.895-1.022c0.17,0.172,0.34,0.172,0.511,0l-0.255,0.256h0.383c-0.086,0.086-0.128,0.191-0.128,0.319
		s-0.086,0.191-0.255,0.191c-0.172,0.172-0.428,0.491-0.768,0.959c-0.341,0.469-0.427,0.66-0.256,0.574
		c-0.085,0.172-0.299,0.428-0.639,0.767c-0.341,0.342-0.427,0.726-0.255,1.15c0,0.086,0.042-0.02,0.128-0.319
		c0.084-0.298,0.211-0.447,0.383-0.447l0.767-0.767c-0.085,0.172-0.107,0.256-0.063,0.256c0.041,0,0.105-0.042,0.191-0.128
		c0.084-0.084,0.148-0.128,0.191-0.128c0.042,0,0.064,0.128,0.064,0.383c0.084-0.169,0-0.083-0.256,0.256
		c-0.256,0.342-0.469,0.597-0.639,0.767l0.127-0.128c0,0.086-0.043,0.128-0.127,0.128c-0.598,1.278-1.406,2.258-2.428,2.938
		c-0.086,0.598-0.235,0.959-0.447,1.086c-0.213,0.128-0.405,0.278-0.574,0.447c0-0.169,0.105-0.275,0.318-0.319
		c0.212-0.042,0.404-0.233,0.575-0.574c-0.683,0.511-1.022,0.811-1.022,0.894c-0.255,0-0.427,0.086-0.511,0.256
		c-0.085,0.172-0.128,0.342-0.128,0.511v0.256c-0.172,0.086-0.299,0.214-0.383,0.384c-0.086,0.171-0.214,0.299-0.383,0.383
		c0.083-0.084,0.063-0.042-0.064,0.128c-0.128,0.172-0.319,0.427-0.575,0.767L406.256,104.733z M369.074,109.076
		c0,0.172-0.021,0.342-0.063,0.511c-0.044,0.172-0.063,0.342-0.063,0.512c-0.172,0.171-0.256,0.341-0.256,0.511
		c0,0.172-0.044,0.384-0.128,0.639v0.128c-0.171,0.511-0.277,1.066-0.319,1.661c-0.044,0.597-0.107,1.193-0.191,1.789
		c0.17,0.255,0.191,0.511,0.064,0.767c-0.129,0.255-0.192,0.469-0.192,0.639l0.384,1.405c0,1.193,0.211,2.386,0.639,3.577
		c0.425,1.194,1.233,2.216,2.428,3.066c-0.172-0.169-0.32-0.383-0.447-0.639c-0.128-0.256-0.236-0.425-0.32-0.511
		c-0.427-0.937-0.83-1.789-1.213-2.556c-0.384-0.767-0.575-1.661-0.575-2.683c0-2.556,0.384-5.239,1.149-8.05
		c0-0.425,0.064-0.914,0.191-1.47c0.129-0.553,0.148-1,0.064-1.341c-0.683,0.171-1.044,0.469-1.086,0.894
		C369.095,108.354,369.074,108.737,369.074,109.076z M379.424,81.99l-0.639-0.128c-0.086,0,0.042-0.17,0.383-0.511L379.424,81.99z
		 M383.768,99.239c0,0.086,0.043,0.128,0.129,0.128c0.169,0,0.255-0.042,0.255-0.128c1.192-0.681,2.15-1.512,2.875-2.492
		c0.723-0.978,1.341-2.149,1.853-3.514c-0.256-0.083-0.383-0.255-0.383-0.511l0.511-0.383l0.894-4.855
		c-0.171-0.256-0.191-0.531-0.063-0.831c0.128-0.297,0.147-0.53,0.063-0.702c-0.255,0.086-0.49,0.172-0.702,0.256
		c-0.214,0.085-0.491,0.341-0.831,0.767c-0.341,0.511-0.725,1.13-1.149,1.853c-0.427,0.725-0.938,1.341-1.533,1.853l-1.149,1.661
		c-0.256,0.597-0.598,1.363-1.022,2.3c-0.427,0.938-0.831,1.916-1.214,2.938s-0.746,2.024-1.086,3.002
		c-0.342,0.98-0.639,1.812-0.895,2.492c0.34-0.256,0.959-0.851,1.853-1.789C383.065,100.346,383.596,99.665,383.768,99.239z
		 M408.684,102.433c0.169,0.085,0.127,0.127-0.129,0.127c-0.255,0-0.427,0-0.511,0c-0.085-0.169,0-0.211,0.256-0.127
		C408.555,102.518,408.684,102.518,408.684,102.433z M409.705,101.027c0,0.086-0.044,0.192-0.128,0.319
		c-0.085,0.128-0.171,0.278-0.255,0.447C409.15,101.454,409.277,101.198,409.705,101.027z M409.961,99.493
		c0.084,0,0.084,0.086,0,0.256c-0.086,0.172-0.214,0.256-0.384,0.256c0.084-0.17,0.17-0.275,0.256-0.319
		C409.916,99.644,409.961,99.579,409.961,99.493z M411.238,98.472l-0.256,0.255L411.238,98.472z M411.494,96.299l-0.384,0.384
		v-0.128L411.494,96.299z M411.877,95.916c0,0.086-0.127,0.256-0.383,0.511v-0.255l0.127-0.128v0.128L411.877,95.916z M411.75,95.66
		c0.339-0.511,0.467-0.723,0.383-0.639L411.75,95.66z"/>
	<path fill="#FFFFFF" d="M407.148,139.358c-0.086,0-0.128-0.044-0.128-0.128c-0.086,0.17-0.128,0.34-0.128,0.511l0.128,0.128
		c-0.086,0-0.128-0.021-0.128-0.063c0-0.044-0.043-0.064-0.127-0.064c-0.172-0.086-0.342-0.086-0.512,0
		c-0.172,0.084-0.342,0-0.512-0.255c0-0.172-0.043-0.256-0.127-0.256c0,0.17-0.044,0.298-0.128,0.384
		c-0.086,0.083-0.171,0.211-0.255,0.383c-0.256-0.172-0.492-0.363-0.703-0.575c-0.214-0.213-0.533-0.319-0.959-0.319v0.384
		l-0.511-0.256c-0.938,0.511-1.683,0.467-2.235-0.128c-0.553-0.597-0.787-1.449-0.703-2.556h-0.128l0.128-0.255l-0.383-0.384
		l-0.129,0.128c0.086-1.447,0.129-2.319,0.129-2.619c0-0.298,0-0.511,0-0.639s0.043-0.403,0.127-0.831
		c0.086-0.425,0.256-1.489,0.512-3.193c0.086-0.512,0.107-1.022,0.063-1.533c-0.042-0.512-0.021-0.979,0.063-1.406
		c0-0.169,0.064-0.425,0.192-0.767c0.128-0.339,0.105-0.639-0.063-0.894c0.425-2.896,0.85-5.643,1.277-8.241
		c0.425-2.598,0.766-5.345,1.021-8.241c0.426-1.703,0.768-3.386,1.022-5.047s0.468-3.428,0.639-5.303
		c0.084-0.595,0.319-1.937,0.703-4.024c0.384-2.086,0.872-4.556,1.47-7.411c0.594-2.853,1.233-5.896,1.916-9.135
		c0.681-3.236,1.383-6.345,2.107-9.327c0.723-2.98,1.385-5.642,1.98-7.985c0.596-2.342,1.106-4.025,1.533-5.047l0.384-1.406
		c0.17-0.339,0.361-0.574,0.575-0.702c0.211-0.128,0.403-0.403,0.574-0.831c0.256-0.169,0.576-0.403,0.959-0.702
		c0.383-0.298,0.83-0.531,1.342-0.703c0.256-0.17,0.488-0.105,0.703,0.191c0.211,0.3,0.53,0.364,0.957,0.192
		c0.17,0.341,0.384,0.491,0.64,0.447c0.255-0.042,0.553-0.021,0.894,0.063c0.682,0.172,1.17,0.511,1.47,1.022
		c0.298,0.511,0.659,0.938,1.087,1.277c0.424,0.683,0.85,1.194,1.277,1.533c0.425,0.342,0.553,1.066,0.383,2.172
		c-0.086,0.256-0.235,0.491-0.447,0.703c-0.213,0.214-0.277,0.533-0.191,0.958l-0.895,3.066c-0.342,0.172-0.511,0.428-0.511,0.767
		c0,0.342-0.044,0.683-0.128,1.022c-0.086,0.256-0.319,1.277-0.703,3.066c-0.383,1.789-0.852,3.961-1.405,6.517
		c-0.555,2.555-1.108,5.282-1.661,8.177c-0.555,2.896-1.086,5.622-1.597,8.177c-0.511,2.556-0.917,4.75-1.214,6.58
		c-0.299,1.833-0.447,2.875-0.447,3.131l1.533-2.3c0.34-0.084,0.681-0.384,1.021-0.895c0.426-0.425,0.809-0.786,1.15-1.086
		c0.34-0.298,0.596-0.575,0.768-0.831l3.066-3.449c0.766-0.511,1.533-1.042,2.299-1.598c0.768-0.553,1.576-1.042,2.428-1.469
		c1.361-0.595,2.875-1,4.536-1.214c1.661-0.212,3.087-0.02,4.28,0.575c0.17-0.17,0.319-0.17,0.447,0
		c0.127,0.172,0.275,0.255,0.447,0.255c0,0.172,0.02,0.278,0.063,0.319c0.042,0.044,0.106,0.15,0.192,0.32
		c1.277,0.255,2.172,1.149,2.683,2.683c-0.256-0.17-0.405-0.361-0.447-0.575c-0.044-0.211-0.149-0.361-0.319-0.447
		c0,0.428,0.147,0.811,0.447,1.15c0.297,0.341,0.447,0.853,0.447,1.533c0.17-0.084,0.256,0,0.256,0.256
		c0,0.255,0.083,0.383,0.255,0.383c0.17,0.428,0.298,0.747,0.384,0.958c0.084,0.214,0.127,0.447,0.127,0.703l0.256-1.15
		c0.17,0.342,0.191,0.684,0.064,1.022c-0.129,0.342-0.236,0.725-0.32,1.15v0.127c0.17,1.533,0.148,3.11-0.063,4.728
		c-0.214,1.619-0.447,3.238-0.702,4.855c0,0.086,0.041,0.256,0.127,0.511l-0.639,1.533l0.512-0.639
		c-1.364,4.686-3.367,8.902-6.006,12.649c0,0.172-0.044,0.277-0.127,0.319c-0.086,0.044-0.129,0.149-0.129,0.319
		c-0.086,0-0.107,0.022-0.063,0.064c0.042,0.044-0.022,0.021-0.191-0.064v-0.256c-0.427,0.938-0.958,1.77-1.597,2.492
		c-0.64,0.725-1.301,1.555-1.98,2.491l-1.406,1.15c-0.342,0.597-0.66,1.002-0.958,1.213c-0.3,0.214-0.788,0.533-1.47,0.959
		c-0.511,0.341-1.066,0.725-1.66,1.149c-0.598,0.428-1.322,0.767-2.172,1.022l-1.406,0.383v-0.127l-3.578,0.511
		c-0.51-0.256-1.234-0.319-2.172-0.191s-1.746,0.107-2.428-0.064c-0.085-0.17-0.255-0.255-0.51-0.255
		c-0.342,0-0.64,0.085-0.895,0.255c-0.256,0.172-0.512,0.363-0.768,0.575c-0.255,0.214-0.469,0.384-0.639,0.511
		c-0.172,0.128-0.299,0.064-0.383-0.191c-0.172,0.511-0.3,0.895-0.383,1.15c-0.086,0.255-0.129,0.427-0.129,0.511v0.511
		c0,0.428,0,0.428,0,0c0-0.425-0.021-0.978-0.063-1.661c-0.044-0.681-0.086-1.383-0.128-2.107c-0.044-0.723-0.063-1.17-0.063-1.342
		c0-0.17,0,0.063,0,0.702c0,0.64,0.042,1.938,0.128,3.897c0,0.767-0.045,1.258-0.128,1.47c-0.086,0.213-0.172,0.319-0.256,0.319
		c-0.086,0-0.171,0.021-0.255,0.063c-0.086,0.044-0.086,0.319,0,0.83l-0.384,0.384c-0.086,0.256-0.341,0.661-0.767,1.214
		c-0.428,0.553-0.683,0.914-0.767,1.086c-0.172,0-0.214,0.105-0.128,0.319c0.084,0.212,0.084,0.319,0,0.319
		c-0.086,0.17-0.191,0.17-0.319,0c-0.128-0.172-0.235-0.255-0.319-0.255c0,0.083-0.044,0.169-0.128,0.255v0.128
		C407.104,139.23,407.148,139.272,407.148,139.358z M399.993,135.653c-0.169-0.084-0.169-0.212,0-0.384
		c-0.083-0.17-0.147-0.17-0.191,0c-0.042,0.172-0.063,0.384-0.063,0.639c0.086,0,0.149,0.022,0.191,0.064
		c0.043,0.044,0.107,0.063,0.191,0.063c0-0.256-0.042-0.425-0.128-0.511V135.653z M400.633,137.697
		c0.083-0.597-0.086-0.979-0.512-1.15c0.172,0.086,0.256,0.256,0.256,0.512S400.463,137.525,400.633,137.697z M407.148,101.41
		c0-0.17,0.105-0.384,0.319-0.639c0.212-0.256,0.319-0.512,0.319-0.767c-0.172-0.34-0.172-0.659,0-0.959
		c0.17-0.297,0.17-0.53,0-0.702c-0.256,0.086-0.405,0.235-0.447,0.447c-0.044,0.214-0.149,0.447-0.319,0.702
		c0.084,0.428,0.063,0.831-0.063,1.214c-0.128,0.384-0.15,0.789-0.064,1.214c-0.427,0.938-0.746,2.024-0.958,3.259
		c-0.214,1.235-0.405,2.449-0.575,3.641c-0.511,3.152-0.98,6.197-1.405,9.136c-0.427,2.938-0.853,5.941-1.278,9.008
		c-0.427,2.896-0.682,5.452-0.766,7.666c0.17-0.17,0.256-0.298,0.256-0.384c0-0.339,0.127-0.658,0.383-0.958
		c0.256-0.297,0.383-0.575,0.383-0.83c0.084,0,0.128-0.17,0.128-0.512c0.681-5.535,1.362-10.88,2.044-16.034
		c0.682-5.153,1.617-10.242,2.812-15.269v-0.128c-0.172,0.086-0.277,0.235-0.319,0.447
		C407.552,101.177,407.404,101.326,407.148,101.41z M409.832,135.78l0.639-0.639c0.084,0.172,0.02,0.3-0.191,0.384
		c-0.215,0.086-0.363,0.214-0.447,0.383V135.78z M411.173,130.35c-0.044,0.128-0.063,0.277-0.063,0.447
		c0.084,0,0.147-0.17,0.191-0.511c0.042-0.34,0.105-0.682,0.191-1.022l-0.383,0.639C411.193,130.074,411.215,130.222,411.173,130.35
		z M420.053,105.115c-0.597,0.938-1.107,1.769-1.533,2.491c-0.428,0.725-0.852,1.642-1.277,2.747
		c-0.428,0.256-0.746,0.725-0.959,1.406c-0.213,0.683-0.532,1.277-0.957,1.788c-0.342,0.512-0.342,0.853,0,1.022
		c-0.342,0.767-0.703,1.469-1.086,2.108c-0.384,0.639-0.726,1.258-1.023,1.853c-0.299,0.597-0.574,1.258-0.83,1.98
		c-0.256,0.725-0.428,1.555-0.511,2.491c-0.172,0.683-0.278,1.13-0.319,1.342c-0.045,0.213-0.064,0.66-0.064,1.342
		c0.084,0,0.128,0.235,0.128,0.702c0,0.47,0.084,0.703,0.256,0.703c0.083,0,0.255-0.298,0.511-0.895
		c0.426,0.172,0.723,0.383,0.895,0.639c0.17,0.256,0.467,0.469,0.895,0.639c0.17-0.17,0.361-0.211,0.574-0.128
		c0.213,0.086,0.531,0.128,0.959,0.128c0.426,0,0.83,0.022,1.214,0.064c0.384,0.044,0.745,0.021,1.086-0.064
		c0.255-0.255,0.425-0.383,0.511-0.383c0.17-0.084,0.298-0.106,0.383-0.064c0.084,0.044,0.17,0.022,0.256-0.063l1.789-0.895
		c0.426-0.425,0.895-0.851,1.406-1.277c0.51-0.426,1.021-0.767,1.533-1.022c0.169-0.425,0.339-0.639,0.51-0.639
		c1.873-1.873,3.492-3.917,4.855-6.133c0.34-0.681,0.639-1.192,0.895-1.533c0.256-0.34,0.596-0.809,1.022-1.405l2.172-4.983
		c0.17-0.851,0.425-1.703,0.767-2.556c0.34-0.851,0.596-1.744,0.767-2.683c0-0.256-0.044-0.384-0.128-0.384
		c-0.086,0-0.127-0.084-0.127-0.255c0.255-0.937,0.447-2.001,0.574-3.194c0.128-1.192,0.191-2.342,0.191-3.45
		c0-0.17-0.021-0.256-0.063-0.256c-0.044,0-0.063-0.041-0.063-0.127c0.17-0.681,0.147-1.17-0.064-1.47
		c-0.213-0.298-0.319-0.531-0.319-0.703c-0.341-0.595-0.597-1.169-0.767-1.725c-0.172-0.553-0.555-1.042-1.15-1.469
		c-0.086,0-0.255,0.044-0.511,0.127c-0.085-0.169-0.128-0.191-0.128-0.063s-0.127,0.107-0.383-0.063
		c-0.172,0-0.256,0.044-0.256,0.127c0,0.086-0.086,0.044-0.256-0.127c-0.427,0.511-0.852,0.916-1.277,1.214
		c-0.428,0.299-0.767,0.618-1.021,0.958c0-0.17,0.063-0.275,0.191-0.319c0.127-0.042,0.147-0.148,0.063-0.319
		c-2.472,1.788-4.579,3.982-6.324,6.58c-1.747,2.599-3.386,5.346-4.919,8.24l0.511-0.511h0.128c0.681-1.105,1.319-2.172,1.916-3.194
		c0.596-1.021,1.234-1.958,1.917-2.811c-0.511,0.683-0.958,1.342-1.342,1.98s-0.661,1.386-0.83,2.235L420.053,105.115z
		 M411.748,129.008c0-0.084-0.086-0.042-0.256,0.128c0.084,0,0.128-0.02,0.128-0.063
		C411.62,129.031,411.662,129.008,411.748,129.008z M424.908,96.939l-0.256,0.639c0,0.256-0.063,0.511-0.191,0.767
		s-0.363,0.341-0.703,0.256c0,0.085-0.021,0.149-0.063,0.191c-0.044,0.044-0.063,0.149-0.063,0.319
		c-0.342,0.172-0.512,0.363-0.512,0.575c0,0.213-0.172,0.491-0.511,0.83c0.169-0.767,0.53-1.447,1.086-2.044
		C424.248,97.876,424.652,97.365,424.908,96.939z M426.059,95.916c0.255,0.086,0.297,0.149,0.127,0.191
		c-0.172,0.044-0.256,0.108-0.256,0.191c-0.086-0.083-0.086-0.147,0-0.191C426.014,96.066,426.059,96.002,426.059,95.916z
		 M426.569,95.916c0.083-0.256,0.212-0.511,0.384-0.767c0.169-0.256,0.339-0.467,0.51-0.639c-0.085,0.172-0.213,0.383-0.383,0.639
		C426.908,95.406,426.738,95.66,426.569,95.916z M427.847,93.999c-0.085,0-0.171,0.044-0.255,0.128c-0.086,0-0.086-0.042,0-0.128
		c0.084-0.083,0.211-0.083,0.383,0H427.847z M428.23,93.999c0-0.083-0.172,0.044-0.512,0.384c0-0.17,0.064-0.256,0.191-0.256
		C428.039,94.127,428.145,94.085,428.23,93.999z M428.996,93.744c0,0.086-0.043,0.128-0.127,0.128L428.996,93.744z M434.619,107.415
		c0.084-0.17,0.211-0.361,0.383-0.575c0.17-0.211,0.211-0.447,0.128-0.702l-0.767,1.277c0-0.17,0.084-0.339,0.256-0.511
		c0.169-0.17,0.169-0.298,0-0.384c-0.172,0.342-0.342,0.639-0.512,0.895c-0.172,0.256-0.213,0.597-0.127,1.022l0.383-1.022
		c0.084,0.597,0,1.002-0.256,1.214c-0.256,0.214-0.428,0.533-0.512,0.958l0.256-0.128c0.34-0.339,0.531-0.723,0.575-1.149
		C434.469,107.885,434.533,107.587,434.619,107.415z M434.49,121.981c0-0.084,0.043-0.169,0.129-0.255
		c0,0.086-0.022,0.127-0.064,0.127C434.511,121.853,434.49,121.897,434.49,121.981z M437.302,117.126
		c0.084,0.171,0.042,0.383-0.128,0.639c-0.172,0.255-0.299,0.511-0.383,0.767c0-0.256,0.063-0.512,0.191-0.767
		C437.109,117.509,437.216,117.297,437.302,117.126z M441.007,109.076c0.17,0.342,0.212,0.639,0.128,0.895
		c-0.086,0.255-0.172,0.469-0.256,0.639c0-0.17,0.043-0.384,0.128-0.639C441.091,109.715,441.091,109.418,441.007,109.076z
		 M442.412,92.722c-0.427-0.425-0.639-0.937-0.639-1.533c0.084,0.428,0.17,0.747,0.256,0.958
		C442.113,92.361,442.24,92.552,442.412,92.722z M442.029,103.072c0.17,0.086,0.233,0.235,0.191,0.447
		c-0.044,0.213-0.107,0.319-0.191,0.319c0-0.17,0.02-0.298,0.064-0.384C442.135,103.37,442.113,103.243,442.029,103.072z
		 M443.051,97.194c0,0.086,0.021,0.3,0.064,0.64c0.042,0.341-0.021,0.511-0.191,0.511L443.051,97.194z"/>
</g>
</svg>
